<svg width="81" height="81" viewBox="0 0 81 81" fill="none" xmlns="http://www.w3.org/2000/svg">
<path d="M18.7695 33.7748V23.9918C18.7715 22.5425 19.348 21.1531 20.3729 20.1283C21.3977 19.1035 22.787 18.5269 24.2363 18.525H30.1249C30.3104 18.53 30.4866 18.6072 30.616 18.7402C30.7454 18.8732 30.8179 19.0514 30.8179 19.237C30.8179 19.4225 30.7454 19.6008 30.616 19.7338C30.4866 19.8667 30.3104 19.944 30.1249 19.949H24.2379C23.1656 19.9502 22.1377 20.3767 21.3795 21.1349C20.6213 21.8931 20.1947 22.9211 20.1935 23.9934V33.7763C20.1961 33.8715 20.1796 33.9661 20.1449 34.0548C20.1103 34.1434 20.0583 34.2242 19.9919 34.2924C19.9256 34.3606 19.8462 34.4148 19.7585 34.4518C19.6709 34.4888 19.5767 34.5079 19.4815 34.5079C19.3864 34.5079 19.2922 34.4888 19.2045 34.4518C19.1169 34.4148 19.0375 34.3606 18.9711 34.2924C18.9048 34.2242 18.8527 34.1434 18.8181 34.0548C18.7835 33.9661 18.767 33.8715 18.7695 33.7763V33.7748ZM34.0152 61.0526H24.2379C23.166 61.0519 22.1382 60.626 21.38 59.8684C20.6217 59.1107 20.195 58.0832 20.1935 57.0113V51.1165C20.1961 51.0214 20.1796 50.9268 20.1449 50.8381C20.1103 50.7495 20.0583 50.6687 19.9919 50.6005C19.9256 50.5323 19.8462 50.4781 19.7585 50.4411C19.6709 50.4041 19.5767 50.385 19.4815 50.385C19.3864 50.385 19.2922 50.4041 19.2045 50.4411C19.1169 50.4781 19.0375 50.5323 18.9711 50.6005C18.9048 50.6687 18.8527 50.7495 18.8181 50.8381C18.7835 50.9268 18.767 51.0214 18.7695 51.1165V57.0113C18.7712 58.4607 19.3477 59.8503 20.3726 60.8751C21.3974 61.9 22.787 62.4765 24.2363 62.4781H34.0152C34.1103 62.4807 34.205 62.4642 34.2936 62.4296C34.3822 62.3949 34.463 62.3429 34.5312 62.2766C34.5994 62.2102 34.6536 62.1308 34.6906 62.0432C34.7276 61.9555 34.7467 61.8613 34.7467 61.7661C34.7467 61.671 34.7276 61.5768 34.6906 61.4891C34.6536 61.4015 34.5994 61.3221 34.5312 61.2558C34.463 61.1894 34.3822 61.1374 34.2936 61.1027C34.205 61.0681 34.1103 61.0516 34.0152 61.0542V61.0526ZM62.011 46.5161C61.9174 46.516 61.8248 46.5344 61.7384 46.5701C61.652 46.6059 61.5735 46.6583 61.5074 46.7244C61.4412 46.7905 61.3887 46.8689 61.3529 46.9553C61.3171 47.0417 61.2987 47.1343 61.2987 47.2278V57.0113C61.2971 58.0832 60.8703 59.1106 60.1121 59.8682C59.3539 60.6258 58.3262 61.0518 57.2543 61.0526H51.3673C51.1818 61.0576 51.0056 61.1348 50.8762 61.2678C50.7468 61.4008 50.6743 61.579 50.6743 61.7646C50.6743 61.9502 50.7468 62.1284 50.8762 62.2614C51.0056 62.3943 51.1818 62.4716 51.3673 62.4766H57.2543C58.7037 62.4749 60.0932 61.8984 61.1181 60.8736C62.143 59.8487 62.7195 58.4591 62.7211 57.0098V47.2278C62.7211 47.0393 62.6464 46.8585 62.5132 46.7251C62.3801 46.5917 62.1994 46.5165 62.011 46.5161ZM47.4771 19.9474H57.2543C58.3266 19.9486 59.3546 20.3751 60.1128 21.1334C60.871 21.8916 61.2975 22.9195 61.2987 23.9918V29.8866C61.3037 30.0721 61.3809 30.2483 61.5139 30.3777C61.6469 30.5072 61.8251 30.5796 62.0107 30.5796C62.1963 30.5796 62.3745 30.5072 62.5075 30.3777C62.6404 30.2483 62.7177 30.0721 62.7227 29.8866V23.9918C62.7208 22.5425 62.1442 21.1531 61.1194 20.1283C60.0946 19.1035 58.7052 18.5269 57.2559 18.525H47.4771C47.3819 18.5224 47.2873 18.5389 47.1986 18.5736C47.11 18.6082 47.0292 18.6602 46.961 18.7266C46.8928 18.793 46.8386 18.8723 46.8016 18.96C46.7646 19.0476 46.7455 19.1418 46.7455 19.237C46.7455 19.3321 46.7646 19.4263 46.8016 19.514C46.8386 19.6017 46.8928 19.681 46.961 19.7474C47.0292 19.8137 47.11 19.8658 47.1986 19.9004C47.2873 19.935 47.3819 19.9515 47.4771 19.949V19.9474ZM36.231 22.7808V15.1798C36.231 15.0861 36.2494 14.9933 36.2853 14.9067C36.3212 14.8201 36.3739 14.7415 36.4402 14.6753C36.5066 14.6091 36.5854 14.5567 36.6721 14.5211C36.7588 14.4854 36.8516 14.4672 36.9454 14.4676H44.5468C44.6404 14.4676 44.733 14.486 44.8194 14.5218C44.9058 14.5576 44.9843 14.6101 45.0505 14.6762C45.1166 14.7423 45.1691 14.8208 45.2049 14.9073C45.2407 14.9937 45.2591 15.0863 45.2591 15.1798V22.7813C45.259 22.9701 45.1838 23.1511 45.0503 23.2846C44.9167 23.4181 44.7357 23.493 44.5468 23.493H36.9454C36.8517 23.4932 36.759 23.475 36.6724 23.4392C36.5858 23.4035 36.5072 23.3511 36.4409 23.2849C36.3747 23.2188 36.3221 23.1402 36.2863 23.0537C36.2504 22.9671 36.232 22.8744 36.2321 22.7808H36.231ZM37.6561 22.069H43.833V15.8916H37.6561V22.069ZM45.2575 58.2192V65.8207C45.2574 66.0092 45.1825 66.19 45.0493 66.3234C44.9161 66.4569 44.7354 66.532 44.5468 66.5324H36.9454C36.8519 66.5324 36.7593 66.514 36.6729 66.4782C36.5865 66.4424 36.508 66.3899 36.4419 66.3238C36.3758 66.2576 36.3234 66.1791 36.2877 66.0927C36.2519 66.0063 36.2336 65.9137 36.2336 65.8202V58.2187C36.2338 58.03 36.3088 57.849 36.4423 57.7156C36.5757 57.5821 36.7567 57.5071 36.9454 57.507H44.5468C44.7354 57.5075 44.9161 57.5828 45.0493 57.7163C45.1825 57.8498 45.2574 58.0306 45.2575 58.2192ZM43.833 58.931H37.6561V65.1085H43.833V58.931ZM66.7785 36.6993V44.3007C66.7785 44.3942 66.7601 44.4868 66.7243 44.5732C66.6885 44.6596 66.636 44.7381 66.5699 44.8042C66.5037 44.8703 66.4252 44.9227 66.3388 44.9584C66.2524 44.9942 66.1598 45.0125 66.0663 45.0125H58.4648C58.2761 45.0125 58.095 44.9375 57.9616 44.804C57.8281 44.6705 57.7531 44.4895 57.7531 44.3007V36.6993C57.7531 36.5104 57.8281 36.3292 57.9617 36.1956C58.0953 36.0621 58.2764 35.987 58.4653 35.987H66.0668C66.2556 35.9872 66.4366 36.0623 66.5701 36.1958C66.7036 36.3294 66.7785 36.5105 66.7785 36.6993ZM65.3546 37.4115H59.1771V43.5901H65.3546V37.4115ZM23.0258 45.013H15.4259C15.3324 45.0131 15.2397 44.9947 15.1533 44.9589C15.0668 44.9231 14.9883 44.8707 14.9221 44.8045C14.856 44.7384 14.8035 44.6598 14.7678 44.5734C14.732 44.4869 14.7136 44.3943 14.7137 44.3007V36.6993C14.7137 36.5104 14.7887 36.3292 14.9223 36.1956C15.0559 36.0621 15.237 35.987 15.4259 35.987H23.0274C23.2162 35.9873 23.3971 36.0624 23.5305 36.196C23.664 36.3295 23.739 36.5105 23.7391 36.6993V44.3007C23.7393 44.3944 23.7209 44.4871 23.6852 44.5736C23.6495 44.6602 23.597 44.7388 23.5309 44.805C23.4647 44.8713 23.3862 44.9239 23.2997 44.9597C23.2132 44.9956 23.1205 45.014 23.0269 45.014L23.0258 45.013ZM22.3152 37.4131H16.1377V43.5901H22.3152V37.4131ZM29.7167 17.076L32.7802 19.2357L29.7162 21.3979C29.6398 21.4518 29.5748 21.5203 29.5249 21.5993C29.4749 21.6783 29.4411 21.7664 29.4252 21.8586C29.4093 21.9507 29.4117 22.045 29.4323 22.1362C29.4529 22.2274 29.4912 22.3137 29.5451 22.39C29.599 22.4664 29.6675 22.5314 29.7465 22.5813C29.8255 22.6313 29.9136 22.6651 30.0058 22.681C30.0979 22.6969 30.1922 22.6945 30.2834 22.6739C30.3746 22.6533 30.4609 22.615 30.5372 22.5611L34.426 19.8172C34.5192 19.7515 34.5953 19.6644 34.6478 19.5631C34.7003 19.4619 34.7278 19.3495 34.7278 19.2354C34.7278 19.1214 34.7003 19.009 34.6478 18.9077C34.5953 18.8064 34.5192 18.7193 34.426 18.6536L30.5367 15.9119C30.3822 15.8091 30.1936 15.7707 30.0112 15.8049C29.8288 15.839 29.6669 15.943 29.56 16.0948C29.4531 16.2465 29.4097 16.434 29.439 16.6172C29.4682 16.8005 29.5679 16.9651 29.7167 17.076ZM59.8482 29.4758C59.7957 29.3964 59.7277 29.3283 59.6484 29.2756C59.5691 29.2229 59.48 29.1866 59.3864 29.169C59.2928 29.1513 59.1966 29.1526 59.1036 29.1728C59.0105 29.193 58.9224 29.2317 58.8446 29.2865C58.7667 29.3414 58.7007 29.4113 58.6503 29.4922C58.6 29.573 58.5664 29.6631 58.5515 29.7572C58.5366 29.8513 58.5408 29.9473 58.5637 30.0398C58.5867 30.1322 58.6279 30.2191 58.6851 30.2953L61.4289 34.184C61.4947 34.2772 61.5819 34.3532 61.6832 34.4056C61.7845 34.4581 61.8969 34.4855 62.011 34.4855C62.125 34.4855 62.2374 34.458 62.3386 34.4055C62.4398 34.3529 62.5269 34.2768 62.5925 34.1835L65.3343 30.2953C65.3901 30.2189 65.4301 30.1323 65.452 30.0403C65.474 29.9483 65.4774 29.8528 65.4621 29.7595C65.4467 29.6662 65.413 29.5769 65.3628 29.4968C65.3125 29.4166 65.2469 29.3473 65.1696 29.2928C65.0923 29.2383 65.0049 29.1998 64.9126 29.1794C64.8202 29.1591 64.7247 29.1573 64.6317 29.1743C64.5387 29.1912 64.4499 29.2265 64.3707 29.2781C64.2914 29.3297 64.2232 29.3965 64.1701 29.4748L62.0104 32.5382L59.8482 29.4758ZM51.776 63.9292L48.712 61.7649L51.7755 59.6078C51.8519 59.5539 51.917 59.4855 51.9669 59.4065C52.0169 59.3275 52.0508 59.2394 52.0668 59.1473C52.0827 59.0552 52.0803 58.9608 52.0598 58.8696C52.0393 58.7784 52.001 58.6921 51.9471 58.6157C51.8932 58.5393 51.8248 58.4743 51.7458 58.4243C51.6668 58.3743 51.5787 58.3404 51.4866 58.3245C51.3944 58.3085 51.3001 58.3109 51.2089 58.3314C51.1177 58.352 51.0314 58.3903 50.955 58.4442L47.0668 61.1828C46.9735 61.2485 46.8974 61.3356 46.8449 61.4369C46.7924 61.5381 46.765 61.6505 46.765 61.7646C46.765 61.8787 46.7924 61.9911 46.8449 62.0923C46.8974 62.1936 46.9735 62.2807 47.0668 62.3464L50.9555 65.0908C51.1098 65.187 51.295 65.2206 51.4733 65.1846C51.6515 65.1487 51.8093 65.0459 51.9142 64.8974C52.0191 64.7489 52.0632 64.5658 52.0376 64.3858C52.0119 64.2058 51.9183 64.0424 51.776 63.9292ZM21.6409 51.5268C21.6949 51.6032 21.7634 51.6683 21.8425 51.7182C21.9216 51.7681 22.0098 51.802 22.102 51.8178C22.1942 51.8337 22.2886 51.8312 22.3798 51.8106C22.4711 51.79 22.5574 51.7516 22.6338 51.6976C22.7102 51.6436 22.7752 51.5751 22.8252 51.496C22.8751 51.4169 22.9089 51.3287 22.9248 51.2365C22.9407 51.1443 22.9382 51.0499 22.9176 50.9587C22.8969 50.8674 22.8585 50.7811 22.8046 50.7047L20.0633 46.816C19.9976 46.7228 19.9105 46.6468 19.8093 46.5944C19.7081 46.5419 19.5958 46.5145 19.4818 46.5145C19.3678 46.5145 19.2555 46.5419 19.1543 46.5944C19.0531 46.6468 18.9659 46.7228 18.9002 46.816L16.1554 50.7047C16.0963 50.7807 16.0532 50.8678 16.0288 50.9609C16.0043 51.054 15.999 51.151 16.0131 51.2462C16.0272 51.3414 16.0604 51.4327 16.1108 51.5147C16.1612 51.5967 16.2277 51.6677 16.3062 51.7232C16.3847 51.7788 16.4737 51.8179 16.5678 51.8382C16.6619 51.8584 16.7591 51.8594 16.8535 51.841C16.948 51.8227 17.0378 51.7854 17.1174 51.7314C17.197 51.6774 17.2649 51.6078 17.3169 51.5268L19.4813 48.4659L21.6409 51.5268ZM48.3476 52.6441L46.0817 51.3633C45.618 51.5909 45.1401 51.7883 44.651 51.9543L43.9549 54.4591C43.9192 54.5879 43.848 54.704 43.7493 54.7941C43.6507 54.8843 43.5287 54.9448 43.3972 54.9688C41.6428 55.2882 39.8452 55.2882 38.0908 54.9688C37.9593 54.9448 37.8372 54.8843 37.7385 54.7941C37.6398 54.704 37.5685 54.5879 37.5327 54.4591L36.8412 51.9543C36.3526 51.7874 35.8753 51.5893 35.4121 51.3613L33.1446 52.6441C33.0282 52.7101 32.8954 52.7418 32.7617 52.7358C32.628 52.7297 32.4987 52.686 32.3887 52.6098C30.9206 51.5957 29.6492 50.3232 28.6363 48.8543C28.5612 48.7443 28.5185 48.6155 28.5128 48.4824C28.5072 48.3494 28.539 48.2174 28.6046 48.1015L29.8838 45.8367C29.6568 45.374 29.4591 44.8975 29.2918 44.4101L26.7839 43.714C26.6549 43.6784 26.5386 43.6071 26.4484 43.5084C26.3581 43.4097 26.2975 43.2875 26.2736 43.1558C25.9541 41.4 25.9541 39.601 26.2736 37.8452C26.2977 37.7138 26.3583 37.5918 26.4484 37.4932C26.5385 37.3946 26.6546 37.3233 26.7834 37.2876L29.2918 36.5951C29.4583 36.1077 29.6557 35.6314 29.8828 35.1691L28.6046 32.9027C28.539 32.7865 28.5074 32.6543 28.5133 32.521C28.5192 32.3877 28.5624 32.2588 28.6379 32.1488C29.6503 30.6793 30.922 29.4065 32.3907 28.3928C32.5008 28.3167 32.6301 28.2731 32.7639 28.2671C32.8976 28.2611 33.0303 28.293 33.1467 28.359L35.41 29.6398C35.874 29.4116 36.352 29.2132 36.8412 29.0457L37.5374 26.5383C37.5731 26.4094 37.6444 26.2932 37.7431 26.203C37.8418 26.1128 37.9639 26.0521 38.0955 26.0281C39.85 25.7105 41.6474 25.7105 43.4019 26.0281C43.5334 26.0521 43.6553 26.1127 43.754 26.2028C43.8526 26.293 43.9238 26.409 43.9596 26.5378L44.6536 29.0457C45.1414 29.2123 45.6179 29.4102 46.0802 29.6382L48.3476 28.3585C48.464 28.2927 48.5966 28.261 48.7302 28.2671C48.8638 28.2732 48.993 28.3168 49.103 28.3928C50.5706 29.4073 51.8418 30.6798 52.8548 32.1483C52.9309 32.2583 52.9745 32.3875 52.9805 32.5211C52.9865 32.6548 52.9546 32.7874 52.8887 32.9037L51.6079 35.1665C51.8361 35.6294 52.034 36.1066 52.2004 36.5951L54.7089 37.2918C54.8376 37.3275 54.9537 37.3988 55.0438 37.4974C55.1339 37.596 55.1945 37.718 55.2186 37.8494C55.5381 39.6052 55.5381 41.4042 55.2186 43.16C55.1947 43.2916 55.1341 43.4138 55.0439 43.5126C54.9536 43.6113 54.8373 43.6826 54.7083 43.7181L52.2004 44.4101C52.0334 44.8975 51.8357 45.3738 51.6084 45.8361L52.8892 48.0994C52.9552 48.2158 52.9871 48.3485 52.9811 48.4822C52.9751 48.616 52.9315 48.7453 52.8554 48.8554C51.8417 50.3231 50.5706 51.5951 49.1036 52.6098C48.9936 52.6861 48.8643 52.7298 48.7305 52.7358C48.5968 52.7419 48.464 52.7101 48.3476 52.6441ZM46.4482 49.9368L48.6527 51.1832C49.7088 50.3996 50.6433 49.4641 51.4257 48.4071L50.1797 46.2058C50.1206 46.1015 50.0888 45.9839 50.0873 45.8641C50.0857 45.7442 50.1145 45.6259 50.1709 45.5201C50.4945 44.9137 50.7589 44.2775 50.9602 43.6202C50.9951 43.5058 51.0583 43.402 51.1441 43.3185C51.2298 43.235 51.3353 43.1746 51.4506 43.1428L53.8894 42.466C54.0817 41.165 54.0817 39.8428 53.8894 38.5418L51.4501 37.865C51.3349 37.8329 51.2297 37.7724 51.1441 37.689C51.0585 37.6055 50.9952 37.5019 50.9602 37.3876C50.7592 36.7296 50.4945 36.0928 50.1698 35.4862C50.1131 35.3803 50.0841 35.2618 50.0855 35.1417C50.087 35.0216 50.1189 34.9039 50.1782 34.7994L51.4241 32.5976C50.6421 31.5404 49.7076 30.605 48.6511 29.822L46.4467 31.0685C46.3422 31.1275 46.2244 31.1592 46.1043 31.1606C45.9843 31.162 45.8658 31.133 45.76 31.0763C45.1547 30.7521 44.519 30.4881 43.8622 30.288C43.7476 30.2531 43.6437 30.1898 43.5601 30.1041C43.4765 30.0184 43.4158 29.9129 43.3837 29.7976L42.7069 27.3583C41.4067 27.1672 40.0855 27.1672 38.7853 27.3583L38.1085 29.797C38.0765 29.9125 38.0159 30.0181 37.9323 30.1039C37.8486 30.1898 37.7447 30.2531 37.63 30.288C36.972 30.4886 36.3351 30.7526 35.7281 31.0763C35.6224 31.1328 35.504 31.1616 35.3841 31.1601C35.2642 31.1585 35.1467 31.1267 35.0424 31.0674L32.8411 29.8215C31.7837 30.6036 30.8488 31.5389 30.0671 32.5966L31.3114 34.7994C31.3703 34.9035 31.402 35.0208 31.4035 35.1404C31.4051 35.2599 31.3764 35.378 31.3203 35.4836C30.9974 36.0893 30.7342 36.7251 30.5346 37.3818C30.4999 37.4967 30.4366 37.601 30.3508 37.6849C30.265 37.7689 30.1593 37.8297 30.0437 37.8619L27.6044 38.5387C27.4121 39.8397 27.4121 41.1619 27.6044 42.4628L30.0431 43.1397C30.1585 43.1715 30.264 43.2319 30.3497 43.3154C30.4355 43.3988 30.4987 43.5026 30.5336 43.6171C30.736 44.2749 31.0001 44.912 31.3224 45.5201C31.3782 45.6256 31.4066 45.7435 31.4049 45.8628C31.4033 45.9822 31.3717 46.0992 31.313 46.2032L30.0692 48.4055C30.8513 49.4628 31.786 50.3981 32.8427 51.1811L35.044 49.9347C35.1483 49.8757 35.2659 49.8439 35.3857 49.8425C35.5056 49.841 35.6239 49.8699 35.7297 49.9263C36.3367 50.25 36.9737 50.5141 37.6316 50.7151C37.7462 50.75 37.8501 50.8132 37.9338 50.8989C38.0174 50.9847 38.0781 51.0901 38.1101 51.2056L38.7869 53.6417C40.0871 53.8328 41.4082 53.8328 42.7084 53.6417L43.3853 51.2056C43.4173 51.0901 43.4779 50.9847 43.5616 50.8989C43.6452 50.8132 43.7491 50.75 43.8638 50.7151C44.5205 50.5148 45.1561 50.2508 45.7615 49.9269C45.8672 49.8705 45.9853 49.8416 46.1051 49.843C46.2249 49.8443 46.3424 49.8759 46.4467 49.9347L46.4482 49.9368ZM49.2873 40.5C49.2879 42.1894 48.7874 43.841 47.8492 45.246C46.9109 46.6509 45.5772 47.7461 44.0165 48.3929C42.4558 49.0398 40.7384 49.2093 39.0814 48.88C37.4244 48.5508 35.9022 47.7375 34.7075 46.5431C33.5127 45.3487 32.699 43.8268 32.3692 42.1699C32.0394 40.513 32.2084 38.7955 32.8548 37.2346C33.5012 35.6738 34.5959 34.3396 36.0006 33.401C37.4052 32.4624 39.0567 31.9614 40.7461 31.9614C43.01 31.9643 45.1805 32.8647 46.7816 34.4653C48.3827 36.0659 49.2838 38.2361 49.2873 40.5ZM47.8634 40.5C47.8629 39.0925 47.445 37.7167 46.6626 36.5466C45.8803 35.3765 44.7685 34.4647 43.468 33.9264C42.1674 33.3881 40.7364 33.2475 39.356 33.5224C37.9756 33.7973 36.7076 34.4754 35.7125 35.4709C34.7174 36.4663 34.0398 37.7345 33.7654 39.1151C33.491 40.4956 33.6321 41.9265 34.1709 43.2269C34.7096 44.5272 35.6219 45.6386 36.7922 46.4206C37.9626 47.2025 39.3386 47.6199 40.7461 47.6199C42.6335 47.6178 44.443 46.8669 45.7774 45.5321C47.1118 44.1972 47.862 42.3874 47.8634 40.5ZM44.9717 40.5C44.972 41.3362 44.7243 42.1537 44.2599 42.8491C43.7956 43.5445 43.1354 44.0865 42.3629 44.4066C41.5905 44.7268 40.7404 44.8106 39.9203 44.6476C39.1001 44.4845 38.3468 44.0819 37.7555 43.4906C37.1642 42.8993 36.7616 42.146 36.5985 41.3259C36.4355 40.5057 36.5193 39.6557 36.8395 38.8832C37.1596 38.1107 37.7017 37.4505 38.397 36.9862C39.0924 36.5218 39.9099 36.2741 40.7461 36.2744C41.8663 36.2761 42.9401 36.7218 43.7322 37.5139C44.5243 38.306 44.97 39.3798 44.9717 40.5ZM43.5477 40.5C43.5474 39.9456 43.3827 39.4037 43.0744 38.9429C42.7662 38.4821 42.3282 38.1231 41.8158 37.9112C41.3035 37.6993 40.7398 37.6441 40.1961 37.7526C39.6524 37.861 39.1531 38.1283 38.7613 38.5205C38.3695 38.9128 38.1028 39.4124 37.9949 39.9562C37.8871 40.5 37.9429 41.0636 38.1554 41.5757C38.3678 42.0878 38.7273 42.5254 39.1885 42.8332C39.6496 43.1409 40.1917 43.305 40.7461 43.3047C41.4894 43.3039 42.202 43.008 42.7273 42.4821C43.2526 41.9562 43.5477 41.2433 43.5477 40.5Z" fill="#2B2B2B"/>
</svg>
