<svg width="81" height="81" fill="none" xmlns="http://www.w3.org/2000/svg"><path d="M18.77 33.775v-9.783a5.474 5.474 0 0 1 5.466-5.467h5.889a.712.712 0 0 1 0 1.424h-5.887a4.049 4.049 0 0 0-4.044 4.044v9.783a.71.71 0 0 1-1.223.516.713.713 0 0 1-.201-.516v-.001zm15.245 27.278h-9.777a4.047 4.047 0 0 1-4.044-4.042v-5.895a.71.71 0 0 0-.99-.675.713.713 0 0 0-.434.675v5.895a5.473 5.473 0 0 0 5.466 5.467h9.78a.712.712 0 1 0 0-1.424v-.001zm27.996-14.537a.712.712 0 0 0-.712.712v9.783a4.047 4.047 0 0 1-4.045 4.042h-5.887a.712.712 0 0 0 0 1.424h5.887a5.474 5.474 0 0 0 5.467-5.467v-9.782a.711.711 0 0 0-.71-.712zM47.477 19.947h9.777a4.049 4.049 0 0 1 4.045 4.045v5.895a.712.712 0 0 0 1.424 0v-5.895a5.474 5.474 0 0 0-5.467-5.467h-9.779a.71.71 0 0 0-.516 1.222.713.713 0 0 0 .516.202v-.002zm-11.246 2.834V15.18a.713.713 0 0 1 .714-.712h7.602a.712.712 0 0 1 .712.712v7.601a.712.712 0 0 1-.712.712h-7.602a.71.71 0 0 1-.713-.712h-.001zm1.425-.712h6.177v-6.177h-6.177v6.177zm7.602 36.15v7.602a.712.712 0 0 1-.711.711h-7.602a.712.712 0 0 1-.711-.712V58.22a.712.712 0 0 1 .711-.712h7.602a.713.713 0 0 1 .71.712zm-1.425.712h-6.177v6.178h6.177V58.93zm22.945-22.232v7.602a.712.712 0 0 1-.712.712h-7.601a.711.711 0 0 1-.712-.712v-7.602a.712.712 0 0 1 .712-.712h7.602a.713.713 0 0 1 .712.712zm-1.423.712h-6.178v6.18h6.178v-6.18zm-42.33 7.602h-7.6a.71.71 0 0 1-.711-.712v-7.602a.712.712 0 0 1 .712-.712h7.601a.712.712 0 0 1 .712.712v7.602a.711.711 0 0 1-.712.713l-.001-.001zm-.71-7.6h-6.177v6.177h6.177v-6.177zm7.402-20.337 3.063 2.16-3.064 2.162a.711.711 0 0 0 .821 1.163l3.889-2.744a.711.711 0 0 0 0-1.163l-3.89-2.742a.712.712 0 0 0-.82 1.164zm30.131 12.4a.712.712 0 1 0-1.163.82l2.744 3.888a.711.711 0 0 0 1.163 0l2.742-3.889a.712.712 0 1 0-1.164-.82l-2.16 3.063-2.162-3.062zm-8.072 34.453-3.064-2.164 3.063-2.157a.711.711 0 1 0-.82-1.164l-3.888 2.739a.71.71 0 0 0 0 1.163l3.889 2.745a.712.712 0 0 0 .82-1.162zM21.641 51.527a.713.713 0 1 0 1.164-.822l-2.742-3.889a.71.71 0 0 0-1.163 0l-2.745 3.889a.71.71 0 0 0 .962 1.026.712.712 0 0 0 .2-.204l2.164-3.061 2.16 3.06zm26.707 1.117-2.266-1.28a12 12 0 0 1-1.431.59l-.696 2.505a.71.71 0 0 1-.558.51c-1.754.32-3.552.32-5.306 0a.712.712 0 0 1-.558-.51l-.692-2.505a12.072 12.072 0 0 1-1.429-.593l-2.267 1.283a.712.712 0 0 1-.756-.034 14.72 14.72 0 0 1-3.753-3.756.714.714 0 0 1-.031-.752l1.279-2.265a12.32 12.32 0 0 1-.592-1.427l-2.508-.696a.71.71 0 0 1-.51-.558 14.832 14.832 0 0 1 0-5.31.712.712 0 0 1 .51-.558l2.508-.693c.166-.487.364-.964.59-1.426l-1.277-2.266a.712.712 0 0 1 .033-.754 14.691 14.691 0 0 1 3.753-3.756.712.712 0 0 1 .756-.034l2.263 1.28c.464-.227.942-.426 1.431-.593l.696-2.508a.711.711 0 0 1 .559-.51 14.895 14.895 0 0 1 5.306 0 .712.712 0 0 1 .558.51l.694 2.508c.487.166.964.364 1.426.592l2.268-1.28a.712.712 0 0 1 .755.035 14.74 14.74 0 0 1 3.752 3.755.711.711 0 0 1 .034.756l-1.281 2.262c.228.463.426.94.592 1.43l2.509.696a.711.711 0 0 1 .51.557c.32 1.756.32 3.555 0 5.311a.712.712 0 0 1-.51.558l-2.509.692c-.167.488-.364.964-.592 1.426L52.89 48.1a.712.712 0 0 1-.034.756 14.773 14.773 0 0 1-3.751 3.755.71.71 0 0 1-.756.034zm-1.9-2.707 2.205 1.246a13.339 13.339 0 0 0 2.773-2.776l-1.246-2.201a.711.711 0 0 1-.01-.686c.325-.606.589-1.242.79-1.9a.71.71 0 0 1 .49-.477l2.44-.677a13.419 13.419 0 0 0 0-3.924l-2.44-.677a.712.712 0 0 1-.49-.477 10.576 10.576 0 0 0-.79-1.902.712.712 0 0 1 .008-.687l1.246-2.201a13.298 13.298 0 0 0-2.773-2.776l-2.204 1.247a.713.713 0 0 1-.687.007 10.502 10.502 0 0 0-1.898-.788.712.712 0 0 1-.478-.49l-.677-2.44a13.484 13.484 0 0 0-3.922 0l-.676 2.439a.712.712 0 0 1-.479.491c-.658.2-1.295.465-1.902.788a.711.711 0 0 1-.686-.009l-2.2-1.245a13.238 13.238 0 0 0-2.775 2.775l1.244 2.202a.71.71 0 0 1 .01.685 10.568 10.568 0 0 0-.786 1.898.712.712 0 0 1-.491.48l-2.44.677a13.418 13.418 0 0 0 0 3.924l2.44.677a.71.71 0 0 1 .49.477c.202.658.466 1.295.788 1.903a.711.711 0 0 1-.009.683l-1.244 2.203a13.295 13.295 0 0 0 2.774 2.775l2.201-1.246a.711.711 0 0 1 .686-.009c.607.324 1.244.588 1.902.79a.713.713 0 0 1 .478.49l.677 2.436c1.3.19 2.621.19 3.921 0l.677-2.436a.71.71 0 0 1 .479-.49c.657-.201 1.292-.465 1.898-.79a.712.712 0 0 1 .685.009l.001.002zm2.84-9.437a8.54 8.54 0 1 1-8.542-8.539 8.552 8.552 0 0 1 8.541 8.539zm-1.425 0a7.117 7.117 0 1 0-7.117 7.12 7.126 7.126 0 0 0 7.117-7.12zm-2.891 0a4.227 4.227 0 1 1-8.454.003 4.227 4.227 0 0 1 8.454-.003zm-1.424 0a2.803 2.803 0 1 0-5.606.003 2.803 2.803 0 0 0 5.606-.003z" fill="#2B2B2B"/></svg>