
<svg width="128" height="128" viewBox="0 0 128 128" fill="none" xmlns="http://www.w3.org/2000/svg">
<path d="M56.0467 39.0156C54.0996 39.0156 52.2961 39.9583 51.0526 41.4887C50.0346 40.8056 48.8459 40.3957 47.5683 40.3957C43.8927 40.3957 40.9073 43.6272 40.9073 47.6033C40.9073 48.0541 40.9551 48.4982 41.0302 48.9355C38.2839 49.9261 36.289 52.7066 36.289 56.0065C36.289 57.8511 36.9312 59.5248 37.956 60.8297C35.9611 62.2508 34.6426 64.676 34.6426 67.3951C34.6426 71.0091 36.9108 74.0289 39.9783 74.9511C39.8007 75.6206 39.6708 76.3106 39.6708 77.0416C39.6708 81.1681 42.7724 84.5292 46.5846 84.5292C47.7802 84.5292 48.921 84.1945 49.9255 83.5933C50.9366 86.1758 53.3004 87.9861 56.0468 87.9861C59.7224 87.9861 62.7078 84.7546 62.7078 80.7785V46.2227C62.7078 42.2467 59.7223 39.0156 56.0467 39.0156ZM59.2099 80.7788C59.2099 82.8283 57.7888 84.4884 56.0467 84.4884C54.3046 84.4884 52.8836 82.8283 52.8836 80.7788C52.8836 78.7292 54.3046 77.069 56.0467 77.069C57.01 77.069 57.7957 76.2902 57.7957 75.3201C57.7957 74.35 57.01 73.5711 56.0467 73.5711C52.9315 73.5711 50.3353 75.9076 49.6043 79.0298L49.2353 79.5422C48.5795 80.485 47.6094 81.0315 46.5778 81.0315C44.6923 81.0315 43.1619 79.2416 43.1619 77.0418C43.1619 74.842 44.6923 73.0521 46.5778 73.0521C47.5411 73.0521 48.3268 72.2733 48.3268 71.3032C48.3268 70.333 47.5411 69.5542 46.5778 69.5542C44.6718 69.5542 42.9433 70.3945 41.693 71.7472C39.7186 71.6242 38.1405 69.7319 38.1405 67.4021C38.1405 65.3116 39.4249 63.5354 41.1671 63.1322C41.8161 63.3509 42.4856 63.5012 43.1962 63.5012C45.2458 63.5012 47.1791 62.5242 48.4908 60.83C49.0852 60.0648 48.9417 58.9649 48.1765 58.3774C47.4114 57.7831 46.3183 57.9265 45.724 58.6917C45.075 59.532 44.1527 60.0103 43.1894 60.0103C41.3107 60.0103 39.7735 58.2204 39.7735 56.0205C39.7735 53.8207 41.3039 52.0308 43.1894 52.0308C44.1527 52.0308 44.9384 51.2452 44.9384 50.2819C44.9384 50.0018 44.8564 49.7422 44.7402 49.5099C44.7197 49.3869 44.7266 49.2571 44.6788 49.1341C44.4943 48.6559 44.4055 48.1435 44.4055 47.6175C44.4055 45.5747 45.8265 43.9078 47.5686 43.9078C49.3108 43.9078 50.7318 45.5747 50.7318 47.6175C50.7318 48.4715 50.4927 49.2708 50.0349 49.9334C49.4884 50.7328 49.6933 51.819 50.4858 52.3655C50.7864 52.5705 51.1348 52.673 51.4765 52.673C52.0298 52.673 52.5832 52.4065 52.918 51.9146C53.7719 50.6644 54.2297 49.1819 54.2297 47.6175C54.2297 46.3946 53.9223 45.2604 53.4235 44.2493C53.9974 43.1972 54.9744 42.514 56.047 42.514C57.7891 42.514 59.2101 44.181 59.2101 46.2237L59.2099 80.7788Z" fill="black"/>
<path d="M89.0428 60.8361C90.0676 59.5313 90.7098 57.8575 90.7098 56.0129C90.7098 52.7063 88.7149 49.9325 85.9685 48.9419C86.0437 48.5046 86.0915 48.0605 86.0915 47.6096C86.0915 43.6336 83.0992 40.4021 79.4305 40.4021C78.1529 40.4021 76.9641 40.812 75.9462 41.4951C74.7028 39.958 72.8992 39.0151 70.9521 39.0151C67.2765 39.0151 64.291 42.2467 64.291 46.2227V80.7785C64.291 84.7546 67.2765 87.9861 70.9521 87.9861C73.7053 87.9861 76.076 86.1688 77.087 83.5864C78.0981 84.1876 79.2391 84.5292 80.4209 84.5292C84.2331 84.5292 87.3347 81.1679 87.3347 77.0416C87.3347 76.3106 87.2049 75.6206 87.0272 74.9579C90.0947 74.0356 92.3629 71.016 92.3629 67.4019C92.3561 64.676 91.0376 62.2503 89.0428 60.8361ZM85.3058 71.7466C84.0556 70.3939 82.3272 69.5536 80.421 69.5536C79.4509 69.5536 78.6721 70.3324 78.6721 71.3025C78.6721 72.2727 79.4509 73.0515 80.421 73.0515C82.2997 73.0515 83.8369 74.8414 83.8369 77.0412C83.8369 79.241 82.3065 81.0309 80.421 81.0309C79.3894 81.0309 78.4193 80.4844 77.743 79.5142L77.3946 79.036C76.6704 75.907 74.0676 73.5774 70.9522 73.5774C69.982 73.5774 69.2032 74.3562 69.2032 75.3263C69.2032 76.2964 69.982 77.0753 70.9522 77.0753C72.6943 77.0753 74.1153 78.7354 74.1153 80.785C74.1153 82.8277 72.6943 84.4878 70.9522 84.4878C69.21 84.4878 67.789 82.8277 67.789 80.7781V46.2224C67.789 44.1796 69.21 42.5127 70.9522 42.5127C72.0247 42.5127 73.0017 43.1958 73.5824 44.2343C73.0837 45.2454 72.7762 46.3796 72.7762 47.6024C72.7762 49.1669 73.234 50.6495 74.088 51.8996C74.4295 52.3915 74.9761 52.6579 75.5295 52.6579C75.8711 52.6579 76.2195 52.5555 76.5201 52.3505C77.3126 51.804 77.5175 50.7109 76.971 49.9184C76.5133 49.2557 76.2741 48.4564 76.2741 47.6024C76.2741 45.5597 77.6952 43.8927 79.4373 43.8927C81.1794 43.8927 82.6004 45.5597 82.6004 47.6024C82.6004 48.1285 82.5048 48.6409 82.3203 49.1191C82.2725 49.2421 82.2725 49.3719 82.2588 49.4949C82.1427 49.734 82.0607 49.9868 82.0607 50.2669C82.0607 51.2302 82.8395 52.0158 83.8097 52.0158C85.6884 52.0158 87.2255 53.8057 87.2255 56.0055C87.2255 58.2054 85.6952 59.9952 83.8097 59.9952C82.8464 59.9952 81.9309 59.517 81.2751 58.6767C80.6807 57.9115 79.5876 57.7749 78.8225 58.3692C78.0574 58.9636 77.9207 60.0567 78.5151 60.8218C79.8337 62.5229 81.7603 63.493 83.8097 63.493C84.5202 63.493 85.1966 63.3427 85.8388 63.1241C87.5741 63.5271 88.8654 65.3034 88.8654 67.3939C88.8586 69.7304 87.2803 71.6237 85.3058 71.7466Z" fill="black"/>
<path d="M119.725 79.6982C119.042 79.6982 118.393 79.8348 117.792 80.0739C117.689 79.8553 117.553 79.6572 117.362 79.4864L111.999 74.7656H99.1V64.9755H113.167C113.891 67.0183 115.824 68.4939 118.113 68.4939C121.017 68.4939 123.38 66.13 123.38 63.2266C123.38 60.3231 121.016 57.9592 118.113 57.9592C115.824 57.9592 113.891 59.4349 113.167 61.4776H99.0932V52.439H111.992L116.678 48.3194C117.539 48.9342 118.584 49.3032 119.725 49.3032C122.629 49.3032 124.993 46.9393 124.993 44.0358C124.993 41.1324 122.629 38.7685 119.725 38.7685C116.822 38.7685 114.458 41.1324 114.458 44.0358C114.458 44.5209 114.547 44.9786 114.67 45.4295L110.68 48.9411H99.1002V38.099H109.02L112.477 33.5832C112.942 33.7198 113.427 33.8155 113.939 33.8155C116.843 33.8155 119.206 31.4516 119.206 28.5482C119.206 25.6447 116.842 23.2809 113.939 23.2809C111.036 23.2809 108.672 25.6447 108.672 28.5482C108.672 29.6686 109.027 30.7003 109.621 31.5543L107.292 34.6013H99.1004V32.299C99.1004 29.4092 96.7433 27.0521 93.8535 27.0521H92.6033V19.7147L96.2037 16.9615C96.2515 16.9274 96.272 16.8727 96.3198 16.8317C97.1328 17.3441 98.0893 17.6584 99.121 17.6584C102.025 17.6584 104.388 15.2945 104.388 12.3911C104.388 9.48765 102.024 7.12377 99.121 7.12377C96.2174 7.12377 93.8537 9.48765 93.8537 12.3911C93.8537 13.0059 93.9766 13.5935 94.1747 14.14C94.1406 14.1605 94.1064 14.1674 94.0791 14.1879L89.1054 17.9932V27.0591H78.2633V16.3263L82.1096 11.9471C82.1575 11.8856 82.1779 11.8173 82.2189 11.7558C83.0183 12.2477 83.9474 12.5415 84.9585 12.5415C87.8621 12.5415 90.2258 10.1776 90.2258 7.27415C90.2258 4.37054 87.8619 2.00684 84.9585 2.00684C82.0549 2.00684 79.6912 4.37072 79.6912 7.27415C79.6912 7.95735 79.8278 8.60637 80.0669 9.20762C79.8483 9.3101 79.6502 9.44674 79.4794 9.63802L74.7586 15.0078V27.0591H64.9685L64.9753 13.8327C67.0181 13.1085 68.4937 11.1752 68.4937 8.88649C68.4937 5.98289 66.1298 3.61918 63.2264 3.61918C60.323 3.61918 57.9591 5.98306 57.9591 8.88649C57.9591 11.1752 59.4347 13.1018 61.4774 13.8327V27.0523H52.4389V15.001L48.3192 10.3143C48.9341 9.45352 49.303 8.40833 49.303 7.26731C49.303 4.36371 46.9391 2 44.0357 2C41.1322 2 38.7684 4.36388 38.7684 7.26731C38.7684 10.1707 41.1322 12.5346 44.0357 12.5346C44.5207 12.5346 44.9785 12.4458 45.4294 12.3228L48.9409 16.3126V27.0453H38.0988V17.9795L33.583 14.5225C33.7197 14.0579 33.8153 13.5729 33.8153 13.0605C33.8153 10.1569 31.4514 7.79317 28.548 7.79317C25.6446 7.79317 23.2807 10.1571 23.2807 13.0605C23.2807 15.9639 25.6446 18.3278 28.548 18.3278C29.6684 18.3278 30.7001 17.9726 31.5541 17.3713L34.6011 19.7009V27.0383H32.5994C29.7097 27.0383 27.3526 29.3954 27.3526 32.2852V33.918H19.7146L17.3782 30.8709C17.9725 30.017 18.3278 28.9854 18.3278 27.8648C18.3278 24.9612 15.9639 22.5975 13.0605 22.5975C10.157 22.5975 7.79316 24.9614 7.79316 27.8648C7.79316 30.7683 10.157 33.1322 13.0605 33.1322C13.5729 33.1322 14.0579 33.0365 14.5225 32.8999L17.9795 37.4157H27.346V48.2578H16.3125L12.3228 44.7462C12.4458 44.3021 12.5346 43.8376 12.5346 43.3525C12.5346 40.4489 10.1707 38.0852 7.2673 38.0852C4.36369 38.0989 2.0068 40.4627 2.0068 43.3662C2.0068 46.2698 4.37069 48.6335 7.27412 48.6335C8.40821 48.6335 9.45348 48.2646 10.3211 47.6497L15.0078 51.7693H27.3598V60.8079H13.8327C13.1085 58.7651 11.1752 57.2896 8.88648 57.2896C5.98287 57.2896 3.61916 59.6534 3.61916 62.5569C3.61916 65.4605 5.98304 67.8242 8.88648 67.8242C11.1752 67.8242 13.1018 66.3485 13.8327 64.3058H27.3529V74.1027H15.001L9.63118 78.8235C9.43988 78.9943 9.30325 79.1924 9.20078 79.411C8.59958 79.1719 7.95056 79.0353 7.26731 79.0353C4.36371 79.0353 2 81.3992 2 84.3026C2 87.2062 4.36388 89.5699 7.26731 89.5699C10.1707 89.5699 12.5346 87.2061 12.5346 84.3026C12.5346 83.2983 12.234 82.3692 11.749 81.5699C11.8105 81.5289 11.8856 81.5084 11.9403 81.4537L16.3195 77.6075H27.3529V88.4495H17.9864L14.181 93.4232C14.1605 93.4505 14.1537 93.4915 14.1332 93.5189C13.5798 93.3207 12.9991 93.1978 12.3842 93.1978C9.48064 93.1978 7.11693 95.5617 7.11693 98.4651C7.11693 101.369 9.48081 103.732 12.3842 103.732C15.2879 103.732 17.6516 101.369 17.6516 98.4651C17.6516 97.4335 17.3441 96.4702 16.8249 95.6572C16.8659 95.6162 16.9206 95.5957 16.9615 95.5478L19.7147 91.9474H27.3528V93.5666C27.3528 96.4564 29.7098 98.8134 32.5996 98.8134H33.9318V107.305L30.8848 109.635C30.0308 109.041 28.9993 108.685 27.8787 108.685C24.9751 108.685 22.6114 111.049 22.6114 113.953C22.6114 116.856 24.9753 119.22 27.8787 119.22C30.7823 119.22 33.146 116.856 33.146 113.953C33.146 113.44 33.0504 112.955 32.9137 112.491L37.4295 109.034V98.8133H48.2716V110.694L44.7601 114.684C44.316 114.561 43.8514 114.472 43.3664 114.472C40.4628 114.472 38.0991 116.836 38.0991 119.739C38.0991 122.643 40.4629 125.006 43.3664 125.006C46.27 125.006 48.6337 122.643 48.6337 119.739C48.6337 118.605 48.2648 117.553 47.6499 116.692L51.7696 112.005V98.8063H60.8081V113.167C58.7654 113.891 57.2898 115.824 57.2898 118.113C57.2898 121.017 59.6536 123.38 62.5571 123.38C65.4607 123.38 67.8244 121.016 67.8244 118.113C67.8244 115.824 66.3487 113.891 64.306 113.167V98.7925H74.103V111.992L78.8237 117.355C78.9945 117.546 79.1926 117.689 79.4113 117.785C79.1721 118.386 79.0355 119.035 79.0355 119.718C79.0355 122.622 81.3994 124.986 84.3028 124.986C87.1994 124.993 89.5565 122.629 89.5565 119.725C89.5565 116.822 87.1926 114.458 84.2892 114.458C83.2849 114.458 82.3557 114.759 81.5496 115.244C81.5087 115.182 81.4882 115.107 81.4403 115.052L77.594 110.673V98.7925H88.4361V109.013L93.4098 112.818C93.4371 112.839 93.4781 112.853 93.5054 112.866C93.3141 113.413 93.1844 114 93.1844 114.615C93.1844 117.519 95.5482 119.882 98.4517 119.882C101.355 119.882 103.719 117.519 103.719 114.615C103.719 111.712 101.355 109.348 98.4517 109.348C97.4201 109.348 96.4636 109.655 95.6506 110.175C95.6096 110.134 95.5822 110.079 95.5344 110.045L91.934 107.292V98.7995H93.8539C96.7436 98.7995 99.1007 96.4424 99.1007 93.5526V92.603H107.292L110.045 96.2034C110.079 96.2512 110.141 96.2717 110.182 96.3127C109.663 97.1257 109.355 98.0889 109.355 99.1206C109.355 102.024 111.719 104.388 114.623 104.388C117.526 104.388 119.89 102.024 119.89 99.1206C119.89 96.217 117.526 93.8533 114.623 93.8533C114.008 93.8533 113.42 93.9763 112.874 94.1744C112.853 94.1403 112.846 94.1061 112.826 94.0788L109.02 89.1051H99.1006V78.263H110.681L115.06 82.1093C115.114 82.1571 115.19 82.1844 115.251 82.2254C114.759 83.0248 114.465 83.9539 114.465 84.9582C114.465 87.8618 116.829 90.2255 119.733 90.2255C122.636 90.2255 125 87.8616 125 84.9582C124.993 82.0546 122.629 79.6982 119.725 79.6982ZM118.113 61.4566C119.09 61.4566 119.882 62.2491 119.882 63.226C119.882 64.203 119.09 64.9954 118.113 64.9954C117.136 64.9954 116.344 64.203 116.344 63.226C116.344 62.2491 117.143 61.4566 118.113 61.4566ZM119.725 42.2654C120.702 42.2654 121.495 43.0579 121.495 44.0348C121.495 45.0117 120.702 45.8042 119.725 45.8042C118.748 45.8042 117.956 45.0117 117.956 44.0348C117.956 43.0579 118.755 42.2654 119.725 42.2654ZM113.932 26.7844C114.909 26.7844 115.701 27.5769 115.701 28.5538C115.701 29.5307 114.909 30.3232 113.932 30.3232C112.955 30.3232 112.163 29.5307 112.163 28.5538C112.163 27.5768 112.955 26.7844 113.932 26.7844ZM99.1137 10.6134C100.091 10.6134 100.883 11.4059 100.883 12.3828C100.883 13.3598 100.091 14.1522 99.1137 14.1522C98.1367 14.1522 97.3442 13.3597 97.3442 12.3828C97.3511 11.4059 98.1436 10.6134 99.1137 10.6134ZM84.958 5.50314C85.9349 5.50314 86.7274 6.29563 86.7274 7.27255C86.7274 8.2495 85.9349 9.04197 84.958 9.04197C83.981 9.04197 83.1886 8.24948 83.1886 7.27255C83.1954 6.29561 83.9879 5.50314 84.958 5.50314ZM63.2255 7.11546C64.2025 7.11546 64.995 7.90795 64.995 8.88488C64.995 9.86182 64.2025 10.6543 63.2255 10.6543C62.2486 10.6543 61.4561 9.8618 61.4561 8.88488C61.4561 7.90793 62.2486 7.11546 63.2255 7.11546ZM42.2661 7.27259C42.2661 6.29565 43.0586 5.50318 44.0355 5.50318C45.0125 5.50318 45.8049 6.29567 45.8049 7.27259C45.8049 8.24954 45.0125 9.04201 44.0355 9.04201C43.0586 9.04201 42.2661 8.24268 42.2661 7.27259ZM28.5477 14.8354C27.5707 14.8354 26.7783 14.0429 26.7783 13.066C26.7783 12.089 27.5708 11.2966 28.5477 11.2966C29.5246 11.2966 30.3171 12.0891 30.3171 13.066C30.3171 14.0429 29.5246 14.8354 28.5477 14.8354ZM11.2973 27.8842C11.2973 26.9072 12.0898 26.1147 13.0667 26.1147C14.0436 26.1147 14.8361 26.9072 14.8361 27.8842C14.8361 28.8611 14.0436 29.6536 13.0667 29.6536C12.0897 29.6467 11.2973 28.8542 11.2973 27.8842ZM7.27329 45.1346C6.29634 45.1346 5.50387 44.3421 5.50387 43.3652C5.50387 42.3882 6.29636 41.5957 7.27329 41.5957C8.25023 41.5957 9.0427 42.3883 9.0427 43.3652C9.0427 44.3421 8.24338 45.1346 7.27329 45.1346ZM8.88561 64.3258C7.90866 64.3258 7.1162 63.5333 7.1162 62.5564C7.1162 61.5795 7.90868 60.787 8.88561 60.787C9.86256 60.787 10.655 61.5795 10.655 62.5564C10.655 63.5333 9.8557 64.3258 8.88561 64.3258ZM7.27329 86.0583C6.29634 86.0583 5.50387 85.2658 5.50387 84.2888C5.50387 83.3119 6.29636 82.5194 7.27329 82.5194C8.25023 82.5194 9.0427 83.3119 9.0427 84.2888C9.0427 85.2658 8.24338 86.0583 7.27329 86.0583ZM12.3835 100.214C11.4066 100.214 10.6141 99.4214 10.6141 98.4445C10.6141 97.4676 11.4066 96.6751 12.3835 96.6751C13.3605 96.6751 14.153 97.4676 14.153 98.4445C14.153 99.4215 13.3536 100.214 12.3835 100.214ZM27.885 115.702C26.9081 115.702 26.1156 114.909 26.1156 113.932C26.1156 112.955 26.9081 112.163 27.885 112.163C28.862 112.163 29.6544 112.955 29.6544 113.932C29.6476 114.909 28.8551 115.702 27.885 115.702ZM43.366 121.495C42.3891 121.495 41.5966 120.703 41.5966 119.726C41.5966 118.749 42.3891 117.956 43.366 117.956C44.343 117.956 45.1354 118.749 45.1354 119.726C45.1354 120.703 44.343 121.495 43.366 121.495ZM62.5573 119.883C61.5803 119.883 60.7878 119.09 60.7878 118.113C60.7878 117.136 61.5803 116.344 62.5573 116.344C63.5342 116.344 64.3267 117.136 64.3267 118.113C64.3267 119.09 63.5342 119.883 62.5573 119.883ZM84.2967 117.956C85.2737 117.956 86.0661 118.749 86.0661 119.726C86.0661 120.703 85.2737 121.495 84.2967 121.495C83.3198 121.495 82.5273 120.703 82.5273 119.726C82.5273 118.755 83.3198 117.956 84.2967 117.956ZM98.4524 112.846C99.4293 112.846 100.222 113.638 100.222 114.615C100.222 115.592 99.4293 116.385 98.4524 116.385C97.4755 116.385 96.683 115.592 96.683 114.615C96.683 113.645 97.4755 112.846 98.4524 112.846ZM114.617 97.3513C115.593 97.3513 116.386 98.1438 116.386 99.1207C116.386 100.098 115.593 100.89 114.617 100.89C113.64 100.89 112.847 100.098 112.847 99.1207C112.847 98.1437 113.646 97.3513 114.617 97.3513ZM95.6037 93.5527C95.6037 94.516 94.818 95.3017 93.8547 95.3017H32.6012C31.638 95.3017 30.8523 94.516 30.8523 93.5527V32.2992C30.8523 31.336 31.638 30.5503 32.6012 30.5503H93.8547C94.818 30.5503 95.6037 31.336 95.6037 32.2992V93.5527ZM119.727 86.7278C118.75 86.7278 117.958 85.9353 117.958 84.9584C117.958 83.9814 118.75 83.189 119.727 83.189C120.704 83.189 121.496 83.9815 121.496 84.9584C121.496 85.9353 120.704 86.7278 119.727 86.7278Z" fill="black"/>
</svg>