<svg width="36" height="40" fill="none" xmlns="http://www.w3.org/2000/svg"><path d="M29.153 11.881c.008.09.012.184.012.277V27.77a3.021 3.021 0 0 1-3.024 3.03h-.12v6.172a2.439 2.439 0 0 1-4.875 0V30.8h-6.124v6.173a2.439 2.439 0 0 1-4.876 0V30.8h-.118a3.02 3.02 0 0 1-3.02-2.875V12.16c0-.093.007-.185.015-.276h22.13v-.003zM3.086 13.274a2.42 2.42 0 0 1 2.438 2.405v10.3a2.42 2.42 0 0 1-2.438 2.404 2.421 2.421 0 0 1-2.438-2.405V15.675a2.42 2.42 0 0 1 2.438-2.404v.003zm29.996 0a2.42 2.42 0 0 1 2.438 2.405v10.3a2.438 2.438 0 0 1-4.876 0V15.675a2.42 2.42 0 0 1 2.438-2.402zM28.36.932a.252.252 0 0 1 .094.346l-2.065 3.523a8.662 8.662 0 0 1 2.69 6.057H7.09a8.663 8.663 0 0 1 2.69-6.056L7.715 1.278A.25.25 0 0 1 7.81.932a.259.259 0 0 1 .35.093l2.005 3.419a11.74 11.74 0 0 1 6.694-2.83h2.45a11.74 11.74 0 0 1 6.697 2.83l2.003-3.419a.259.259 0 0 1 .35-.093zm-14.815 4.41a1.238 1.238 0 0 0-1.258 1.216 1.262 1.262 0 0 0 2.523 0 1.24 1.24 0 0 0-1.264-1.213l-.001-.003zm9.415 0a1.238 1.238 0 0 0-1.258 1.216 1.262 1.262 0 0 0 2.523 0 1.238 1.238 0 0 0-1.265-1.213v-.003z" fill="#FAFAFA"/></svg>