<svg width="81" height="81" fill="none" xmlns="http://www.w3.org/2000/svg"><path fill-rule="evenodd" clip-rule="evenodd" d="M20.256 57.385v1.507c0 7.861 14.723 7.861 14.723 0v-1.507H20.256zm30.939-27.083a.971.971 0 1 1-1.872.518l-.454-1.63a.972.972 0 0 1 1.873-.518l.453 1.63zm5.85 4.88a.971.971 0 1 1-.518-1.873l1.615-.45a.972.972 0 0 1 .518 1.872l-1.615.45zm-1.883-3.575a.97.97 0 0 1-1.69-.952l.951-1.685a.97.97 0 0 1 1.69.952l-.95 1.685zM71.44 48.829l-2.219-1.282-7.604-7.988c-.916-.963-1.935-1.625-3.321-1.627l-4.2-.002a4.334 4.334 0 0 0-1.162-2.095c-2.42-2.421-6.545-1.202-7.301 2.095h-4.24a.975.975 0 0 0-.974.975l.014 5.376c0 .536.434.974.97.974.661 0 1.26.268 1.692.7 1.503 1.504.434 4.085-1.691 4.085a.974.974 0 0 0-.975.974v5.377c0 .538.437.974.975.974h8.195a.974.974 0 0 0 .938-.713 26.05 26.05 0 0 1 1.757-3.705c.427-.746.869-1.446 1.313-2.117l3.998 4.906c.62.762 1.455 1.219 2.454 1.22l4.24.005 1.835 1.06a.97.97 0 0 0 .966-1.682l-2.032-1.173a.964.964 0 0 0-.51-.146l-4.499-.006c-.391 0-.698-.197-.947-.503l-4.791-5.88a.967.967 0 0 0-.294-.262l-3.015-1.738c-1.314-.757-.075-2.891 1.268-2.15l5.133 2.826a.973.973 0 1 0 .937-1.704l-.981-.54c.844-1.58 1.437-3.187 1.749-5.01.434.195.743.48 1.091.846l7.683 8.072a.98.98 0 0 0 .236.19l2.339 1.35a.971.971 0 1 0 .975-1.682h-.002zm-19.298.697c-1.254 1.87-2.317 3.688-3.206 5.89h-6.559v-3.538a4.337 4.337 0 0 0 2.096-1.162c2.422-2.423 1.2-6.55-2.101-7.302l-.007-3.537h4.132a.975.975 0 0 0 .974-.974c0-.661.268-1.259.7-1.692 1.504-1.503 4.085-.433 4.085 1.692 0 .538.436.974.975.974h3.943c-.28 1.544-.791 2.902-1.507 4.248l-2.45-1.35c-1.289-.71-2.53-.445-3.426.28-1.592 1.289-1.93 3.994.252 5.257l2.099 1.214zM9.567 32.263c0-9.922 8.069-17.96 18.051-17.99 9.884-.031 17.964 8.041 17.964 17.99 0 .753-.047 1.209-.098 1.934a.975.975 0 0 1-.974.936h-5.065a.975.975 0 0 1-.975-.975c0-2.125-2.581-3.194-4.084-1.691a2.388 2.388 0 0 0-.7 1.691.975.975 0 0 1-.975.975h-4.13l.006 3.537c3.3.752 4.523 4.88 2.1 7.302a4.332 4.332 0 0 1-2.095 1.161v3.539h7.11c2.96 0 4.495 3.606 2.371 5.728a3.378 3.378 0 0 1-1.146.754v1.739c0 10.446-18.62 10.446-18.62 0v-1.74c-2.704-1.067-2.87-4.847-.25-6.138-2.42-5.56-7.5-9.21-8.34-16.193-.1-.842-.108-1.708-.15-2.56zM26.644 50.67v-4.402c0-.538.435-.975.974-.975 2.125 0 3.195-2.58 1.692-4.084a2.388 2.388 0 0 0-1.692-.701c-.56 0-.997-.447-.971-1.058l-.008-4.318h-3.28c-.756 3.296-4.88 4.515-7.3 2.095a4.34 4.34 0 0 1-1.162-2.095h-3.168c1.012 6.184 5.942 9.73 8.289 15.537h6.626zm1.94-17.486h3.263c.756-3.297 4.88-4.516 7.3-2.096a4.328 4.328 0 0 1 1.162 2.096h3.303c.464-8.916-6.24-16.414-15.029-16.935v5.086a.974.974 0 0 1-.974.975c-2.125 0-3.195 2.58-1.692 4.084.433.433 1.032.7 1.692.7.538 0 .974.437.974.975v5.115zm-1.95-16.934c-8.773.528-15.602 8.047-15.085 16.934h4.213c.537 0 .974.436.974.974 0 2.126 2.581 3.195 4.085 1.692.433-.432.7-1.03.7-1.692 0-.538.437-.974.975-.974h4.14v-4.25c-3.297-.757-4.516-4.88-2.096-7.301a4.342 4.342 0 0 1 2.096-1.162v-4.22l-.001-.001zm9.067 36.369H19.533c-1.231 0-1.892 1.505-.994 2.402a1.4 1.4 0 0 0 .994.415H35.7c1.23 0 1.891-1.506.994-2.403a1.406 1.406 0 0 0-.994-.414z" fill="#2B2B2B"/></svg>