<svg width="19" height="19" fill="none" xmlns="http://www.w3.org/2000/svg"><path fill-rule="evenodd" clip-rule="evenodd" d="M5.184.484a.663.663 0 0 1 .197.472V2.3c.599-.012 1.27-.012 2.025-.012h3.6c.755 0 1.427 0 2.025.012V.956c0-.177.071-.347.198-.472a.68.68 0 0 1 .955 0 .662.662 0 0 1 .197.472v1.403c1.295.103 2.146.354 2.77.972.626.617.88 1.456.984 2.736H.277c.105-1.28.359-2.12.984-2.736.625-.618 1.474-.869 2.77-.97V.955c0-.177.071-.347.198-.472a.68.68 0 0 1 .955 0zM.219 7.4c-.012.591-.012 1.255-.012 2v1.778c0 3.352 0 5.029 1.055 6.07 1.054 1.041 2.751 1.041 6.145 1.041h3.6c3.394 0 5.091 0 6.145-1.042 1.055-1.04 1.055-2.717 1.055-6.069V9.4c0-.745 0-1.409-.012-2H.22zm14.124 3.518a.906.906 0 0 1-1.272 0 .884.884 0 0 1 0-1.257.906.906 0 0 1 1.272 0 .883.883 0 0 1 0 1.257zm0 3.555a.906.906 0 0 1-1.272 0 .884.884 0 0 1 0-1.257.906.906 0 0 1 1.272 0 .883.883 0 0 1 0 1.257zm-4.5-3.555a.883.883 0 0 0 0-1.257.906.906 0 0 0-1.272 0 .883.883 0 0 0 0 1.257.906.906 0 0 0 1.272 0zm0 3.555a.883.883 0 0 0 0-1.257.906.906 0 0 0-1.272 0 .883.883 0 0 0 0 1.257.906.906 0 0 0 1.272 0zm-4.5-3.555a.906.906 0 0 1-1.272 0 .883.883 0 0 1 0-1.257.906.906 0 0 1 1.272 0 .883.883 0 0 1 0 1.257zm0 3.555a.906.906 0 0 1-1.272 0 .883.883 0 0 1 0-1.257.906.906 0 0 1 1.272 0 .883.883 0 0 1 0 1.257z" fill="url(#a)"/><defs><linearGradient id="a" x1=".207" y1=".289" x2="18.207" y2="18.289" gradientUnits="userSpaceOnUse"><stop stop-color="#089DE5"/><stop offset="1" stop-color="#087DBD"/></linearGradient></defs></svg>