<svg width="81" height="81" fill="none" xmlns="http://www.w3.org/2000/svg"><path fill-rule="evenodd" clip-rule="evenodd" d="m41.423 23.446 4.56-4.56a.716.716 0 1 0-1.013-1.014l-3.337 3.337v-6.025a.717.717 0 0 0-1.433 0v6.025l-3.337-3.337a.717.717 0 0 0-1.013 1.014l4.56 4.56c.28.28.733.28 1.013 0zm-6.032-3.07c-7.053 1.87-12.683 7.235-14.924 14.129h2.02a19.635 19.635 0 0 1 12.904-12.146v-1.984zm0 39.578c-6.746-1.98-11.981-7.492-13.566-14.398h-1.956c1.656 7.964 7.718 14.313 15.522 16.382v-1.984zm11.05 1.984v-1.984c6.747-1.98 11.982-7.492 13.567-14.398h1.956c-1.656 7.964-7.718 14.313-15.522 16.382zm0-39.579v-1.984c7.054 1.87 12.684 7.236 14.925 14.13h-2.02a19.636 19.636 0 0 0-12.904-12.146zM18.444 34.943l4.56 4.56c.28.28.28.734 0 1.014l-4.56 4.56a.717.717 0 0 1-1.014-1.014l3.337-3.337h-6.025a.717.717 0 0 1 0-1.433h6.025l-3.337-3.337a.717.717 0 0 1 1.014-1.013zM35.85 62.114l4.56-4.56a.717.717 0 0 1 1.013 0l4.56 4.56a.716.716 0 1 1-1.013 1.014l-3.337-3.337v6.025a.717.717 0 0 1-1.433 0V59.79l-3.337 3.337a.717.717 0 0 1-1.013-1.013zm22.64-21.597 4.56 4.56a.717.717 0 1 0 1.013-1.014l-3.337-3.337h6.025a.716.716 0 1 0 0-1.433h-6.025l3.337-3.337a.716.716 0 1 0-1.013-1.013l-4.56 4.56a.717.717 0 0 0 0 1.014zm-25.915 5.277-.111.839a2.968 2.968 0 0 0 2.943 3.363h11.019a2.972 2.972 0 0 0 2.942-3.363l-.112-.84c-.407-3.07-3.054-5.384-6.151-5.384h-4.378c-3.097 0-5.744 2.314-6.151 5.385zm6.152-3.787h4.38c2.301 0 4.264 1.72 4.567 4l.112.839c.053.396-.064.783-.327 1.083a1.352 1.352 0 0 1-1.034.47H35.407c-.402 0-.767-.166-1.03-.47-.264-.3-.381-.687-.328-1.084l.112-.838c.304-2.28 2.266-4 4.567-4zm2.188-11.983a4.797 4.797 0 0 1 4.793 4.793 4.797 4.797 0 0 1-4.793 4.793 4.797 4.797 0 0 1-4.793-4.793 4.797 4.797 0 0 1 4.793-4.793zm0 1.598a3.198 3.198 0 0 0-3.196 3.195 3.198 3.198 0 0 0 3.196 3.196 3.198 3.198 0 0 0 3.196-3.196 3.198 3.198 0 0 0-3.196-3.195z" fill="#2B2B2B"/></svg>