<svg width="71" height="71" fill="none" xmlns="http://www.w3.org/2000/svg"><path d="M33.705 58.986h6.758a1.064 1.064 0 0 0 0-2.128h-6.758a1.064 1.064 0 0 0 0 2.128zm0 4.42h6.758a1.064 1.064 0 0 0 0-2.129h-6.758a1.064 1.064 0 0 0 0 2.128z" fill="url(#a)"/><path d="M65.464 31.495c0-4.519-3.486-8.115-7.736-8.49C60.694 17.117 56 9.979 49.192 10.737c-.2-5.15-4.57-9.36-9.839-9.36-4.63 0-8.562 3.207-9.596 7.559-7.422-3.693-15.971 3.374-13.83 11.324-5.48-.059-10.013 4.338-10.013 9.878 0 5.446 4.425 9.876 9.865 9.876h8.77c2.012 4.275 3.08 8.911 3.08 13.568.041.106-.055 1.242 1.064 1.242h.367v6.621c0 4.426 3.602 8.028 8.028 8.028 4.427 0 8.028-3.602 8.028-8.028v-6.62h.367c1.111 0 1.023-1.123 1.064-1.23 0-4.499 1.066-9.055 3.145-13.581h7.285c4.68 0 8.487-3.821 8.487-8.518zm-37.886 10.23c-2.265-6.053-6.346-9.878-3.249-17.38l2.435 1.845a4.148 4.148 0 0 0-.266 1.425 4.2 4.2 0 0 0 4.196 4.196c.027 0 .053-.007.08-.008l2.682 5.046a4.15 4.15 0 0 0-.958 2.287l-4.92 2.588zm14.94-17.127c-1.986.33-3.51 2.048-3.51 4.127a4.2 4.2 0 0 0 4.197 4.196c1.226 0 2.32-.538 3.088-1.379l2.351 1.385-8.702 4.032c-.769-.98-1.95-1.62-3.288-1.62-.51 0-.994.104-1.446.272l-2.35-4.42c1.213-.736 2.033-2.057 2.033-3.576 0-.582-.12-1.137-.336-1.641l8.327-7.036-.364 5.66zm.687 2.059a2.07 2.07 0 0 1 2.068 2.068 2.07 2.07 0 0 1-2.068 2.068 2.07 2.07 0 0 1-2.068-2.068 2.07 2.07 0 0 1 2.068-2.068zm-4.483 12.877c0 1.11-.919 2.068-2.068 2.068a2.07 2.07 0 0 1-2.068-2.068 2.07 2.07 0 0 1 2.068-2.068c1.165 0 2.068.96 2.068 2.068zm-5.484-15.233a4.155 4.155 0 0 0-2.544-.882c-1.04 0-1.98.394-2.714 1.023l-2.668-2.022c3.47-5.677 10.509-8.175 16.833-5.645l-8.907 7.526zm-.475 3.314a2.07 2.07 0 0 1-2.069 2.068 2.07 2.07 0 0 1-2.068-2.068 2.07 2.07 0 0 1 2.068-2.068 2.07 2.07 0 0 1 2.069 2.068zm-4.492 16.15 4.61-2.427a4.199 4.199 0 0 0 1.744 1.846v9.512h-4.88a33.776 33.776 0 0 0-1.474-8.931zm14.717 17.679c0 3.253-2.647 5.9-5.9 5.9a5.906 5.906 0 0 1-5.9-5.9v-6.62h11.8v6.62zm1.444-8.749h-7.679V43.72a4.17 4.17 0 0 0 2.234-.701l5.941 4.998a32.08 32.08 0 0 0-.496 4.678zm1.004-7.03-5.052-4.25a4.142 4.142 0 0 0 .466-1.881c0-.213-.032-.417-.063-.62l9.143-4.237c-.86 2.184-3.008 5.084-4.494 10.987zm1.852-16.006a4.17 4.17 0 0 0 .113-.934c0-1.808-1.156-3.34-2.763-3.928l.414-6.439c4.115 2.938 6.5 7.941 5.682 13.33l-3.446-2.03zm9.69 8.226h-6.233c.104-.196.196-.392.304-.588a15.964 15.964 0 0 0 1.955-8.497c-.276-5.673-3.62-10.616-8.379-13.208-.015-.008-.026-.022-.042-.03-.016-.008-.033-.009-.049-.016a15.665 15.665 0 0 0-6.73-1.868c-9.13-.392-16.651 6.96-16.652 15.92 0 2.8.737 5.555 2.131 7.967.06.105.112.214.171.32H15.78c-4.266 0-7.737-3.476-7.737-7.748 0-4.884 4.504-8.576 9.254-7.592a1.063 1.063 0 0 0 1.18-1.492c-3.308-7.08 5.088-14.105 11.477-9.522a1.062 1.062 0 0 0 1.682-.8c.248-4.053 3.638-7.228 7.718-7.228 4.627 0 8.17 4.08 7.671 8.398a1.065 1.065 0 0 0 1.328 1.151c6.534-1.714 10.603 5.977 6.508 10.39a1.065 1.065 0 0 0 .98 1.769c3.818-.731 7.496 2.251 7.496 6.284 0 3.523-2.852 6.39-6.359 6.39z" fill="url(#b)"/><path d="M57.276 63.405c.587 0 1.064-.476 1.064-1.064V49.025l2.154 2.15a1.065 1.065 0 0 0 1.504-1.507l-3.887-3.879a1.064 1.064 0 0 0-1.505.002l-3.877 3.878a1.064 1.064 0 1 0 1.504 1.504l1.979-1.978v13.146c0 .588.476 1.064 1.064 1.064zM17.312 45.48c-.588 0-1.064.476-1.064 1.064v13.146l-1.979-1.978a1.064 1.064 0 1 0-1.504 1.504l3.878 3.879a1.06 1.06 0 0 0 1.504 0l3.886-3.878a1.065 1.065 0 0 0-1.503-1.506l-2.154 2.15V46.542c0-.588-.476-1.064-1.064-1.064z" fill="url(#c)"/><defs><linearGradient id="a" x1="32.641" y1="56.858" x2="38.895" y2="65.345" gradientUnits="userSpaceOnUse"><stop stop-color="#089DE5"/><stop offset="1" stop-color="#087DBD"/></linearGradient><linearGradient id="b" x1="5.914" y1="1.375" x2="73.403" y2="60.394" gradientUnits="userSpaceOnUse"><stop stop-color="#089DE5"/><stop offset="1" stop-color="#087DBD"/></linearGradient><linearGradient id="c" x1="12.453" y1="45.479" x2="23.869" y2="77.227" gradientUnits="userSpaceOnUse"><stop stop-color="#089DE5"/><stop offset="1" stop-color="#087DBD"/></linearGradient></defs></svg>