<svg width="80" height="80" fill="none" xmlns="http://www.w3.org/2000/svg"><path d="M33.896 49.401c1.006 0 1.81-.605 2.146-1.547l2.078-5.788V19.051a4.214 4.214 0 0 0-4.224-4.24 4.214 4.214 0 0 0-4.224 4.24v23.015l2.078 5.788c.336.942 1.207 1.547 2.146 1.547zm-2.213-27.726h1.207v17.901l-1.207.606V21.675zm4.426 0V40.25l-1.207-.605V21.676h1.207zm-1.341 23.958a1.235 1.235 0 0 0-.805-.337c-.268 0-.603.135-.804.337l-1.207-3.23 2.011-1.077 2.012 1.077-1.207 3.23zm-.872-28.803c1.207 0 2.213 1.01 2.213 2.22v.607h-4.426v-.606c0-1.211 1.006-2.22 2.213-2.22z" fill="url(#a)"/><path d="M42.346 21.744v3.97c0 .404.135.808.403 1.144-.537 2.423-1.744 10.768 1.81 21.266.268.673.939 1.144 1.744 1.211h.067c.871 0 1.542-.471 1.81-1.144 3.889-10.162 2.414-18.843 1.81-21.333.269-.27.403-.673.403-1.077v-3.768c0-.135 0-.27-.067-.404 1.408-1.077 2.95-3.298 2.011-6.595-1.073-4.307-4.492-7.604-6.906-8.008-.604-.135-1.207.202-1.475.673-.336.538-.269 1.144.134 1.615.268.336.536 1.01.402 1.615-.067.538-.402 1.01-.872 1.346l-.067.134c-2.212 1.75-3.352 3.836-3.218 5.922.134 1.346.804 2.558 2.011 3.433zm6.102.538v3.096h-4.157v-3.096h4.157zM46.37 47.316c-3.219-9.623-2.146-17.497-1.677-19.852h3.42c.47 2.355 1.743 10.498-1.743 19.852zm-1.61-33.312c1.006-.672 1.61-1.615 1.744-2.691.067-.539.067-1.144-.067-1.683 1.542 1.01 3.352 3.23 4.09 5.922.871 3.096-1.274 4.51-1.81 4.778h-4.895c-.872-.538-1.409-1.278-1.476-2.22-.134-1.346.738-2.827 2.414-4.105z" fill="url(#b)"/><path d="M61.322 22.822h-6.973c-.537 0-1.006.47-1.006 1.009 0 .538.47 1.01 1.006 1.01h6.973a1.95 1.95 0 0 1 1.944 1.951v1.279h-8.984c-.537 0-1.006.47-1.006 1.01 0 .537.47 1.009 1.005 1.009H63.2v23.217H16.731V30.089h8.784c.537 0 1.006-.47 1.006-1.009 0-.538-.47-1.01-1.006-1.01h-8.784v-1.278a1.95 1.95 0 0 1 1.945-1.952h6.906c.537 0 1.006-.47 1.006-1.009 0-.538-.47-1.01-1.006-1.01h-6.906a3.97 3.97 0 0 0-3.956 3.971v29.476c0 2.153 1.743 3.97 3.956 3.97h14.55v2.423a8.2 8.2 0 0 1-4.09 7.133c-.67.404-1.006 1.212-.805 1.952.201.74.939 1.278 1.677 1.278h20.048c.738 0 1.475-.47 1.677-1.278.2-.74-.135-1.548-.805-1.952-2.615-1.48-4.224-4.24-4.224-7.133v-2.49h14.617a3.97 3.97 0 0 0 3.956-3.97V26.791c0-2.154-1.743-3.97-3.956-3.97zM48.917 70.87H31.216c2.547-1.952 4.09-5.047 4.09-8.345v-2.355h9.454v2.355c0 3.298 1.542 6.393 4.157 8.345zm12.405-12.719H18.677a1.95 1.95 0 0 1-1.945-1.952v-.942h46.534v.942a1.95 1.95 0 0 1-1.944 1.952z" fill="url(#c)"/><defs><linearGradient id="a" x1="29.672" y1="14.811" x2="45.618" y2="18.706" gradientUnits="userSpaceOnUse"><stop stop-color="#089DE5"/><stop offset="1" stop-color="#087DBD"/></linearGradient><linearGradient id="b" x1="40.324" y1="6.976" x2="63.012" y2="13.564" gradientUnits="userSpaceOnUse"><stop stop-color="#089DE5"/><stop offset="1" stop-color="#087DBD"/></linearGradient><linearGradient id="c" x1="14.721" y1="22.822" x2="64.922" y2="73.378" gradientUnits="userSpaceOnUse"><stop stop-color="#089DE5"/><stop offset="1" stop-color="#087DBD"/></linearGradient></defs></svg>