<svg width="80" height="80" fill="none" xmlns="http://www.w3.org/2000/svg"><path d="m30.212 39.897 3.414-14.901a1 1 0 0 1 1.946.446l-3.414 14.9a.995.995 0 0 1-1.202.75.994.994 0 0 1-.744-1.195zm-11.157-6.355 8.184 4.57c.155.084.323.13.485.13.349 0 .691-.188.872-.511a.991.991 0 0 0-.387-1.358l-6.62-3.697 6.62-3.698a1 1 0 0 0 .387-1.358 1 1 0 0 0-1.357-.388l-8.184 4.564a.995.995 0 0 0-.511.873c0 .362.194.698.51.873zm18.14 4.189a.992.992 0 0 0 1.357.381l8.184-4.57a.995.995 0 0 0 .51-.873.995.995 0 0 0-.51-.873l-8.184-4.57a.991.991 0 0 0-1.358.388.991.991 0 0 0 .388 1.357l6.62 3.698-6.62 3.698a1 1 0 0 0-.388 1.364zM72 45.534v3.51a1 1 0 0 1-.692.95l-2.178.712a12.978 12.978 0 0 1-1.203 2.902l1.041 2.043c.194.388.123.853-.187 1.163l-2.476 2.477c-.304.31-.776.38-1.164.187l-2.043-1.04c-.918.523-1.894.924-2.909 1.208l-.168.517-.537 1.662a1 1 0 0 1-.95.691H55.03a1 1 0 0 1-.95-.691l-.705-2.179a12.577 12.577 0 0 1-2.909-1.209l-2.043 1.041a1.003 1.003 0 0 1-1.163-.188l-2.476-2.475a1.001 1.001 0 0 1-.246-1.022h-6.186l1.687 4.713h3.31a1.003 1.003 0 0 1 0 2.004H22.436a1.003 1.003 0 0 1 0-2.004h3.31l1.687-4.713H12.13A4.138 4.138 0 0 1 8 51.663V21.614a4.139 4.139 0 0 1 4.13-4.131h41.523a4.134 4.134 0 0 1 4.131 4.13v10.467h.75a1 1 0 0 1 .95.691l.705 2.18c1.015.284 1.991.684 2.91 1.202l2.048-1.041a.992.992 0 0 1 1.158.187l2.476 2.47c.303.303.381.775.187 1.163l-1.04 2.043c.523.925.93 1.894 1.208 2.91l.517.167 1.662.537c.407.13.685.51.685.944zM9.998 21.614v24.25H41.57v-.324a1 1 0 0 1 .692-.95l2.178-.705a13.151 13.151 0 0 1 1.203-2.909l-1.041-2.043a1.003 1.003 0 0 1 .187-1.163l2.476-2.47a1.004 1.004 0 0 1 1.157-.187l2.05 1.04a12.445 12.445 0 0 1 2.909-1.202l.168-.517.537-1.661a1 1 0 0 1 .95-.692h.756V21.615a2.13 2.13 0 0 0-2.133-2.127H12.13a2.126 2.126 0 0 0-2.132 2.127zm2.133 32.182h33.422l.097-.188a12.798 12.798 0 0 1-1.202-2.902l-2.179-.712a1 1 0 0 1-.692-.95v-1.183H9.997v3.801c0 1.177.957 2.134 2.134 2.134zm24.107 1.997h-6.691l-1.688 4.713h10.066l-1.687-4.713zm33.764-9.529-2.016-.653a1.001 1.001 0 0 1-.666-.73 10.61 10.61 0 0 0-1.384-3.336.989.989 0 0 1-.045-.983l.963-1.887-1.448-1.448-1.888.963a.989.989 0 0 1-.982-.045A10.789 10.789 0 0 0 59.2 36.76a.992.992 0 0 1-.724-.666l-.66-2.017h-2.049l-.66 2.017c-.109.33-.38.582-.723.666a10.788 10.788 0 0 0-3.336 1.384.989.989 0 0 1-.983.045l-1.887-.963-1.448 1.448.963 1.887a.989.989 0 0 1-.045.983 10.79 10.79 0 0 0-1.384 3.336.992.992 0 0 1-.666.724l-2.017.653v2.05l2.01.652c.337.11.59.381.667.724a10.787 10.787 0 0 0 1.383 3.336.989.989 0 0 1 .046.982l-.621 1.216c-.007.013-.013.032-.026.045l-.323.634 1.448 1.448 1.888-.964a1 1 0 0 1 .989.046 10.79 10.79 0 0 0 3.335 1.383c.343.078.621.33.73.666l.66 2.017h2.05l.659-2.017c.11-.336.388-.588.73-.666a10.79 10.79 0 0 0 3.336-1.383 1 1 0 0 1 .99-.046l1.887.964 1.448-1.448-.963-1.888a.989.989 0 0 1 .045-.983 10.788 10.788 0 0 0 1.383-3.336.982.982 0 0 1 .666-.723l2.01-.654v-2.049h-.006zm-7.04 1.028a6.181 6.181 0 0 1-6.173 6.174c-3.407 0-6.18-2.773-6.18-6.174a6.188 6.188 0 0 1 6.18-6.18c3.407 0 6.173 2.773 6.173 6.18zm-1.997 0a4.184 4.184 0 0 0-4.176-4.183 4.185 4.185 0 0 0-4.183 4.183 4.184 4.184 0 0 0 4.183 4.176 4.183 4.183 0 0 0 4.176-4.176z" fill="url(#a)"/><defs><linearGradient id="a" x1="8" y1="17.484" x2="50.387" y2="77.724" gradientUnits="userSpaceOnUse"><stop stop-color="#089DE5"/><stop offset="1" stop-color="#087DBD"/></linearGradient></defs></svg>