<svg width="47" height="76" fill="none" xmlns="http://www.w3.org/2000/svg"><path d="M23.344 59.151a4.99 4.99 0 0 0-.552-.05 6.372 6.372 0 0 1-1.294-.125 2.444 2.444 0 0 0-.39-.076 2.152 2.152 0 0 1-.351-.06 5.573 5.573 0 0 0-.327-.08 4.092 4.092 0 0 1-.527-.134 1.093 1.093 0 0 0-.209-.052.96.96 0 0 1-.218-.076.96.96 0 0 0-.239-.075.566.566 0 0 1-.183-.06 1.138 1.138 0 0 0-.204-.079 2.52 2.52 0 0 1-.287-.103 1.49 1.49 0 0 0-.224-.085 4.732 4.732 0 0 1-.587-.252 1.511 1.511 0 0 0-.229-.1 2.229 2.229 0 0 1-.372-.171l-.175-.088a.902.902 0 0 1-.138-.083 4.836 4.836 0 0 0-.452-.256 3.698 3.698 0 0 1-.327-.194c-.09-.058-.196-.125-.239-.148a8.567 8.567 0 0 1-.63-.404 6.255 6.255 0 0 1-.585-.431c-.048-.036-.123-.093-.168-.12a5.206 5.206 0 0 1-.558-.455 5.685 5.685 0 0 0-.294-.247 15.448 15.448 0 0 1-1.683-1.685 3.051 3.051 0 0 0-.191-.226 2.663 2.663 0 0 1-.317-.402 1.935 1.935 0 0 0-.123-.163 5.849 5.849 0 0 1-.22-.314 27.597 27.597 0 0 1-.216-.327 10.697 10.697 0 0 1-.647-1.105c-.06-.123-.16-.326-.224-.452a4.984 4.984 0 0 1-.323-.683 1.818 1.818 0 0 0-.1-.238.823.823 0 0 1-.086-.226.817.817 0 0 0-.076-.216.875.875 0 0 1-.075-.196.623.623 0 0 0-.06-.156c-.04-.09-.07-.184-.089-.28a2.466 2.466 0 0 0-.103-.353 2.07 2.07 0 0 1-.085-.301 1.284 1.284 0 0 0-.078-.269.885.885 0 0 1-.063-.252 1.354 1.354 0 0 0-.053-.27 3.94 3.94 0 0 1-.063-.265 8.898 8.898 0 0 0-.115-.665 4.51 4.51 0 0 1-.096-.867 4.967 4.967 0 0 0-.04-.477 7.43 7.43 0 0 1-.088-.942 3.244 3.244 0 0 1 .01-.79c.023-.169.037-.338.043-.508a.895.895 0 0 1 .027-.239c.03-.164.046-.33.05-.497a4.32 4.32 0 0 1 .084-.814c.054-.22.092-.441.115-.666.01-.084.032-.167.063-.246.033-.087.054-.178.063-.271.013-.105.038-.208.075-.307a1.17 1.17 0 0 0 .076-.291.911.911 0 0 1 .06-.239c.036-.085.086-.228.113-.32.028-.09.076-.235.106-.326.03-.09.063-.19.072-.226a4.9 4.9 0 0 1 .138-.339 8.47 8.47 0 0 0 .16-.401c.086-.232.63-1.35.742-1.513.055-.082.08-.125.326-.535.144-.248.3-.488.467-.72.036-.043.106-.144.159-.224.063-.1.133-.196.208-.288.063-.075.173-.21.244-.299.353-.445.737-.865 1.148-1.258.487-.51 1.016-.978 1.58-1.401.336-.259.685-.5 1.046-.721a2.61 2.61 0 0 0 .23-.153.977.977 0 0 1 .18-.105c.063-.03.186-.101.277-.159.09-.057.349-.195.577-.306.229-.11.442-.221.478-.244.06-.034.123-.064.188-.088a.818.818 0 0 0 .153-.068 1.29 1.29 0 0 1 .173-.072c.078-.027.154-.06.226-.1a.34.34 0 0 1 .144-.05.566.566 0 0 0 .186-.066c.23-.106.469-.194.713-.261.095-.026.187-.059.277-.098a.594.594 0 0 1 .17-.053c.198-.035.393-.085.583-.15.082-.027.168-.044.254-.05.09-.01.178-.03.264-.061.113-.037.23-.063.348-.076.197-.019.392-.054.583-.105.12-.024.244-.036.367-.036.096.002.193-.007.287-.028.498-.06 1-.086 1.502-.078.529-.007 1.057.02 1.582.08.093.02.188.028.284.026.149 0 .297.021.442.06.137.035.278.06.419.076.131.016.261.041.39.075.102.03.207.055.313.072.103.018.204.044.302.078.103.033.251.072.327.09.09.02.178.048.263.081.09.035.183.064.277.088.07.017.14.04.206.072.055.03.114.05.175.063.104.03.205.068.302.115.073.04.152.068.233.086.061.01.12.03.174.06.063.036.218.108.341.16.247.095.484.21.709.348.17.13.16-.219.153 4.335-.008 3.898-.01 4.133-.053 4.21-.025.043-.058.08-.075.08a3.053 3.053 0 0 1-.578-.602 6.943 6.943 0 0 0-1.424-1.294 3.446 3.446 0 0 0-.407-.264 2.368 2.368 0 0 1-.221-.136 1.956 1.956 0 0 0-.296-.168.748.748 0 0 1-.164-.078.611.611 0 0 0-.163-.075 2.845 2.845 0 0 1-.253-.1 2.03 2.03 0 0 0-.24-.099c-.042-.01-.155-.047-.253-.08a4.016 4.016 0 0 0-.628-.193 3.188 3.188 0 0 1-.49-.106 1.941 1.941 0 0 0-.326-.053c-.327-.036-1.897-.033-2.16 0a5.125 5.125 0 0 0-.608.118c-.076.02-.153.033-.231.04a1.43 1.43 0 0 0-.262.06c-.394.11-.782.244-1.16.4a8.652 8.652 0 0 1-.362.158.894.894 0 0 0-.188.096c-.1.064-.205.122-.312.175-.51.272-.99.6-1.426.98a8.986 8.986 0 0 1-.317.279 3.347 3.347 0 0 0-.297.299c-.082.096-.238.269-.344.384a1.862 1.862 0 0 0-.196.231.838.838 0 0 1-.115.158 4.712 4.712 0 0 0-.475.699 1.52 1.52 0 0 1-.118.2c-.1.139-.183.288-.249.445a.636.636 0 0 1-.065.148 5.143 5.143 0 0 0-.256.626.781.781 0 0 1-.06.153c-.041.098-.076.199-.104.301-.036.123-.085.304-.113.4-.03.107-.054.216-.072.326-.02.112-.045.223-.078.332a1.399 1.399 0 0 0-.053.39 2.242 2.242 0 0 1-.04.394c-.043.32-.055.645-.036.967 0 .45.013.837.028.917.015.08.036.257.05.402.011.154.035.307.072.457.028.108.058.254.068.327.021.118.052.234.093.346.041.122.076.245.106.37.017.08.043.158.075.233.03.064.056.13.076.198.059.198.142.388.248.566.031.041.054.09.066.14.014.056.04.108.075.153a.497.497 0 0 1 .076.148c.018.06.046.117.083.168.042.072.103.166.13.214.027.048.072.123.103.17.088.146.364.53.525.729.385.44.797.855 1.234 1.244.057.036.111.078.16.125.162.133.334.255.513.364.072.048.215.144.316.209.08.054.163.103.25.148a.334.334 0 0 1 .102.058c.188.118.387.219.593.301.123.05.306.13.41.18.072.037.148.066.228.085.074.016.147.04.215.072.102.042.206.076.312.103.076.018.211.058.302.088.106.035.215.059.326.072.107.012.212.035.314.068a5.817 5.817 0 0 0 1.507.108 6.295 6.295 0 0 0 1.582-.118c.098-.03.199-.052.301-.066.09-.01.178-.03.264-.06.103-.036.269-.083.364-.11.102-.029.203-.063.302-.103l.351-.138c.329-.138.648-.297.955-.478l.284-.18a8.09 8.09 0 0 0 1.256-1.002 7.713 7.713 0 0 0 1.27-1.66c.141-.241.543-1.05.543-1.093.024-.074.053-.146.088-.215.043-.091.077-.185.104-.282.017-.072.042-.143.075-.21a.59.59 0 0 0 .06-.166c.014-.08.035-.158.063-.234a2.08 2.08 0 0 0 .138-.539c.018-.119.045-.237.08-.351l.056-.176.015-12.735c.013-12.11.015-12.74.058-12.806.09-.137.188-.143 3.346-.143 3.21 0 3.336.005 3.446.135l.066.078-.015 10.269-.018 10.27-.088 2.44-.09 2.438-.139.656a16.439 16.439 0 0 1-.44 1.911.346.346 0 0 0-.047.14.85.85 0 0 1-.063.217.863.863 0 0 0-.063.21c-.015.08-.04.156-.072.23a1.942 1.942 0 0 0-.103.3 2.117 2.117 0 0 1-.09.27 5.195 5.195 0 0 0-.096.238c-.055.156-.14.36-.231.555a1.346 1.346 0 0 0-.086.201c0 .05-.612 1.279-.69 1.382a.894.894 0 0 0-.101.173.632.632 0 0 1-.086.15.825.825 0 0 0-.098.151c-.063.123-.627.97-.783 1.178-.063.08-.131.17-.151.201-.02.03-.088.116-.15.19a6.16 6.16 0 0 1-.444.525c-.079.08-.153.164-.221.253-.036.065-.872.904-1.007 1.006-.067.053-.193.16-.276.239a3.01 3.01 0 0 1-.239.208c-.047.036-.15.118-.225.18a3.605 3.605 0 0 1-.201.158c-.036.022-.114.083-.176.13-.231.18-1.058.721-1.334.874-.158.088-.354.199-.437.249-.133.08-.272.153-.414.216-.345.16-.543.251-.603.268-.06.022-.12.048-.176.078a4.47 4.47 0 0 1-.617.236 3.55 3.55 0 0 0-.307.124.464.464 0 0 1-.163.053 1.585 1.585 0 0 0-.277.075 1.623 1.623 0 0 1-.26.075c-.08.014-.158.035-.234.06-.103.034-.28.081-.39.104-.11.022-.306.072-.434.103a1.92 1.92 0 0 1-.367.06c-.129.01-.257.032-.381.066a6.68 6.68 0 0 1-1.417.135 6.07 6.07 0 0 0-.605.05c-.267.03-.535.03-.802 0l-.002.008z" fill="#fff"/><path d="M32.447 17.477c-.143-.032-.203-.12-.228-.316-.033-.239-.03-2.083 0-2.248a.771.771 0 0 1 .055-.194c.072-.135-.085-.13 3.342-.13h3.173l.072.072a.444.444 0 0 1 .093.168c.01.055.022.608.022 1.228v1.13l-.06.129c-.045.098-.078.135-.14.158-.099.032-6.187.036-6.328.002v.001zM32.512 12.806a.595.595 0 0 1-.183-.063c-.136-.088-.138-.12-.141-1.381-.003-1.09 0-1.168.045-1.258.098-.2-.163-.186 3.358-.186 3.47 0 3.263-.01 3.343.163.04.086.045.199.048 1.241l.005 1.146-.06.133c-.109.238.198.218-3.256.223-1.672 0-3.094-.008-3.16-.018zM32.665 8.207a1.114 1.114 0 0 1-.315-.065c-.16-.078-.163-.096-.163-1.4.003-1.155.008-1.253.072-1.373.072-.14-.065-.136 3.339-.136 2.986 0 3.144.003 3.222.046.168.09.168.095.168 1.411v1.181l-.06.12c-.09.186-.14.201-.655.211-.967.018-5.405.02-5.608.005zM32.72 3.516c-.37-.018-.431-.036-.495-.161-.043-.072-.045-.183-.045-1.299 0-1.32.002-1.348.135-1.416.168-.088.465-.096 3.444-.086 3.237.008 3.064 0 3.15.168.095.18.105.335.1 1.427-.005.995-.01 1.068-.055 1.173-.098.221.158.204-3.057.206-1.56.003-2.99-.005-3.177-.012z" fill="#1630EC"/><path d="M3.405 75.245a3.686 3.686 0 0 0-.193-.032 2.656 2.656 0 0 1-1.795-1.21 4.03 4.03 0 0 1-.606-2.12c-.02-.364.008-.728.081-1.084.28-1.397 1.212-2.35 2.453-2.506a2.443 2.443 0 0 1 2.295.877c.022.036.051.067.086.09.015 0 .022-.58.022-1.677v-1.678h1.805v9.2h-1.72v-.43a2.41 2.41 0 0 0-.019-.432.48.48 0 0 0-.094.114c-.392.591-1.075.9-1.971.894-.172 0-.327-.004-.344-.006zm1.021-1.343a1.31 1.31 0 0 0 .823-.372c.381-.374.55-.922.553-1.767a2.894 2.894 0 0 0-.196-1.222 1.506 1.506 0 0 0-.956-.868c-.277-.05-.56-.05-.837 0a1.31 1.31 0 0 0-.636.367c-.285.298-.466.68-.516 1.09a4.704 4.704 0 0 0-.002 1.217 1.945 1.945 0 0 0 .778 1.337c.228.147.492.229.763.236.018 0 .12-.009.226-.02v.002zM10.822 75.223c-.39-.05-.77-.166-1.122-.342a3.08 3.08 0 0 1-1.627-2.162 4.733 4.733 0 0 1-.01-1.85 3.13 3.13 0 0 1 2.06-2.398 4.232 4.232 0 0 1 2.14-.114 3.107 3.107 0 0 1 2.364 2.05c.29.888.29 1.845 0 2.732-.153.451-.41.86-.75 1.193a3.167 3.167 0 0 1-1.902.892c-.383.038-.77.038-1.152-.001zm.998-1.356a1.484 1.484 0 0 0 1.085-1.095c.19-.714.17-1.468-.06-2.17a1.669 1.669 0 0 0-.634-.774 1.753 1.753 0 0 0-1.571-.022c-.572.333-.85.976-.85 1.967 0 .946.254 1.581.772 1.917.381.218.831.281 1.257.177zM34.004 75.224c-.968-.157-1.557-.683-1.703-1.52a2.937 2.937 0 0 1 .032-.993c.062-.231.172-.446.324-.63.431-.511 1.006-.714 2.56-.898a4.103 4.103 0 0 0 1.045-.207.585.585 0 0 0 .43-.705.776.776 0 0 0-.16-.462 1.094 1.094 0 0 0-.877-.329 1.582 1.582 0 0 0-.978.21.97.97 0 0 0-.376.676l-.015.118h-1.817l.011-.09c.024-.198.065-.393.125-.583a2.357 2.357 0 0 1 1.754-1.4c.41-.101.833-.146 1.255-.13a4.03 4.03 0 0 1 1.982.365 1.56 1.56 0 0 1 .886 1.16c.015.082.026.901.032 2.236.005 1.341.017 2.178.033 2.3.017.221.065.439.142.647l.051.116h-1.825l-.023-.058a2.937 2.937 0 0 1-.106-.516c0-.038-.006-.072-.015-.072a.958.958 0 0 0-.133.104c-.4.35-.894.572-1.421.64-.403.052-.81.059-1.213.02zm1.491-1.172c.21-.016.412-.08.592-.19.276-.176.474-.452.552-.77.047-.234.065-.472.053-.71a4.719 4.719 0 0 0-.004-.544.296.296 0 0 0-.077.043 2.467 2.467 0 0 1-1.04.28c-.856.124-1.17.253-1.366.558a.93.93 0 0 0 .135 1.125c.348.205.758.279 1.155.208zM17.695 75.155c-.748-.023-1.238-.172-1.53-.464a1.367 1.367 0 0 1-.331-.563c-.036-.12-.04-.284-.046-2.305l-.008-2.177h-1.116v-1.204h1.118v-1.999h1.805v2h1.957v-2h1.805v2l1.378.004 1.38.006.555 2.053c.305 1.128.58 2.147.61 2.264a.508.508 0 0 0 .08.202c.013-.004.27-1.021.575-2.264l.552-2.255.881-.006.882-.005.567 2.257c.32 1.277.578 2.257.591 2.257.013 0 .153-.477.31-1.058.157-.58.434-1.597.61-2.252l.324-1.193.935-.006c.307-.028.616-.02.922.021-.007.015-.48 1.516-1.051 3.334l-1.04 3.304-.935-.005-.935-.006-.593-2.242c-.335-1.27-.602-2.237-.615-2.233-.013.004-.129.431-.26.952l-.567 2.24-.33 1.294h-1.874l-.75-2.372c-.415-1.303-.804-2.53-.866-2.728l-.116-.36h-1.225l.006 1.823c.007 1.703.01 1.83.048 1.94.082.242.256.326.68.33.141.002.283-.003.425-.015l.176-.015v.699c0 .651-.002.698-.036.698-.022 0-.12.011-.221.022-.48.031-.963.029-1.443-.009a1.973 1.973 0 0 1-.722-.197 1.238 1.238 0 0 1-.664-.793c-.036-.12-.04-.284-.046-2.305l-.008-2.177h-1.956l.006 1.822c.007 1.703.009 1.83.048 1.94.081.242.255.326.679.33.142.002.284-.003.425-.015l.176-.015V75.1l-.1.015a9.192 9.192 0 0 1-.448.024c-.189.006-.382.015-.43.017-.05.002-.16.002-.248 0h.004zM40.81 75.046c-.04-.105-2.255-6.582-2.255-6.595 0-.006.425-.01.946-.01h.943l.052.167c1.103 3.57 1.359 4.39 1.378 4.39.013 0 .34-1.024.724-2.275l.701-2.272.897-.006a3.34 3.34 0 0 1 .89.024c-.005.017-.51 1.515-1.125 3.332l-1.117 3.303h-2.01l-.025-.058zM45.239 75.071a1.197 1.197 0 1 1 1.505-1.165 1.212 1.212 0 0 1-1.505 1.165zm.505-.232a.96.96 0 0 0 .683-1.068.95.95 0 0 0-.52-.725.601.601 0 0 0-.387-.08.637.637 0 0 0-.383.073.983.983 0 0 0-.28 1.54c.12.125.271.217.437.265.149.03.302.029.45-.004z" fill="#fff"/><path d="M45.04 73.899v-.668l.35.008c.328.007.356.01.47.067.065.024.12.07.155.13a.533.533 0 0 1-.006.392.334.334 0 0 1-.235.138.081.081 0 0 0-.055.017c.029.083.07.16.12.232.072.116.148.245.172.284l.043.069H45.8l-.16-.284-.164-.288-.09-.006-.089-.007v.583h-.258v-.667zm.588-.103c.131-.022.19-.084.18-.191-.011-.123-.088-.164-.32-.173l-.192-.008v.391l.114-.002c.073-.001.146-.007.218-.017z" fill="#fff"/></svg>