<svg width="81" height="81" fill="none" xmlns="http://www.w3.org/2000/svg"><path d="m46.659 51.128-6.917 4.028c-.17.099-.34.182-.514.251.037-.098.07-.2.098-.305.385-1.437-.465-2.936-1.935-3.412a.91.91 0 0 0-.11-.028c-1.97-.355-3.922-1.06-5.49-1.628-.55-.198-1.068-.386-1.512-.53-1.856-.602-3.512.131-4.888.928l-4.947 2.863-.372-.657a1.862 1.862 0 0 0-2.535-.702l-1.941 1.098a1.862 1.862 0 0 0-.703 2.535l5.705 10.081a1.862 1.862 0 0 0 2.535.703l1.941-1.098a1.862 1.862 0 0 0 .703-2.535l-.477-.843.895-.517 8.767 2.35a5.849 5.849 0 0 0 1.514.204 5.427 5.427 0 0 0 2.873-.826l12.552-7.73c1.244-.765 1.643-2.69.837-4.036-.388-.65-1.976-2.585-6.08-.194zM24.246 63.789l-1.94 1.098a.178.178 0 0 1-.241-.067l-5.706-10.08a.178.178 0 0 1 .067-.24l1.94-1.099a.18.18 0 0 1 .241.066l5.706 10.082a.18.18 0 0 1-.067.24zm26.773-9.864-12.551 7.729c-.94.578-1.973.722-3.069.429l-9.104-2.44a.84.84 0 0 0-.639.085l-1.184.684-3.199-5.651 4.961-2.872c1.515-.878 2.536-1.104 3.526-.784.417.135.9.31 1.458.512 1.612.583 3.614 1.306 5.7 1.69.599.217.934.794.782 1.36-.161.601-.614.864-1.345.782-1.006-.208-1.966-.481-2.982-.772-.487-.139-.99-.282-1.507-.421a.842.842 0 1 0-.436 1.626 87.71 87.71 0 0 1 1.481.414c1.06.303 2.062.589 3.144.81a.13.13 0 0 0 .016.002l.017.004.86.14c1.341.214 2.532.004 3.641-.641l6.916-4.028c1.841-1.073 3.294-1.224 3.79-.396.334.556.192 1.45-.276 1.738zM18.817 55.15a.693.693 0 1 1-1.37.2.693.693 0 0 1 1.37-.2zm13.111-13.573v2.159c0 .348.215.66.54.785l.923.355c.147.489.342.961.584 1.411l-.402.905a.841.841 0 0 0 .175.936l1.526 1.527a.842.842 0 0 0 .937.174l.905-.402c.45.242.922.438 1.41.585l.356.924c.125.325.437.539.785.539h2.16c.348 0 .66-.215.785-.54l.355-.922c.489-.147.96-.343 1.411-.585l.904.401c.319.142.69.072.937-.174l1.527-1.527a.841.841 0 0 0 .174-.936l-.402-.905c.242-.45.438-.922.585-1.41l.923-.356a.842.842 0 0 0 .54-.785v-2.16a.842.842 0 0 0-.54-.785l-.923-.355a7.592 7.592 0 0 0-.584-1.411l.401-.905a.841.841 0 0 0-.174-.936l-1.527-1.527a.841.841 0 0 0-.937-.174l-.905.402a7.656 7.656 0 0 0-1.41-.585l-.355-.924a.842.842 0 0 0-.786-.539h-2.159a.842.842 0 0 0-.785.54l-.356.923a7.58 7.58 0 0 0-1.41.585l-.905-.402a.841.841 0 0 0-.937.174l-1.526 1.527a.842.842 0 0 0-.175.936l.402.905c-.241.45-.437.922-.584 1.41l-.923.355a.843.843 0 0 0-.54.787zm1.684.578.782-.302c.26-.1.452-.32.516-.59.148-.618.39-1.206.725-1.747a.844.844 0 0 0 .052-.784l-.34-.767.709-.71.767.342a.842.842 0 0 0 .783-.053 5.954 5.954 0 0 1 1.747-.724.841.841 0 0 0 .59-.517l.302-.782h1.003l.3.782c.1.26.322.453.591.517a5.96 5.96 0 0 1 1.748.724c.236.146.53.165.782.053l.767-.341.71.71-.34.766a.843.843 0 0 0 .052.783 5.95 5.95 0 0 1 .725 1.747c.064.27.257.491.516.59l.783.302v1.003l-.783.301a.841.841 0 0 0-.516.59 5.962 5.962 0 0 1-.725 1.748.842.842 0 0 0-.052.783l.34.767-.709.71-.767-.341a.843.843 0 0 0-.783.052 5.962 5.962 0 0 1-1.747.725.841.841 0 0 0-.59.517l-.302.782h-1.003l-.3-.783a.841.841 0 0 0-.592-.516 5.945 5.945 0 0 1-1.747-.725.842.842 0 0 0-.782-.052l-.767.34-.71-.709.34-.766a.844.844 0 0 0-.051-.784 5.962 5.962 0 0 1-.725-1.747.841.841 0 0 0-.516-.59l-.782-.301v-1.004zm7.135 5.108a4.612 4.612 0 0 0 4.607-4.607 4.613 4.613 0 0 0-4.607-4.607 4.612 4.612 0 0 0-4.607 4.607 4.613 4.613 0 0 0 4.607 4.607zm0-7.53a2.927 2.927 0 0 1 2.924 2.923 2.927 2.927 0 0 1-2.924 2.924 2.927 2.927 0 0 1-2.924-2.924 2.927 2.927 0 0 1 2.924-2.923zM20.545 27.278a5.899 5.899 0 0 0 5.892-5.892 5.899 5.899 0 0 0-5.892-5.892 5.898 5.898 0 0 0-5.892 5.891 5.9 5.9 0 0 0 5.892 5.893zm0-10.101a4.214 4.214 0 0 1 4.21 4.209 4.214 4.214 0 0 1-4.21 4.209 4.214 4.214 0 0 1-4.209-4.21 4.214 4.214 0 0 1 4.21-4.208zm-2.97 4.945a.842.842 0 1 1 1.191-1.19l.818.817 2.77-2.514a.841.841 0 1 1 1.131 1.247l-3.364 3.053a.84.84 0 0 1-1.16-.028l-1.385-1.385zm23.172 4.068a5.899 5.899 0 0 0 5.892-5.892 5.899 5.899 0 0 0-5.892-5.892 5.898 5.898 0 0 0-5.892 5.892 5.899 5.899 0 0 0 5.892 5.892zm0-10.101a4.214 4.214 0 0 1 4.209 4.209 4.213 4.213 0 0 1-4.209 4.209 4.213 4.213 0 0 1-4.209-4.21 4.214 4.214 0 0 1 4.209-4.208zm-2.97 4.946a.842.842 0 1 1 1.191-1.191l.818.818 2.77-2.514a.842.842 0 0 1 1.131 1.247l-3.364 3.053a.84.84 0 0 1-1.16-.028l-1.385-1.386zm23.172-6.63a5.899 5.899 0 0 0-5.892 5.893 5.9 5.9 0 0 0 5.892 5.892 5.899 5.899 0 0 0 5.892-5.892 5.899 5.899 0 0 0-5.892-5.892zm0 10.102a4.214 4.214 0 0 1-4.21-4.21 4.213 4.213 0 0 1 4.21-4.208 4.214 4.214 0 0 1 4.209 4.209 4.214 4.214 0 0 1-4.21 4.209zm2.94-5.112-3.364 3.053a.84.84 0 0 1-1.16-.028l-1.386-1.385a.842.842 0 1 1 1.191-1.19l.818.818 2.77-2.514a.842.842 0 0 1 1.13 1.246zm-8.704 8.49a.838.838 0 0 1 .22.71l-.299 2.013a.842.842 0 0 1-1.646.093l-3.08 2.961a.84.84 0 0 1-1.19-.023.841.841 0 0 1 .024-1.19l3.099-2.98a.843.843 0 0 1 .145-1.65l2.027-.194a.847.847 0 0 1 .687.246l.012.011c0 .002 0 .003.002.004zm-29.135-.013a.84.84 0 0 1 .687-.246l2.027.194a.842.842 0 0 1 .145 1.65l3.099 2.98a.841.841 0 1 1-1.167 1.213l-3.08-2.961a.842.842 0 0 1-1.646-.093l-.297-2.013a.876.876 0 0 1-.01-.16.837.837 0 0 1 .228-.55l.003-.001a.08.08 0 0 1 .01-.013zm13.964 4.213.032-1.818a.842.842 0 0 1-1.287-1.085l1.52-1.84a.841.841 0 0 1 1.325.034l1.423 1.916a.842.842 0 0 1-1.3 1.068l-.03 1.754a.842.842 0 0 1-.84.827h-.015a.842.842 0 0 1-.828-.856z" fill="#2B2B2B"/></svg>