<svg width="247" height="155" fill="none" xmlns="http://www.w3.org/2000/svg"><path d="M132.386 77.585c-.23 1.248-.46 12.413-.46 19.554v16.04c1.378 0 8.155.001 13.668-.227v4.87c-.803 0-17.861-.567-19.297-.567.46-3.004.46-15.137.46-16.494v-7.538c0-.907-.115-14.566-.23-15.643l5.859.005zM149.555 115.788c2.756-4.817 17.689-32.08 18.837-33.95h.115c4.422 6.857 16.827 28.561 20.215 33.61l-4.65 2.778c-.92-1.814-6.318-11.336-6.835-12.186l-17.746.681c-.69 1.529-4.71 9.919-5.514 11.561l-4.422-2.494zm25.902-13.205c-.575-1.077-6.605-11.96-7.122-12.753-.746 1.135-6.431 12.526-6.891 13.32l14.013-.567zM197.107 94.076c0-1.416-.115-9.521-.287-10.543 2.756 0 6.202 0 8.271.17 10.51.79 12.175 4.704 12.175 7.37 0 1.871-1.321 5.499-6.948 7.652v.113c3.853.51 8.557 3.06 8.557 7.371 0 6.461-7.811 11.335-21.019 11.335h-1.034c.287-2.664.287-17.174.287-18.137l-.002-5.331zm4.824 4.08c5.686-.056 10.28-3.23 10.28-6.461 0-4.307-6.604-4.87-10.28-4.817v11.278zm0 15.7c5.801-.395 11.601-2.494 11.601-7.371 0-3.74-5.112-5.554-11.601-5.265v12.636zM228.866 114.2c5.284-1.02 12.004-3.117 12.004-6.976 0-2.494-1.781-3.685-5.571-5.498-4.479-2.153-7.752-4.194-7.752-7.707 0-5.385 7.982-10.089 15.392-11.392l1.091 3.967c-3.389.51-11.2 2.438-11.2 6.631 0 2.607 3.733 3.91 5.973 5.157 3.963 2.153 7.409 3.685 7.409 7.708 0 4.988-5.801 10.032-16.023 12.072l-1.323-3.962z" fill="#fff"/><path d="M67.548 18.47a5.242 5.242 0 0 1-.898 2.932 5.318 5.318 0 0 1-2.392 1.944c-.973.4-2.045.503-3.078.3A5.345 5.345 0 0 1 58.45 22.2a5.263 5.263 0 0 1-1.458-2.702 5.232 5.232 0 0 1 .303-3.05 5.288 5.288 0 0 1 1.963-2.368 5.365 5.365 0 0 1 5-.488 5.329 5.329 0 0 1 1.729 1.144c.495.49.887 1.072 1.155 1.713.267.64.405 1.326.405 2.02z" fill="url(#a)"/><path d="M72.745 24.885c0 .543-.163 1.075-.468 1.526a2.77 2.77 0 0 1-1.245 1.013 2.8 2.8 0 0 1-3.024-.596 2.724 2.724 0 0 1-.601-2.995c.21-.502.565-.931 1.021-1.233a2.793 2.793 0 0 1 3.504.341c.52.516.813 1.215.813 1.944z" fill="url(#b)"/><path d="M66.06 29.946c-.001.617-.186 1.22-.532 1.734a3.144 3.144 0 0 1-1.415 1.148 3.178 3.178 0 0 1-3.433-.677 3.093 3.093 0 0 1-.682-3.4 3.128 3.128 0 0 1 1.16-1.401 3.173 3.173 0 0 1 3.979.389 3.117 3.117 0 0 1 .922 2.207z" fill="url(#c)"/><path d="M62.913 7.677c0 .386-.116.762-.333 1.083-.216.32-.524.57-.883.717a1.985 1.985 0 0 1-2.145-.423 1.943 1.943 0 0 1-.425-2.125c.148-.356.4-.66.724-.874a1.982 1.982 0 0 1 2.486.243 1.946 1.946 0 0 1 .576 1.38z" fill="url(#d)"/><path d="M54.903 17.692a.768.768 0 0 1-.483.715.79.79 0 0 1-.851-.168.772.772 0 0 1-.17-.843.776.776 0 0 1 .722-.478c.207 0 .406.081.553.227a.77.77 0 0 1 .229.547z" fill="url(#e)"/><path d="M71.531 17.692a.768.768 0 0 1-.482.715.79.79 0 0 1-.851-.168.772.772 0 0 1-.17-.843.777.777 0 0 1 .722-.478c.207 0 .406.081.553.227a.77.77 0 0 1 .228.547z" fill="url(#f)"/><path d="M68.324 9.625a.769.769 0 0 1-.482.715.789.789 0 0 1-.852-.167.772.772 0 0 1 .553-1.321c.207 0 .406.081.553.226a.77.77 0 0 1 .228.547z" fill="url(#g)"/><path d="M57.27 26.144c0 .284-.085.562-.244.798a1.463 1.463 0 0 1-2.23.216 1.432 1.432 0 0 1-.314-1.565c.11-.262.295-.486.534-.644a1.46 1.46 0 0 1 1.83.179 1.437 1.437 0 0 1 .425 1.016z" fill="url(#h)"/><path d="M63.74 47.372c0 .851-.255 1.684-.732 2.392a4.338 4.338 0 0 1-1.951 1.586 4.385 4.385 0 0 1-2.512.244 4.36 4.36 0 0 1-2.225-1.178 4.293 4.293 0 0 1-1.19-2.204 4.267 4.267 0 0 1 .248-2.488 4.315 4.315 0 0 1 1.6-1.932 4.377 4.377 0 0 1 5.49.536 4.284 4.284 0 0 1 1.272 3.044z" fill="url(#i)"/><path d="M42.678 47.372c0 .851-.255 1.684-.733 2.392a4.338 4.338 0 0 1-1.95 1.586 4.385 4.385 0 0 1-4.737-.934 4.293 4.293 0 0 1-1.19-2.204 4.267 4.267 0 0 1 .247-2.488 4.315 4.315 0 0 1 1.601-1.932 4.376 4.376 0 0 1 5.489.536 4.284 4.284 0 0 1 1.273 3.044z" fill="url(#j)"/><path d="M33.783 61.887c0 .852-.255 1.684-.732 2.392a4.337 4.337 0 0 1-1.951 1.586 4.386 4.386 0 0 1-2.512.245 4.36 4.36 0 0 1-2.225-1.178 4.292 4.292 0 0 1-1.19-2.205 4.267 4.267 0 0 1 .248-2.487 4.315 4.315 0 0 1 1.6-1.932 4.376 4.376 0 0 1 5.49.535 4.285 4.285 0 0 1 1.272 3.044z" fill="url(#k)"/><path d="M22.087 55.215a5.243 5.243 0 0 1-.898 2.933 5.318 5.318 0 0 1-2.391 1.944c-.974.4-2.045.504-3.08.3a5.345 5.345 0 0 1-2.728-1.444 5.263 5.263 0 0 1-1.458-2.703 5.232 5.232 0 0 1 .303-3.05 5.29 5.29 0 0 1 1.963-2.368 5.365 5.365 0 0 1 6.729.656c.495.49.887 1.072 1.155 1.713.268.64.405 1.326.405 2.02z" fill="url(#l)"/><path d="M32.59 49.937a3.1 3.1 0 0 1-.53 1.734 3.146 3.146 0 0 1-1.414 1.149 3.18 3.18 0 0 1-3.434-.676 3.093 3.093 0 0 1-.684-3.4 3.127 3.127 0 0 1 1.16-1.4 3.173 3.173 0 0 1 3.979.386c.59.586.923 1.38.923 2.207z" fill="url(#m)"/><path d="M58.59 39.455c0 .486-.146.961-.419 1.366-.273.404-.66.72-1.114.905a2.504 2.504 0 0 1-2.705-.533 2.437 2.437 0 0 1-.538-2.68c.188-.448.506-.832.914-1.103a2.499 2.499 0 0 1 3.135.306c.465.461.727 1.087.727 1.739z" fill="url(#n)"/><path d="M48.577 46.816c0 .386-.116.763-.332 1.083-.216.32-.524.571-.883.718a1.985 1.985 0 0 1-2.145-.422 1.933 1.933 0 0 1-.427-2.124c.15-.357.402-.661.725-.875a1.981 1.981 0 0 1 2.912.874c.1.237.15.49.15.746z" fill="url(#o)"/><path d="M40.3 55.22c0 .385-.116.761-.332 1.082a1.985 1.985 0 0 1-3.028.295 1.932 1.932 0 0 1-.427-2.124c.15-.356.401-.66.725-.875a1.981 1.981 0 0 1 2.485.243c.369.365.576.861.576 1.378z" fill="url(#p)"/><path d="M53.353 53.78c0 .284-.085.562-.245.798-.159.236-.385.42-.65.529a1.462 1.462 0 0 1-1.58-.312 1.43 1.43 0 0 1-.315-1.565 1.44 1.44 0 0 1 .534-.644 1.458 1.458 0 0 1 1.831.178c.272.27.425.635.425 1.016z" fill="url(#q)"/><path d="M68.993 39.288c0 .284-.085.561-.244.797-.16.236-.386.42-.65.53a1.463 1.463 0 0 1-1.58-.312 1.433 1.433 0 0 1-.315-1.565 1.44 1.44 0 0 1 .534-.645 1.46 1.46 0 0 1 2.145.645c.073.174.11.361.11.55z" fill="url(#r)"/><path d="M35.114 34.62c0 .284-.085.561-.244.797-.16.236-.386.42-.65.53a1.463 1.463 0 0 1-1.58-.312 1.431 1.431 0 0 1-.315-1.565c.11-.262.296-.487.534-.644a1.46 1.46 0 0 1 1.83.178c.273.27.425.635.425 1.016z" fill="url(#s)"/><path d="M67.548 49.94c0 .284-.085.561-.244.797-.16.237-.386.42-.651.53a1.463 1.463 0 0 1-1.58-.312 1.431 1.431 0 0 1-.314-1.565c.11-.262.295-.486.534-.644a1.46 1.46 0 0 1 1.83.178c.272.27.425.635.425 1.016z" fill="url(#t)"/><path d="M26.54 55.215c0 .284-.085.561-.245.797-.16.236-.386.42-.65.528a1.462 1.462 0 0 1-1.58-.312 1.432 1.432 0 0 1-.314-1.564 1.44 1.44 0 0 1 .534-.645 1.46 1.46 0 0 1 1.831.18 1.434 1.434 0 0 1 .424 1.016z" fill="url(#u)"/><path d="M46.61 51.68a.767.767 0 0 1-.483.715.788.788 0 0 1-.852-.168.772.772 0 0 1-.168-.844.776.776 0 0 1 .723-.477c.207 0 .405.082.551.227a.77.77 0 0 1 .229.547z" fill="url(#v)"/><path d="M37.145 39.458a.769.769 0 0 1-.483.715.788.788 0 0 1-.852-.169.772.772 0 0 1 .555-1.32c.207 0 .405.082.551.227a.77.77 0 0 1 .229.547z" fill="url(#w)"/><path d="M22.29 47.115a.77.77 0 0 1-.484.714.788.788 0 0 1-.852-.169.771.771 0 0 1 .555-1.32.787.787 0 0 1 .721.479c.04.094.06.195.06.296z" fill="url(#x)"/><path d="M46.602 36.332a3.1 3.1 0 0 1-.53 1.733 3.145 3.145 0 0 1-1.415 1.15 3.178 3.178 0 0 1-3.433-.677 3.093 3.093 0 0 1-.683-3.401 3.127 3.127 0 0 1 1.16-1.4 3.173 3.173 0 0 1 3.978.388c.591.585.923 1.38.923 2.207z" fill="url(#y)"/><path d="M52.155 31.898c0 .386-.116.763-.332 1.083-.216.32-.523.57-.883.718a1.985 1.985 0 0 1-2.145-.422 1.93 1.93 0 0 1-.427-2.124c.15-.357.402-.661.725-.875a1.981 1.981 0 0 1 2.485.242c.37.366.577.861.577 1.378z" fill="url(#z)"/><path d="M57.668 33.844a.769.769 0 0 1-.482.715.788.788 0 0 1-.852-.167.772.772 0 0 1 .553-1.322c.207 0 .406.082.552.227a.77.77 0 0 1 .23.547z" fill="url(#A)"/><path d="M73.524 30.45a.77.77 0 0 1-.483.715.79.79 0 0 1-.852-.168.772.772 0 0 1 .555-1.321.786.786 0 0 1 .72.478c.04.093.06.194.06.296z" fill="url(#B)"/><path d="M63.692 39.948a.77.77 0 0 1-.482.716.788.788 0 0 1-.852-.167.771.771 0 0 1 .552-1.321c.207 0 .406.081.552.226a.77.77 0 0 1 .23.546z" fill="url(#C)"/><path d="M33.664 55.88a.768.768 0 0 1-.482.715.79.79 0 0 1-.852-.168.77.77 0 0 1 .553-1.322c.207 0 .406.082.552.227a.77.77 0 0 1 .23.548z" fill="url(#D)"/><path d="M61.348 55.106a.768.768 0 0 1-.482.715.788.788 0 0 1-.852-.168.773.773 0 0 1-.17-.843.775.775 0 0 1 .722-.478c.208 0 .406.081.553.227a.77.77 0 0 1 .229.547z" fill="url(#E)"/><path d="M37.926 61.114a.768.768 0 0 1-.482.715.788.788 0 0 1-.852-.168.772.772 0 0 1 .553-1.321.79.79 0 0 1 .552.226.772.772 0 0 1 .229.548z" fill="url(#F)"/><path d="M63.692 1.402a.768.768 0 0 1-.482.716.788.788 0 0 1-.852-.167.772.772 0 0 1 .552-1.322c.207 0 .406.081.552.226a.77.77 0 0 1 .23.547z" fill="url(#G)"/><path d="M69.106 34.622a.768.768 0 0 1-.483.715.788.788 0 0 1-.852-.169.772.772 0 0 1-.168-.843.776.776 0 0 1 .723-.477c.207 0 .405.082.551.227a.77.77 0 0 1 .229.547z" fill="url(#H)"/><path d="M50.14 40.723a.77.77 0 0 1-.482.715.788.788 0 0 1-.851-.167.772.772 0 0 1-.17-.844.775.775 0 0 1 .722-.478.79.79 0 0 1 .553.227.773.773 0 0 1 .229.547z" fill="url(#I)"/><path d="M73.003 43.509a2.582 2.582 0 0 0-.675-.193c-.046-.012-.088-.027-.133-.039l.008.025a2.393 2.393 0 0 0-.258-.025c-.68 0-1.331.268-1.812.744a2.525 2.525 0 0 0-.75 1.794c0 .673.27 1.318.75 1.794s1.133.744 1.812.744c.319-.002.634-.062.93-.18-.043.693-.144 1.381-.301 2.058a1.488 1.488 0 0 0-1.615.388 1.455 1.455 0 0 0-.224 1.63 1.462 1.462 0 0 0 .87.738 15.8 15.8 0 0 1-.611 1.158.782.782 0 0 0-1.25.496.765.765 0 0 0 .422.802h.013a.742.742 0 0 0 .203.065c9.284 2.778 17.409 8.463 23.154 16.203a44.121 44.121 0 0 1 8.711 26.722 44.143 44.143 0 0 1-9.216 26.555 44.85 44.85 0 0 1-23.457 15.77 45.238 45.238 0 0 1-28.318-1.321C32.21 135.975 24.54 129.7 19.4 121.554a44.075 44.075 0 0 1-6.655-27.296A44.197 44.197 0 0 1 23.95 68.466c.165-.134.307-.293.42-.472.03-.032.057-.068.089-.1h-.032a1.93 1.93 0 0 0-.463-2.408 1.97 1.97 0 0 0-1.672-.417 1.972 1.972 0 0 0-1.36 1.05 1.93 1.93 0 0 0-.2.853c0 .055.014.108.018.16-.372-.088-.74-.181-1.106-.277a1.419 1.419 0 0 0-.317-.791 1.454 1.454 0 0 0-2.271.042 50.79 50.79 0 0 1-1.944-.658c0-.056.017-.11.017-.165.002-.4-.121-.792-.352-1.12a1.958 1.958 0 0 0-.94-.715 1.978 1.978 0 0 0-2.179.589l-.027-.012A56.285 56.285 0 0 0 .21 97.52a56.273 56.273 0 0 0 10.86 33.681c7.155 9.791 17.285 17.058 28.91 20.738a57.705 57.705 0 0 0 35.694-.285c11.562-3.865 21.573-11.293 28.568-21.198a56.25 56.25 0 0 0 10.31-33.849 56.303 56.303 0 0 0-11.968-33.31c-7.475-9.553-17.84-16.488-29.58-19.789z" fill="url(#J)"/><path d="M43.18 117.354c0-1.474.345-8.616.345-16.267v-14.68c-1.665 1.927-6.088 6.122-7.753 7.821l-2.584-3.06c1.09-.964 13.898-12.753 15.563-14.623h.173c0 1.87-.46 9.408-.46 17.06v8.728c0 8.161-.057 13.262.114 15.019l-5.398.002z" fill="url(#K)"/><path d="M71.127 80.115a33.286 33.286 0 0 0-11.428 12.412c9.591-.34 16.884 4.76 16.884 11.903a13.862 13.862 0 0 1-4.055 9.687 14.131 14.131 0 0 1-9.728 4.142 10.718 10.718 0 0 1-4.385-.701 10.656 10.656 0 0 1-3.713-2.416c-2.297-2.379-3.503-5.497-3.503-10.032 0-11.222 9.132-23.464 16.943-28.905l2.985 3.91zM63.2 114.123c4.767 0 7.984-4.023 7.984-8.555 0-6.292-6.547-9.578-13.267-9.125a19.483 19.483 0 0 0-1.55 8.331c0 5.778 2.87 9.349 6.833 9.349z" fill="url(#L)"/><defs><linearGradient id="t" x1="66.098" y1="51.376" x2="66.098" y2="48.504" gradientUnits="userSpaceOnUse"><stop stop-color="#087BBA"/><stop offset="1" stop-color="#089FE8"/></linearGradient><linearGradient id="a" x1="62.219" y1="23.747" x2="62.219" y2="13.191" gradientUnits="userSpaceOnUse"><stop stop-color="#087BBA"/><stop offset="1" stop-color="#089FE8"/></linearGradient><linearGradient id="c" x1="62.908" y1="33.066" x2="62.908" y2="26.824" gradientUnits="userSpaceOnUse"><stop stop-color="#087BBA"/><stop offset="1" stop-color="#089FE8"/></linearGradient><linearGradient id="d" x1="60.945" y1="9.625" x2="60.945" y2="5.727" gradientUnits="userSpaceOnUse"><stop stop-color="#087BBA"/><stop offset="1" stop-color="#089FE8"/></linearGradient><linearGradient id="e" x1="54.121" y1="18.466" x2="54.121" y2="16.918" gradientUnits="userSpaceOnUse"><stop stop-color="#087BBA"/><stop offset="1" stop-color="#089FE8"/></linearGradient><linearGradient id="f" x1="70.75" y1="18.466" x2="70.75" y2="16.918" gradientUnits="userSpaceOnUse"><stop stop-color="#087BBA"/><stop offset="1" stop-color="#089FE8"/></linearGradient><linearGradient id="g" x1="67.543" y1="10.399" x2="67.543" y2="8.852" gradientUnits="userSpaceOnUse"><stop stop-color="#087BBA"/><stop offset="1" stop-color="#089FE8"/></linearGradient><linearGradient id="h" x1="55.821" y1="27.579" x2="55.821" y2="24.707" gradientUnits="userSpaceOnUse"><stop stop-color="#087BBA"/><stop offset="1" stop-color="#089FE8"/></linearGradient><linearGradient id="i" x1="59.394" y1="51.677" x2="59.394" y2="43.066" gradientUnits="userSpaceOnUse"><stop stop-color="#087BBA"/><stop offset="1" stop-color="#089FE8"/></linearGradient><linearGradient id="j" x1="38.331" y1="51.677" x2="38.331" y2="43.066" gradientUnits="userSpaceOnUse"><stop stop-color="#087BBA"/><stop offset="1" stop-color="#089FE8"/></linearGradient><linearGradient id="k" x1="29.436" y1="66.193" x2="29.436" y2="57.582" gradientUnits="userSpaceOnUse"><stop stop-color="#087BBA"/><stop offset="1" stop-color="#089FE8"/></linearGradient><linearGradient id="l" x1="16.758" y1="60.494" x2="16.758" y2="49.938" gradientUnits="userSpaceOnUse"><stop stop-color="#087BBA"/><stop offset="1" stop-color="#089FE8"/></linearGradient><linearGradient id="m" x1="29.44" y1="53.058" x2="29.44" y2="46.816" gradientUnits="userSpaceOnUse"><stop stop-color="#087BBA"/><stop offset="1" stop-color="#089FE8"/></linearGradient><linearGradient id="n" x1="56.107" y1="41.913" x2="56.107" y2="36.996" gradientUnits="userSpaceOnUse"><stop stop-color="#087BBA"/><stop offset="1" stop-color="#089FE8"/></linearGradient><linearGradient id="o" x1="46.609" y1="48.766" x2="46.609" y2="44.867" gradientUnits="userSpaceOnUse"><stop stop-color="#087BBA"/><stop offset="1" stop-color="#089FE8"/></linearGradient><linearGradient id="p" x1="38.331" y1="57.168" x2="38.331" y2="53.27" gradientUnits="userSpaceOnUse"><stop stop-color="#087BBA"/><stop offset="1" stop-color="#089FE8"/></linearGradient><linearGradient id="q" x1="51.903" y1="55.216" x2="51.903" y2="52.344" gradientUnits="userSpaceOnUse"><stop stop-color="#087BBA"/><stop offset="1" stop-color="#089FE8"/></linearGradient><linearGradient id="r" x1="67.543" y1="40.724" x2="67.543" y2="37.852" gradientUnits="userSpaceOnUse"><stop stop-color="#087BBA"/><stop offset="1" stop-color="#089FE8"/></linearGradient><linearGradient id="s" x1="33.665" y1="36.056" x2="33.665" y2="33.184" gradientUnits="userSpaceOnUse"><stop stop-color="#087BBA"/><stop offset="1" stop-color="#089FE8"/></linearGradient><linearGradient id="b" x1="69.97" y1="27.633" x2="69.97" y2="22.137" gradientUnits="userSpaceOnUse"><stop stop-color="#087BBA"/><stop offset="1" stop-color="#089FE8"/></linearGradient><linearGradient id="u" x1="25.09" y1="56.649" x2="25.09" y2="53.777" gradientUnits="userSpaceOnUse"><stop stop-color="#087BBA"/><stop offset="1" stop-color="#089FE8"/></linearGradient><linearGradient id="v" x1="45.828" y1="52.454" x2="45.828" y2="50.906" gradientUnits="userSpaceOnUse"><stop stop-color="#087BBA"/><stop offset="1" stop-color="#089FE8"/></linearGradient><linearGradient id="w" x1="36.363" y1="40.231" x2="36.363" y2="38.684" gradientUnits="userSpaceOnUse"><stop stop-color="#087BBA"/><stop offset="1" stop-color="#089FE8"/></linearGradient><linearGradient id="x" x1="21.508" y1="47.888" x2="21.508" y2="46.34" gradientUnits="userSpaceOnUse"><stop stop-color="#087BBA"/><stop offset="1" stop-color="#089FE8"/></linearGradient><linearGradient id="y" x1="43.452" y1="39.453" x2="43.452" y2="33.211" gradientUnits="userSpaceOnUse"><stop stop-color="#087BBA"/><stop offset="1" stop-color="#089FE8"/></linearGradient><linearGradient id="z" x1="50.187" y1="33.848" x2="50.187" y2="29.949" gradientUnits="userSpaceOnUse"><stop stop-color="#087BBA"/><stop offset="1" stop-color="#089FE8"/></linearGradient><linearGradient id="A" x1="56.887" y1="34.618" x2="56.887" y2="33.07" gradientUnits="userSpaceOnUse"><stop stop-color="#087BBA"/><stop offset="1" stop-color="#089FE8"/></linearGradient><linearGradient id="B" x1="72.742" y1="31.224" x2="72.742" y2="29.676" gradientUnits="userSpaceOnUse"><stop stop-color="#087BBA"/><stop offset="1" stop-color="#089FE8"/></linearGradient><linearGradient id="C" x1="62.91" y1="40.724" x2="62.91" y2="39.176" gradientUnits="userSpaceOnUse"><stop stop-color="#087BBA"/><stop offset="1" stop-color="#089FE8"/></linearGradient><linearGradient id="D" x1="32.883" y1="56.654" x2="32.883" y2="55.105" gradientUnits="userSpaceOnUse"><stop stop-color="#087BBA"/><stop offset="1" stop-color="#089FE8"/></linearGradient><linearGradient id="E" x1="60.566" y1="55.88" x2="60.566" y2="54.332" gradientUnits="userSpaceOnUse"><stop stop-color="#087BBA"/><stop offset="1" stop-color="#089FE8"/></linearGradient><linearGradient id="F" x1="37.145" y1="61.888" x2="37.145" y2="60.34" gradientUnits="userSpaceOnUse"><stop stop-color="#087BBA"/><stop offset="1" stop-color="#089FE8"/></linearGradient><linearGradient id="G" x1="62.91" y1="2.177" x2="62.91" y2=".629" gradientUnits="userSpaceOnUse"><stop stop-color="#087BBA"/><stop offset="1" stop-color="#089FE8"/></linearGradient><linearGradient id="H" x1="68.324" y1="35.396" x2="68.324" y2="33.848" gradientUnits="userSpaceOnUse"><stop stop-color="#087BBA"/><stop offset="1" stop-color="#089FE8"/></linearGradient><linearGradient id="I" x1="49.359" y1="41.497" x2="49.359" y2="39.949" gradientUnits="userSpaceOnUse"><stop stop-color="#087BBA"/><stop offset="1" stop-color="#089FE8"/></linearGradient><linearGradient id="J" x1="57.387" y1="154.629" x2="57.387" y2="43.277" gradientUnits="userSpaceOnUse"><stop stop-color="#087BBA"/><stop offset="1" stop-color="#089FE8"/></linearGradient><linearGradient id="K" x1="41.056" y1="117.354" x2="41.056" y2="76.545" gradientUnits="userSpaceOnUse"><stop stop-color="#087BBA"/><stop offset="1" stop-color="#089FE8"/></linearGradient><linearGradient id="L" x1="63.891" y1="118.272" x2="63.891" y2="76.205" gradientUnits="userSpaceOnUse"><stop stop-color="#087BBA"/><stop offset="1" stop-color="#089FE8"/></linearGradient></defs></svg>