<svg width="88" height="31" fill="none" xmlns="http://www.w3.org/2000/svg"><g clip-path="url(#a)"><path d="M13.742 15.312h3.735v5.246c-1.165.375-2.637.58-4.167.58-6.2 0-9.844-5.31-9.844-10.495 0-5.086 3.296-8.653 7.894-8.653 2.91 0 4.604.986 6.119 2.359V6.06l2.84-2.84C18.522 2.004 15.92.85 12.203.85 4.04.85.309 6.69.309 11.489c0 6.831 4.975 10.946 11.228 10.946 3.032 0 5.724-.463 8.833-1.328v-5.42c0-.278.122-.468.304-.635l.981-.982h-6.663l-1.25 1.242z" fill="url(#b)"/><path d="M30.477 8.18c-4.699 0-7.61 3.433-7.61 7.077 0 3.146 2.345 6.88 7.097 6.88 4.571 0 7.375-3.44 7.375-7.148 0-3.454-2.74-6.808-6.862-6.808V8.18zm-.78 1c3.313 0 4.788 4.316 4.788 7.395 0 4.577-3.434 4.668-3.845 4.668-1.571 0-2.67-.95-3.492-2.196-.724-1.148-1.431-3.28-1.431-5.365 0-2.076.68-3.09 1.749-3.836a4.099 4.099 0 0 1 2.23-.665h.001z" fill="url(#c)"/><path d="M61.19 8.18c-4.103 0-6.323 2.598-6.323 5.498 0 2.209 1.582 4.7 4.846 4.7h.825s-.225.546-.226 1.074c0 .778.28 1.215.873 1.888-5.616.342-7.873 2.607-7.873 5.042 0 2.132 2.042 4.23 6.332 4.23 5.079 0 7.71-2.82 7.71-5.587 0-1.95-.973-3.02-3.434-4.864-.724-.563-.864-.921-.864-1.342 0-.603.36-1.002.493-1.153.233-.246.637-.527.788-.661.826-.7 1.995-1.737 1.995-3.807 0-1.42-.591-2.64-1.936-3.784h1.642l1.234-1.234H61.19zm-1.132.923c.745 0 1.366.263 2.023.81.728.656 1.892 2.42 1.892 4.603 0 2.355-1.83 3-2.821 3a2.815 2.815 0 0 1-1.558-.472c-1.092-.708-2.177-2.595-2.177-4.839 0-2.025 1.206-3.102 2.641-3.102zm1.625 13.131c.313 0 .538.026.538.026s.74.528 1.255.922c1.202.95 1.95 1.676 1.95 2.97 0 1.777-1.648 3.171-4.32 3.171-2.931 0-5.172-1.365-5.172-3.594 0-1.846 1.535-3.436 5.75-3.495z" fill="url(#d)"/><path d="M68.161 21.732h5.633l.859-.859-1.616-.201a.795.795 0 0 1-.694-.794V2.863c0-.336.156-.507.27-.616l1.016-1.016h-4.805l-1.25 1.25h1.868v17.626c0 .25-.08.42-.249.596l-1.032 1.029z" fill="url(#e)"/><path d="M81.428 8.18c-3.145 0-6.487 2.397-6.487 6.701 0 3.555 2.398 7.256 6.877 7.256 1.117 0 2.037-.144 2.898-.54a6.545 6.545 0 0 0 2.464-1.985c-1.226.619-2.226 1.024-3.554 1.024-2.524 0-4.957-1.82-5.808-5.168l8.915-3.603c-.515-1.836-1.967-3.685-5.304-3.685zm-.582.985c1.688 0 2.908 1.388 2.908 2.475 0 .351-.22.537-.657.708l-5.48 2.217s-.148-.69-.148-1.436c0-3.128 2.261-3.964 3.377-3.964z" fill="url(#f)"/><path d="M46.418 8.18c-4.698 0-7.61 3.433-7.61 7.077 0 3.146 2.346 6.88 7.098 6.88 4.57 0 7.375-3.44 7.375-7.148 0-3.454-2.74-6.808-6.863-6.808V8.18zm-.78 1c3.313 0 4.788 4.316 4.788 7.395 0 4.577-3.434 4.668-3.844 4.668-1.572 0-2.67-.95-3.492-2.196-.724-1.148-1.432-3.28-1.432-5.365 0-2.076.68-3.09 1.75-3.836a4.099 4.099 0 0 1 2.23-.665z" fill="url(#g)"/></g><defs><linearGradient id="b" x1="10.929" y1=".789" x2="10.929" y2="22.434" gradientUnits="userSpaceOnUse"><stop stop-color="#196EEF"/><stop offset=".5" stop-color="#186DEE"/><stop offset="1" stop-color="#1065E7"/></linearGradient><linearGradient id="c" x1="30.051" y1="8.147" x2="30.051" y2="22.143" gradientUnits="userSpaceOnUse"><stop stop-color="#DE5744"/><stop offset=".5" stop-color="#DB4632"/><stop offset="1" stop-color="#D13D29"/></linearGradient><linearGradient id="d" x1="60.281" y1="8.148" x2="60.281" y2="30.62" gradientUnits="userSpaceOnUse"><stop stop-color="#1A6FEF"/><stop offset=".25" stop-color="#1E72EF"/><stop offset=".5" stop-color="#166BEC"/><stop offset=".75" stop-color="#1267E9"/><stop offset="1" stop-color="#1063E5" stop-opacity=".87"/></linearGradient><linearGradient id="e" x1="71.062" y1="1.182" x2="71.062" y2="21.751" gradientUnits="userSpaceOnUse"><stop stop-color="#0AA561"/><stop offset=".5" stop-color="#009B58"/><stop offset="1" stop-color="#00914B"/></linearGradient><linearGradient id="f" x1="81.01" y1="8.147" x2="81.01" y2="22.104" gradientUnits="userSpaceOnUse"><stop stop-color="#DE5644"/><stop offset=".5" stop-color="#DA4531"/><stop offset="1" stop-color="#CE3A28"/></linearGradient><linearGradient id="g" x1="45.992" y1="8.177" x2="45.992" y2="22.115" gradientUnits="userSpaceOnUse"><stop stop-color="#FFC01A"/><stop offset=".5" stop-color="#FFBA03"/><stop offset="1" stop-color="#FFB300"/></linearGradient><clipPath id="a"><path fill="#fff" transform="translate(.309 .842)" d="M0 0h86.869v29.779H0z"/></clipPath></defs></svg>