<svg width="81" height="81" viewBox="0 0 81 81" fill="none" xmlns="http://www.w3.org/2000/svg">
<path d="M39.1707 15.4848C30.504 16.4697 23.5115 23.4621 22.5267 32.1288C21.8373 38.4318 24.2994 44.6364 29.1252 48.6743C31.1934 50.447 32.3752 53.0076 32.4737 55.7652C31.6858 56.4546 31.2919 57.3409 31.2919 58.4243C31.2919 60.0985 32.4737 61.4773 33.951 61.7728C33.6555 62.2652 33.557 62.8561 33.557 63.447C33.557 65.1213 34.7388 66.5985 36.4131 66.894V67.091C36.4131 69.8485 38.6782 72.0152 41.3373 72.0152H41.4358C44.1934 72.0152 46.3601 69.75 46.3601 67.091V66.894C47.9358 66.5985 49.2161 65.1213 49.2161 63.447C49.2161 62.8561 49.0192 62.2652 48.8222 61.7728C50.2995 61.3788 51.4813 60 51.4813 58.3258C51.4813 57.2425 50.9889 56.3561 50.2995 55.6667C50.2995 52.9091 51.5798 50.3485 53.648 48.5758C57.8828 45.0303 60.3449 39.7121 60.3449 34.197C60.148 23.2651 50.6934 14.2045 39.1707 15.4848ZM44.3904 67.091C44.3904 68.7652 43.0116 70.0455 41.4358 70.0455H41.3373C39.6631 70.0455 38.3828 68.6667 38.3828 67.091V66.9925H44.4888V67.091H44.3904ZM45.6707 64.9243C45.4737 64.9243 36.5116 64.9243 37.004 64.9243C36.1176 64.9243 35.5267 64.2349 35.5267 63.3485C35.5267 62.4622 36.2161 61.8713 37.004 61.8713H45.6707C46.557 61.8713 47.1479 62.5606 47.1479 63.447C47.1479 64.3334 46.4585 64.9243 45.6707 64.9243ZM47.8373 59.9016C41.5343 59.9016 40.5494 59.9016 34.6403 59.9016C33.754 59.9016 33.1631 59.2122 33.1631 58.3258C33.1631 57.4394 33.8525 56.8485 34.6403 56.8485H47.8373C48.6252 56.8485 49.3146 57.5379 49.3146 58.4243C49.4131 59.2122 48.7237 59.9016 47.8373 59.9016ZM52.1707 47.0985C49.9055 49.0682 48.4282 51.8258 48.2313 54.7803C43.1101 54.7803 47.5419 54.7803 34.3449 54.7803C34.0494 51.8258 32.6706 49.0682 30.307 47.0985C25.9737 43.4546 23.807 37.9394 24.3979 32.3258C25.2843 24.5454 31.4888 18.3409 39.2691 17.4545C49.6101 16.2727 58.0798 24.447 58.0798 34.2955C58.1783 39.2197 56.0116 43.947 52.1707 47.0985Z" fill="#2B2B2B"/>
<path d="M40.7467 13.5151C41.3376 13.5151 41.7315 13.1212 41.7315 12.5303V9.96965C41.7315 9.37874 41.3376 8.9848 40.7467 8.9848C40.1558 8.9848 39.7618 9.37874 39.7618 9.96965V12.5303C39.7618 13.1212 40.1558 13.5151 40.7467 13.5151Z" fill="#2B2B2B"/>
<path d="M28.5346 16.0757C28.8301 16.5682 29.421 16.6667 29.9134 16.4697C30.4058 16.1742 30.5043 15.5833 30.3074 15.0909L28.9286 12.8257C28.6331 12.3333 28.0422 12.2348 27.5498 12.4318C27.0574 12.7273 26.9589 13.3182 27.1558 13.8106L28.5346 16.0757Z" fill="#2B2B2B"/>
<path d="M21.5423 23.0682L19.2771 21.7879C18.7847 21.4924 18.1938 21.6894 17.8983 22.1818C17.6029 22.6742 17.7999 23.2651 18.2923 23.5606L20.5574 24.8409C21.0499 25.1364 21.6408 24.9394 21.9362 24.447C22.1332 23.9545 22.0347 23.3636 21.5423 23.0682Z" fill="#2B2B2B"/>
<path d="M18.9813 35.2803C18.9813 34.6894 18.5874 34.2955 17.9964 34.2955H15.4358C14.8449 34.2955 14.451 34.6894 14.451 35.2803C14.451 35.8712 14.8449 36.2652 15.4358 36.2652H17.9964C18.4889 36.2652 18.9813 35.8712 18.9813 35.2803Z" fill="#2B2B2B"/>
<path d="M20.557 45.8182L18.2918 47.0985C17.7994 47.3939 17.7009 47.9848 17.8979 48.4773C18.1934 48.9697 18.7843 49.0682 19.2767 48.8712L21.5419 47.5909C22.0343 47.2954 22.1328 46.7045 21.9358 46.2121C21.6403 45.7197 21.0494 45.6212 20.557 45.8182Z" fill="#2B2B2B"/>
<path d="M63.2012 47.197L60.9361 45.9167C60.4436 45.6212 59.8527 45.8182 59.5573 46.3106C59.2618 46.8031 59.4588 47.394 59.9512 47.6894L62.2164 48.9697C62.7088 49.2652 63.2997 49.0682 63.5952 48.5758C63.7921 47.9849 63.6936 47.394 63.2012 47.197Z" fill="#2B2B2B"/>
<path d="M66.0569 34.2955H63.4963C62.9054 34.2955 62.5115 34.6894 62.5115 35.2803C62.5115 35.8712 62.9054 36.2652 63.4963 36.2652H66.0569C66.6478 36.2652 67.0418 35.8712 67.0418 35.2803C67.0418 34.6894 66.6478 34.2955 66.0569 34.2955Z" fill="#2B2B2B"/>
<path d="M60.9356 24.8409L63.2008 23.5606C63.6932 23.2651 63.7917 22.6742 63.5947 22.1818C63.2993 21.6894 62.7084 21.5909 62.2159 21.7879L59.9508 23.0682C59.4584 23.3636 59.3599 23.9545 59.5568 24.447C59.8523 24.9394 60.4432 25.0379 60.9356 24.8409Z" fill="#2B2B2B"/>
<path d="M51.6781 16.4697C52.1705 16.7651 52.7614 16.5682 53.0569 16.0757L54.3372 13.8106C54.6326 13.3182 54.4357 12.7273 53.9432 12.4318C53.4508 12.1363 52.8599 12.3333 52.5644 12.8257L51.2841 15.0909C50.9887 15.5833 51.1857 16.1742 51.6781 16.4697Z" fill="#2B2B2B"/>
<path d="M51.7184 42.7741L51.3165 42.8545V43.2644C51.3165 45.1865 49.3728 46.6257 47.6198 46.2084L47.2 46.1084L47.0397 46.5091C46.8543 46.9726 46.6889 47.2927 46.3663 47.6153L46.3602 47.6214L46.3544 47.6277C45.1719 48.8947 43.0567 48.9759 41.7921 47.6269L41.4297 47.2404L41.0648 47.6245C39.4575 49.3164 36.6791 48.7209 35.9211 46.5312L35.7746 46.1079L35.3378 46.2072C33.4878 46.6276 31.6362 45.191 31.6362 43.2644V42.8545L31.2342 42.7741C29.5515 42.4375 28.4449 40.7461 28.7842 39.05L28.8433 38.7541L28.6092 38.5638C27.2626 37.4698 27.0859 35.5319 28.1919 34.1706L28.4425 33.8621L28.1985 33.5484C27.6356 32.8246 27.5306 31.8241 27.7961 30.8506C28.0444 29.9404 28.7063 29.2695 29.5577 28.929L29.984 28.7585L29.8503 28.3192C29.2632 26.3899 30.7819 24.3582 32.8024 24.3582H33.2173L33.2938 23.9504C33.5446 22.6127 34.7226 21.599 36.0679 21.515L36.2829 21.5015L36.4208 21.336C37.6801 19.8249 39.7775 19.8892 41.0625 21.2599L41.4273 21.649L41.7921 21.2599C43.0545 19.9133 45.1608 19.9934 46.3436 21.3452L46.4815 21.5028L46.6905 21.5151C48.1226 21.5993 49.2102 22.603 49.4628 23.9504L49.5393 24.3582H49.9542C51.9514 24.3582 53.4134 26.3737 52.9008 28.3385L52.7876 28.7724L53.2066 28.932C54.9584 29.5993 55.7299 31.8733 54.5432 33.5686L54.3195 33.8881L54.575 34.1828C55.6613 35.4362 55.4999 37.4649 54.1475 38.5638L53.8747 38.7854L53.9908 39.1171C54.5597 40.7424 53.4331 42.4312 51.7184 42.7741Z" stroke="#2B2B2B"/>
<path d="M51.2297 37.928C51.4797 37.928 51.7273 37.9046 51.9682 37.8567C51.955 37.889 51.9428 37.9221 51.9315 37.956L51.9058 38.033V38.1141V38.1247C51.9058 38.2643 51.9058 38.4306 51.9201 38.5882C51.9344 38.7452 51.966 38.9384 52.0545 39.1175C52.2848 39.599 52.2196 39.9147 52.0872 40.1243C51.9368 40.3625 51.6374 40.5596 51.2555 40.6551C50.8738 40.7505 50.4899 40.7235 50.2275 40.6058C49.992 40.5002 49.8675 40.3371 49.8675 40.0743C49.8675 39.6667 49.7294 39.2881 49.4515 39.0102C49.1736 38.7323 48.7951 38.5942 48.3874 38.5942C47.9797 38.5942 47.6012 38.7323 47.3233 39.0102C47.0454 39.2881 46.9073 39.6667 46.9073 40.0743C46.9073 41.5502 47.8629 42.802 49.2078 43.352C49.1164 43.6422 48.9114 43.8812 48.6533 44.0197C48.3177 44.1998 47.9082 44.2034 47.5434 43.9143C47.0585 43.4515 46.3147 43.4688 45.8558 43.7747C45.4057 44.0748 45.1431 44.6332 45.1431 45.1709V45.1936L45.1451 45.2161C45.181 45.6101 45.0541 45.8769 44.8716 46.0547C44.6778 46.2434 44.3898 46.3605 44.0774 46.3743C43.7653 46.3881 43.4701 46.2969 43.2614 46.1234C43.0644 45.9595 42.9087 45.6937 42.9087 45.2689V42.5246C42.9087 41.6399 43.6494 40.9664 44.467 40.9664C44.8746 40.9664 45.2532 40.8283 45.5311 40.5504C45.809 40.2725 45.9471 39.8939 45.9471 39.4863C45.9471 39.0786 45.809 38.7 45.5311 38.4221C45.2532 38.1442 44.8746 38.0061 44.467 38.0061C43.9106 38.0061 43.3895 38.0955 42.9087 38.2779V36.1339C43.4609 35.8467 44.1444 35.9504 44.6035 36.4094C44.8994 36.7053 45.3234 36.8499 45.6431 36.8499C45.9628 36.8499 46.3868 36.7053 46.6827 36.4094C47.27 35.8221 47.27 34.9175 46.6827 34.3302C45.6279 33.2753 44.1702 32.892 42.8107 33.0869V31.3903C43.0283 31.4307 43.2561 31.4593 43.4869 31.4593C44.6951 31.4593 45.8032 31.0163 46.6827 30.1367C47.2171 29.6023 47.2653 28.8052 46.8271 28.2235C46.8568 28.2244 46.8868 28.225 46.9172 28.225C48.1272 28.225 49.3805 27.508 50.1583 26.3262C50.8491 26.3105 51.4325 27.0744 51.1761 27.7836C49.6104 28.2105 48.4755 29.6198 48.4755 31.2533C48.4755 31.661 48.6135 32.0396 48.8914 32.3175C49.1693 32.5954 49.5479 32.7335 49.9556 32.7335C50.3632 32.7335 50.7418 32.5954 51.0197 32.3175C51.2976 32.0396 51.4357 31.661 51.4357 31.2533C51.4357 31.012 51.4921 30.8859 51.5389 30.8227C51.5828 30.7633 51.6476 30.7188 51.7526 30.6956C51.9893 30.6433 52.3711 30.72 52.7385 30.9528C53.1036 31.1842 53.3324 31.4922 53.3784 31.7641C53.4155 31.983 53.3563 32.3166 52.8085 32.7036C52.3116 33.0391 52.1999 33.6425 52.1999 33.9976V33.9982V33.9988V33.9994V33.9999V34.0005V34.0011V34.0016V34.0022V34.0027V34.0033V34.0038V34.0044V34.0049V34.0055V34.006V34.0066V34.0071V34.0076V34.0082V34.0087V34.0092V34.0097V34.0103V34.0108V34.0113V34.0118V34.0123V34.0129V34.0134V34.0139V34.0144V34.0149V34.0154V34.0159V34.0164V34.0169V34.0174V34.0179V34.0184V34.0189V34.0194V34.0198V34.0203V34.0208V34.0213V34.0218V34.0222V34.0227V34.0232V34.0236V34.0241V34.0246V34.025V34.0255V34.026V34.0264V34.0269V34.0273V34.0278V34.0282V34.0287V34.0291V34.0296V34.03V34.0304V34.0309V34.0313V34.0317V34.0322V34.0326V34.033V34.0335V34.0339V34.0343V34.0347V34.0351V34.0356V34.036V34.0364V34.0368V34.0372V34.0376V34.038V34.0384V34.0388V34.0392V34.0396V34.04V34.0404V34.0408V34.0412V34.0416V34.0419V34.0423V34.0427V34.0431V34.0435V34.0438V34.0442V34.0446V34.045V34.0453V34.0457V34.0461V34.0464V34.0468V34.0471V34.0475V34.0479V34.0482V34.0486V34.0489V34.0493V34.0496V34.05V34.0503V34.0507V34.051V34.0513V34.0517V34.052V34.0523V34.0527V34.053V34.0533V34.0537V34.054V34.0543V34.0546V34.055V34.0553V34.0556V34.0559V34.0562V34.0565V34.0568V34.0571V34.0575V34.0578V34.0581V34.0584V34.0587V34.059V34.0593V34.0596V34.0599V34.0601V34.0604V34.0607V34.061V34.0613V34.0616V34.0619V34.0621C52.1191 34.6138 51.7204 34.9678 51.2297 34.9678C50.8221 34.9678 50.4435 35.1059 50.1656 35.3838C49.8877 35.6617 49.7496 36.0403 49.7496 36.4479C49.7496 36.8556 49.8877 37.2341 50.1656 37.512C50.4435 37.79 50.8221 37.928 51.2297 37.928ZM44.8848 26.0691C44.6694 26.6078 44.7725 27.2698 45.192 27.6903C44.979 27.7612 44.7773 27.8836 44.6035 28.0575C44.1444 28.5165 43.4609 28.6202 42.9087 28.333V23.3145C42.9087 22.2442 44.3911 21.7685 45.0101 22.7741C45.3397 23.4091 45.9805 23.5204 46.4272 23.5204H46.4521L46.4769 23.518C47.1313 23.4525 47.7117 23.9453 47.6985 24.6473C47.545 24.9214 47.3563 25.1103 47.1841 25.2151C46.9894 25.3336 46.8631 25.3222 46.8089 25.3005C46.109 25.0206 45.2011 25.2784 44.8848 26.0691Z" stroke="#2B2B2B"/>
<path d="M37.8261 23.0038L37.8327 22.9939L37.8388 22.9837C38.1532 22.4597 38.6698 22.3339 39.0944 22.4588C39.5214 22.5844 39.8193 22.9442 39.7562 23.4485L39.7524 23.4794V23.5105V28.529C39.2002 28.8163 38.5167 28.7126 38.0576 28.2535C37.9001 28.096 37.7197 27.9807 37.5288 27.9077C38.0606 27.5024 38.2095 26.76 37.9723 26.1671C37.656 25.3764 36.7481 25.1186 36.0482 25.3985L36.0395 25.402L36.0309 25.4058C35.7555 25.5282 35.5961 25.4664 35.4881 25.3735C35.3494 25.2542 35.2319 25.0195 35.2138 24.7289C35.196 24.444 35.2786 24.1763 35.4444 23.9957C35.5982 23.8282 35.8787 23.6755 36.3916 23.715L36.4107 23.7165H36.4299C36.9676 23.7165 37.526 23.4539 37.8261 23.0038ZM39.1742 31.6553C39.405 31.6553 39.6328 31.6267 39.8504 31.5863V33.2829C38.4909 33.088 37.0332 33.4713 35.9784 34.5262C35.3911 35.1135 35.3911 36.0181 35.9784 36.6054C36.5657 37.1928 37.4703 37.1928 38.0576 36.6054C38.5167 36.1464 39.2002 36.0427 39.7524 36.3299V38.474C39.2716 38.2915 38.7505 38.2022 38.1941 38.2022C37.7865 38.2022 37.4079 38.3402 37.13 38.6181C36.8521 38.896 36.714 39.2746 36.714 39.6823C36.714 40.0899 36.8521 40.4685 37.13 40.7464C37.4079 41.0243 37.7865 41.1624 38.1941 41.1624C39.0788 41.1624 39.7524 41.903 39.7524 42.7206V45.4649C39.7524 45.8902 39.5961 46.1651 39.3943 46.3377C39.1822 46.5193 38.8854 46.6159 38.5764 46.6068C38.2672 46.5977 37.9836 46.4841 37.7924 46.2948C37.6116 46.1159 37.479 45.8367 37.5161 45.4102L37.518 45.3886V45.3669C37.518 44.8292 37.2554 44.2709 36.8053 43.9708L36.7794 43.9535L36.7516 43.9396C36.621 43.8743 36.4995 43.8302 36.3651 43.8078C36.2498 43.7886 36.139 43.7887 36.0527 43.7888L36.0379 43.7888C35.7202 43.7888 35.4286 43.9357 35.2563 44.0225C35.2458 44.0277 35.2358 44.0328 35.2262 44.0376L35.1764 44.0625L35.1332 44.0978C34.7774 44.389 34.3677 44.3808 34.016 44.1835C33.7556 44.0374 33.5571 43.803 33.4626 43.5442C34.8026 42.9923 35.7538 41.7428 35.7538 40.2703C35.7538 39.8627 35.6157 39.4841 35.3378 39.2062C35.0599 38.9283 34.6814 38.7902 34.2737 38.7902C33.8661 38.7902 33.4875 38.9283 33.2096 39.2062C32.9317 39.4841 32.7936 39.8627 32.7936 40.2703C32.7936 40.5294 32.6666 40.7023 32.4157 40.8175C32.1419 40.9432 31.7471 40.9762 31.3614 40.8861C30.9744 40.7956 30.6796 40.6019 30.5363 40.3677C30.4123 40.1651 30.3481 39.8452 30.5922 39.3426C30.7089 39.1613 30.7923 38.9698 30.814 38.7519C30.8365 38.5272 30.7878 38.3265 30.7296 38.152C30.6836 38.014 30.6219 37.8893 30.5489 37.7784C30.8938 37.8769 31.2554 37.928 31.6274 37.928C32.0351 37.928 32.4136 37.79 32.6915 37.512C32.9695 37.2341 33.1075 36.8556 33.1075 36.4479C33.1075 36.0403 32.9695 35.6617 32.6915 35.3838C32.4136 35.1059 32.0351 34.9678 31.6274 34.9678C31.1363 34.9678 30.7372 34.6131 30.657 34.0605C30.651 33.6016 30.5243 33.1346 30.0713 32.8171C29.8075 32.5856 29.6782 32.3568 29.6232 32.1525C29.5672 31.9443 29.5797 31.7297 29.6486 31.5182C29.8626 30.9582 30.3377 30.7319 30.7498 30.7483C30.9596 30.7567 31.132 30.8274 31.2442 30.9266C31.3478 31.0181 31.4214 31.1511 31.4214 31.3514C31.4214 31.759 31.5595 32.1376 31.8374 32.4155C32.1153 32.6934 32.4939 32.8315 32.9016 32.8315C33.3092 32.8315 33.6878 32.6934 33.9657 32.4155C34.2436 32.1376 34.3817 31.759 34.3817 31.3514C34.3817 29.6044 33.1396 28.2981 31.6752 27.8831C31.5632 27.5799 31.6245 27.2183 31.841 26.9091C32.0581 26.5989 32.3785 26.4168 32.7118 26.4256C33.0964 26.9723 33.5992 27.5487 34.2287 27.8694C34.7961 28.2055 35.3641 28.3193 35.913 28.3229C35.392 28.9102 35.4137 29.7681 35.9784 30.3328C36.8624 31.2167 38.0705 31.6553 39.1742 31.6553Z" stroke="#2B2B2B"/>
</svg>
