<svg width="32" height="40" viewBox="0 0 32 40" fill="none" xmlns="http://www.w3.org/2000/svg">
<path d="M26.2759 21.3462C26.2815 23.0053 26.7723 24.6265 27.6879 26.0101C28.6035 27.3936 29.904 28.479 31.4289 29.1326C30.8123 31.0758 29.9172 32.9192 28.7714 34.6054C27.1682 36.9494 25.5104 39.2846 22.8938 39.3351C20.3229 39.3824 19.4964 37.8072 16.5568 37.8072C13.6172 37.8072 12.7001 39.2846 10.2655 39.3832C7.7403 39.4794 5.81636 36.8484 4.20345 34.5132C0.907086 29.733 -1.61328 21.0111 1.76805 15.1231C2.56052 13.6993 3.70962 12.5061 5.10255 11.6606C6.49547 10.8151 8.08434 10.3463 9.71315 10.3004C12.1934 10.2531 14.5342 11.9726 16.0461 11.9726C17.558 11.9726 20.4055 9.90436 23.3964 10.209C24.7824 10.2585 26.138 10.629 27.3566 11.2912C28.5751 11.9535 29.6234 12.8895 30.4188 14.0256C29.1659 14.7963 28.1288 15.872 27.4043 17.1522C26.6798 18.4324 26.2916 19.8753 26.2759 21.3462ZM21.4436 7.0481C22.8931 5.34348 23.6108 3.1354 23.4405 0.904297C21.2518 1.11766 19.2279 2.16128 17.7849 3.82068C17.0638 4.62569 16.5119 5.56743 16.162 6.58994C15.8121 7.61246 15.6713 8.69488 15.7479 9.77289C16.8424 9.787 17.9253 9.54841 18.9125 9.07567C19.8997 8.60294 20.7645 7.90881 21.4396 7.0473" fill="#FAFAFA"/>
</svg>
