<svg width="48" height="47" viewBox="0 0 48 47" fill="none" xmlns="http://www.w3.org/2000/svg">
<circle cx="23.8494" cy="23.4109" r="23.283" fill="url(#paint0_linear_1956_244)"/>
<path d="M18.512 32.7578V20.149H14.3215V32.7578H18.512ZM16.4177 18.4263C16.7179 18.4516 17.02 18.4146 17.3052 18.3175C17.5904 18.2205 17.8524 18.0655 18.0748 17.8623C18.2972 17.6592 18.4752 17.4122 18.5976 17.137C18.72 16.8617 18.7841 16.5641 18.786 16.2629C18.7879 15.9617 18.7275 15.6633 18.6086 15.3866C18.4896 15.1098 18.3147 14.8606 18.0949 14.6547C17.8751 14.4488 17.615 14.2905 17.3311 14.1899C17.0471 14.0893 16.7455 14.0485 16.445 14.07C16.1459 14.0443 15.8446 14.0806 15.5601 14.1766C15.2756 14.2726 15.014 14.4262 14.7915 14.6279C14.5691 14.8295 14.3906 15.0749 14.2672 15.3486C14.1438 15.6223 14.0782 15.9186 14.0744 16.2188C14.0706 16.519 14.1288 16.8168 14.2453 17.0935C14.3618 17.3703 14.5341 17.62 14.7514 17.8272C14.9688 18.0343 15.2265 18.1945 15.5085 18.2975C15.7905 18.4006 16.0907 18.4445 16.3904 18.4263H16.4177ZM20.832 32.7578H25.0225V25.7166C25.0063 25.3703 25.053 25.024 25.1603 24.6944C25.3173 24.2488 25.6081 23.8625 25.993 23.5883C26.3779 23.3142 26.838 23.1656 27.3105 23.1628C28.8267 23.1628 29.4334 24.3188 29.4334 26.0142V32.7598H33.6239V25.5281C33.6239 21.6552 31.5562 19.8533 28.7988 19.8533C28.0304 19.8225 27.2685 20.0046 26.5971 20.3794C25.9256 20.7543 25.3708 21.3073 24.9938 21.9775H25.0218V20.149H20.8326C20.8872 21.3323 20.8326 32.7578 20.8326 32.7578H20.832Z" fill="white"/>
<defs>
<linearGradient id="paint0_linear_1956_244" x1="0.566406" y1="0.12793" x2="47.1323" y2="46.6939" gradientUnits="userSpaceOnUse">
<stop stop-color="#089DE5"/>
<stop offset="1" stop-color="#087DBD"/>
</linearGradient>
</defs>
</svg>
