<svg width="124" height="78" viewBox="0 0 124 78" fill="none" xmlns="http://www.w3.org/2000/svg">
<path d="M66.2905 39.3356C66.1756 39.9595 66.0606 45.5422 66.0606 49.1124V57.1328C66.7496 57.1328 70.1383 57.1329 72.895 57.019V59.454C72.493 59.454 63.9643 59.1704 63.2461 59.1704C63.476 57.6686 63.476 51.6022 63.476 50.9237V47.1546C63.476 46.7012 63.4189 39.8713 63.3611 39.333L66.2905 39.3356Z" fill="#212121"/>
<path d="M74.875 58.4361C76.253 56.0275 83.7199 42.3961 84.294 41.4609H84.3511C86.5623 44.8897 92.7648 55.7418 94.4591 58.2663L92.1336 59.655C91.6738 58.7481 88.9749 53.9873 88.7164 53.5622L79.843 53.9025C79.4981 54.6672 77.4882 58.862 77.0862 59.6833L74.875 58.4361ZM87.826 51.8334C87.539 51.295 84.5239 45.8538 84.2654 45.457C83.892 46.0243 81.0496 51.7201 80.8197 52.117L87.826 51.8334Z" fill="#212121"/>
<path d="M98.6514 47.582C98.6514 46.8739 98.5935 42.8212 98.5078 42.3105C99.8858 42.3105 101.609 42.3105 102.643 42.3954C107.898 42.7902 108.731 44.7475 108.731 46.0809C108.731 47.016 108.07 48.8298 105.257 49.9064V49.963C107.183 50.2177 109.535 51.4932 109.535 53.6485C109.535 56.8791 105.63 59.316 99.0254 59.316H98.5085C98.6521 57.984 98.652 50.7291 98.652 50.2474L98.6514 47.582ZM101.063 49.622C103.906 49.5937 106.203 48.0071 106.203 46.3914C106.203 44.2381 102.901 43.9565 101.063 43.9828V49.622ZM101.063 57.4719C103.963 57.2745 106.864 56.2249 106.864 53.7866C106.864 51.9163 104.308 51.0094 101.063 51.1542V57.4719Z" fill="#212121"/>
<path d="M114.531 57.6432C117.173 57.1331 120.533 56.0847 120.533 54.1552C120.533 52.9081 119.642 52.3125 117.747 51.4062C115.508 50.3296 113.871 49.3089 113.871 47.5524C113.871 44.8601 117.862 42.508 121.567 41.8564L122.113 43.8399C120.418 44.0946 116.513 45.0588 116.513 47.1555C116.513 48.4592 118.379 49.1108 119.499 49.734C121.481 50.8106 123.204 51.5767 123.204 53.5878C123.204 56.0821 120.303 58.604 115.192 59.6241L114.531 57.6432Z" fill="#212121"/>
<path d="M33.8717 9.77574C33.8717 10.2977 33.7154 10.8079 33.4227 11.2419C33.1299 11.6758 32.7138 12.0142 32.227 12.2139C31.7401 12.4137 31.2044 12.4658 30.6875 12.364C30.1707 12.2622 29.696 12.0108 29.3234 11.6418C28.9507 11.2727 28.697 10.8024 28.5942 10.2905C28.4914 9.77861 28.5441 9.24798 28.7458 8.76576C28.9475 8.28355 29.289 7.87143 29.7271 7.58146C30.1653 7.29148 30.6804 7.13672 31.2074 7.13672C31.5573 7.13663 31.9038 7.2048 32.2271 7.3374C32.5504 7.46999 32.8441 7.66431 33.0915 7.90939C33.3389 8.15446 33.5352 8.44554 33.6691 8.76576C33.8029 9.08598 33.8718 9.42916 33.8717 9.77574Z" fill="url(#paint0_linear_325_13437)"/>
<path d="M36.47 12.9844C36.47 13.2562 36.3886 13.5218 36.2362 13.7478C36.0837 13.9737 35.8671 14.1499 35.6135 14.2539C35.36 14.3579 35.0811 14.3851 34.812 14.3321C34.5429 14.2791 34.2957 14.1482 34.1016 13.956C33.9076 13.7638 33.7755 13.519 33.722 13.2524C33.6684 12.9859 33.6959 12.7096 33.8009 12.4585C33.9059 12.2074 34.0837 11.9929 34.3119 11.8419C34.54 11.6909 34.8082 11.6104 35.0826 11.6104C35.4506 11.6104 35.8034 11.755 36.0636 12.0127C36.3238 12.2704 36.47 12.62 36.47 12.9844Z" fill="url(#paint1_linear_325_13437)"/>
<path d="M33.1312 15.5152C33.1311 15.8238 33.0386 16.1253 32.8654 16.3818C32.6922 16.6384 32.4461 16.8382 32.1583 16.9562C31.8704 17.0742 31.5537 17.1051 31.2481 17.0448C30.9426 16.9845 30.6619 16.8358 30.4417 16.6175C30.2214 16.3993 30.0714 16.1214 30.0107 15.8187C29.95 15.516 29.9812 15.2022 30.1004 14.9172C30.2197 14.6321 30.4216 14.3884 30.6807 14.217C30.9397 14.0455 31.2443 13.9541 31.5558 13.9541C31.7628 13.9541 31.9677 13.9945 32.1589 14.073C32.35 14.1515 32.5237 14.2664 32.67 14.4114C32.8163 14.5563 32.9323 14.7284 33.0115 14.9178C33.0906 15.1072 33.1313 15.3102 33.1312 15.5152Z" fill="url(#paint2_linear_325_13437)"/>
<path d="M31.554 4.38055C31.5538 4.57329 31.496 4.76165 31.3878 4.92185C31.2796 5.08204 31.1259 5.2068 30.9461 5.28046C30.7663 5.35413 30.5684 5.37342 30.3776 5.33574C30.1868 5.29805 30.0115 5.2052 29.8739 5.06886C29.7364 4.93253 29.6427 4.75886 29.6048 4.56982C29.5669 4.38077 29.5864 4.18472 29.6609 4.00667C29.7354 3.82861 29.8615 3.67655 30.0233 3.56948C30.1851 3.46241 30.3753 3.40527 30.5699 3.40527C30.6992 3.40519 30.8273 3.43035 30.9468 3.47934C31.0662 3.52833 31.1748 3.60019 31.2662 3.69079C31.3576 3.78138 31.4301 3.88894 31.4794 4.00731C31.5288 4.12567 31.5541 4.25247 31.554 4.38055Z" fill="url(#paint3_linear_325_13437)"/>
<path d="M27.5509 9.38901C27.5509 9.46554 27.528 9.54035 27.4851 9.60399C27.4421 9.66762 27.3811 9.71721 27.3098 9.7465C27.2384 9.77579 27.1598 9.78345 27.084 9.76851C27.0082 9.75358 26.9386 9.71675 26.884 9.66263C26.8293 9.60851 26.7921 9.53943 26.777 9.46436C26.762 9.3893 26.7697 9.31158 26.7993 9.24087C26.8288 9.17016 26.8789 9.10971 26.9432 9.06719C27.0074 9.02466 27.083 9.00195 27.1602 9.00195C27.2638 9.00195 27.3632 9.04266 27.4365 9.11523C27.5098 9.1878 27.5509 9.28638 27.5509 9.38901Z" fill="url(#paint4_linear_325_13437)"/>
<path d="M35.8634 9.38901C35.8634 9.46554 35.8405 9.54035 35.7976 9.60399C35.7546 9.66762 35.6936 9.71721 35.6223 9.7465C35.5509 9.77579 35.4723 9.78345 35.3965 9.76851C35.3207 9.75358 35.2511 9.71675 35.1965 9.66263C35.1418 9.60851 35.1046 9.53943 35.0895 9.46436C35.0745 9.3893 35.0822 9.31158 35.1118 9.24087C35.1413 9.17016 35.1914 9.10971 35.2557 9.06719C35.3199 9.02466 35.3955 9.00195 35.4727 9.00195C35.5763 9.00195 35.6757 9.04266 35.749 9.11523C35.8223 9.1878 35.8634 9.28638 35.8634 9.38901Z" fill="url(#paint5_linear_325_13437)"/>
<path d="M34.2618 5.35467C34.2618 5.4312 34.2389 5.50601 34.196 5.56965C34.1531 5.63328 34.092 5.68287 34.0206 5.71216C33.9493 5.74145 33.8707 5.74911 33.7949 5.73417C33.7191 5.71924 33.6495 5.68241 33.5949 5.62829C33.5402 5.57417 33.5031 5.50525 33.488 5.43018C33.4729 5.35512 33.4806 5.27724 33.5102 5.20653C33.5398 5.13582 33.5898 5.07537 33.6541 5.03285C33.7183 4.99032 33.7939 4.96777 33.8712 4.96777C33.9748 4.96777 34.0742 5.00848 34.1474 5.08105C34.2207 5.15362 34.2618 5.25204 34.2618 5.35467Z" fill="url(#paint6_linear_325_13437)"/>
<path d="M28.735 13.6142C28.7348 13.7562 28.6922 13.8948 28.6124 14.0128C28.5327 14.1308 28.4195 14.2227 28.287 14.277C28.1545 14.3312 28.0088 14.3454 27.8682 14.3176C27.7276 14.2898 27.5985 14.2214 27.4972 14.1209C27.3959 14.0205 27.327 13.8926 27.299 13.7533C27.2711 13.6141 27.2855 13.4696 27.3404 13.3385C27.3953 13.2073 27.4882 13.0954 27.6074 13.0165C27.7266 12.9376 27.8667 12.8955 28.0101 12.8955C28.1053 12.8955 28.1996 12.914 28.2876 12.9501C28.3756 12.9863 28.4555 13.0392 28.5229 13.106C28.5902 13.1727 28.6436 13.2519 28.68 13.3391C28.7164 13.4263 28.735 13.5198 28.735 13.6142Z" fill="url(#paint7_linear_325_13437)"/>
<path d="M31.9717 24.2279C31.9717 24.6536 31.8442 25.0699 31.6054 25.4239C31.3666 25.7779 31.0272 26.0539 30.6301 26.2168C30.2329 26.3797 29.7959 26.4223 29.3743 26.3392C28.9528 26.2562 28.5655 26.0511 28.2616 25.7501C27.9576 25.449 27.7506 25.0654 27.6668 24.6479C27.5829 24.2303 27.626 23.7975 27.7904 23.4041C27.9549 23.0108 28.2335 22.6745 28.5909 22.438C28.9483 22.2015 29.3685 22.0752 29.7983 22.0752C30.3747 22.0752 30.9276 22.3021 31.3352 22.7058C31.7427 23.1095 31.9717 23.6569 31.9717 24.2279Z" fill="url(#paint8_linear_325_13437)"/>
<path d="M21.4405 24.2279C21.4405 24.6536 21.313 25.0699 21.0742 25.4239C20.8354 25.7779 20.4959 26.0539 20.0988 26.2168C19.7017 26.3797 19.2647 26.4223 18.8431 26.3392C18.4215 26.2562 18.0343 26.0511 17.7303 25.7501C17.4264 25.449 17.2194 25.0654 17.1355 24.6479C17.0517 24.2303 17.0947 23.7975 17.2592 23.4041C17.4237 23.0108 17.7022 22.6745 18.0596 22.438C18.4171 22.2015 18.8372 22.0752 19.2671 22.0752C19.8435 22.0752 20.3963 22.3021 20.8039 22.7058C21.2115 23.1095 21.4405 23.6569 21.4405 24.2279Z" fill="url(#paint9_linear_325_13437)"/>
<path d="M16.9912 31.4847C16.9912 31.9105 16.8638 32.3267 16.625 32.6807C16.3862 33.0347 16.0467 33.3106 15.6496 33.4735C15.2525 33.6364 14.8155 33.6791 14.3939 33.5961C13.9723 33.513 13.585 33.308 13.2811 33.0069C12.9771 32.7058 12.7702 32.3223 12.6863 31.9047C12.6024 31.4871 12.6455 31.0543 12.81 30.6609C12.9745 30.2676 13.253 29.9314 13.6104 29.6948C13.9678 29.4583 14.388 29.332 14.8179 29.332C15.3943 29.332 15.9471 29.5588 16.3547 29.9625C16.7623 30.3662 16.9912 30.9138 16.9912 31.4847Z" fill="url(#paint10_linear_325_13437)"/>
<path d="M11.1451 28.1498C11.1451 28.6717 10.9889 29.1821 10.6961 29.616C10.4034 30.05 9.98722 30.3882 9.50037 30.5879C9.01352 30.7877 8.47781 30.84 7.96098 30.7382C7.44414 30.6363 6.96939 30.385 6.59677 30.016C6.22416 29.6469 5.9704 29.1766 5.8676 28.6647C5.76479 28.1528 5.81757 27.6222 6.01923 27.1399C6.22089 26.6577 6.56237 26.2455 7.00053 25.9555C7.43868 25.6655 7.95381 25.5107 8.48077 25.5107C8.83069 25.5107 9.1772 25.579 9.50049 25.7116C9.82379 25.8442 10.1175 26.0385 10.365 26.2836C10.6124 26.5286 10.8086 26.8196 10.9425 27.1398C11.0764 27.46 11.1452 27.8032 11.1451 28.1498Z" fill="url(#paint11_linear_325_13437)"/>
<path d="M16.3929 25.5114C16.3929 25.82 16.3005 26.1217 16.1275 26.3783C15.9544 26.6349 15.7084 26.8349 15.4206 26.953C15.1327 27.0711 14.816 27.1022 14.5105 27.042C14.2049 26.9818 13.9242 26.8333 13.7038 26.6151C13.4835 26.3969 13.3334 26.119 13.2725 25.8164C13.2117 25.5138 13.2428 25.2 13.3619 24.9149C13.4811 24.6297 13.6829 24.386 13.9418 24.2145C14.2008 24.043 14.5053 23.9513 14.8169 23.9512C15.2348 23.9512 15.6355 24.1155 15.9311 24.4081C16.2266 24.7007 16.3927 25.0976 16.3929 25.5114Z" fill="url(#paint12_linear_325_13437)"/>
<path d="M29.3964 20.2703C29.3964 20.5135 29.3236 20.7512 29.1872 20.9533C29.0508 21.1555 28.857 21.313 28.6302 21.4061C28.4034 21.4991 28.1539 21.5234 27.9131 21.476C27.6723 21.4286 27.4512 21.3115 27.2776 21.1395C27.104 20.9676 26.9858 20.7487 26.9379 20.5102C26.89 20.2717 26.9146 20.0245 27.0086 19.7999C27.1025 19.5752 27.2616 19.3832 27.4657 19.2481C27.6698 19.113 27.9097 19.041 28.1552 19.041C28.4844 19.041 28.8001 19.1705 29.0329 19.4011C29.2656 19.6316 29.3964 19.9443 29.3964 20.2703Z" fill="url(#paint13_linear_325_13437)"/>
<path d="M24.386 23.9502C24.386 24.143 24.3283 24.3314 24.2202 24.4917C24.112 24.652 23.9584 24.777 23.7786 24.8508C23.5987 24.9245 23.4009 24.9438 23.21 24.9062C23.0191 24.8686 22.8438 24.7758 22.7062 24.6395C22.5686 24.5032 22.4748 24.3295 22.4369 24.1405C22.3989 23.9514 22.4184 23.7554 22.4929 23.5773C22.5673 23.3992 22.6935 23.2469 22.8553 23.1398C23.0171 23.0327 23.2074 22.9756 23.402 22.9756C23.5312 22.9755 23.6592 23.0007 23.7787 23.0497C23.8981 23.0986 24.0066 23.1704 24.098 23.2609C24.1894 23.3515 24.2619 23.4588 24.3113 23.5771C24.3607 23.6954 24.3861 23.8222 24.386 23.9502Z" fill="url(#paint14_linear_325_13437)"/>
<path d="M20.2493 28.1506C20.2493 28.3433 20.1916 28.5318 20.0835 28.692C19.9753 28.8523 19.8217 28.9772 19.6419 29.051C19.462 29.1247 19.2642 29.144 19.0733 29.1064C18.8824 29.0688 18.7071 28.976 18.5695 28.8397C18.4319 28.7034 18.3381 28.5297 18.3002 28.3406C18.2622 28.1516 18.2817 27.9556 18.3562 27.7775C18.4306 27.5994 18.5568 27.4472 18.7186 27.3401C18.8804 27.2331 19.0707 27.1758 19.2653 27.1758C19.5262 27.1758 19.7766 27.2785 19.9611 27.4613C20.1456 27.6441 20.2493 27.8921 20.2493 28.1506Z" fill="url(#paint15_linear_325_13437)"/>
<path d="M26.774 27.4329C26.774 27.5749 26.7315 27.7138 26.6518 27.8318C26.5722 27.9499 26.459 28.0419 26.3265 28.0963C26.1941 28.1506 26.0483 28.1648 25.9077 28.1371C25.7671 28.1094 25.6379 28.041 25.5365 27.9406C25.4352 27.8402 25.3661 27.7123 25.3381 27.573C25.3102 27.4337 25.3245 27.2893 25.3794 27.1581C25.4343 27.0269 25.5272 26.9147 25.6464 26.8358C25.7656 26.7569 25.9057 26.7148 26.0491 26.7148C26.2413 26.7148 26.4257 26.7905 26.5617 26.9252C26.6976 27.0598 26.774 27.2425 26.774 27.4329Z" fill="url(#paint16_linear_325_13437)"/>
<path d="M34.5982 20.1858C34.5982 20.3278 34.5557 20.4665 34.4761 20.5846C34.3964 20.7027 34.2832 20.7947 34.1507 20.8491C34.0183 20.9034 33.8725 20.9177 33.7319 20.89C33.5913 20.8623 33.4621 20.7939 33.3608 20.6935C33.2594 20.5931 33.1903 20.465 33.1624 20.3258C33.1344 20.1865 33.1487 20.0423 33.2036 19.9111C33.2585 19.7799 33.3514 19.6677 33.4706 19.5888C33.5898 19.5099 33.7299 19.4678 33.8733 19.4678C33.9685 19.4678 34.0628 19.4863 34.1507 19.5224C34.2387 19.5585 34.3186 19.6114 34.3859 19.6781C34.4532 19.7448 34.5066 19.824 34.543 19.9111C34.5794 19.9982 34.5982 20.0915 34.5982 20.1858Z" fill="url(#paint17_linear_325_13437)"/>
<path d="M17.6568 17.8518C17.6568 17.9938 17.6143 18.1325 17.5347 18.2506C17.455 18.3687 17.3418 18.4607 17.2093 18.5151C17.0769 18.5694 16.9311 18.5838 16.7905 18.556C16.6499 18.5283 16.5207 18.46 16.4194 18.3595C16.318 18.2591 16.2489 18.1312 16.221 17.9919C16.193 17.8527 16.2073 17.7083 16.2622 17.5771C16.3171 17.4459 16.41 17.3337 16.5292 17.2548C16.6484 17.1759 16.7886 17.1338 16.9319 17.1338C17.1242 17.1338 17.3086 17.2095 17.4445 17.3441C17.5804 17.4788 17.6568 17.6614 17.6568 17.8518Z" fill="url(#paint18_linear_325_13437)"/>
<path d="M33.8716 25.5118C33.8716 25.6538 33.8292 25.7927 33.7495 25.9108C33.6698 26.0288 33.5566 26.1209 33.4242 26.1752C33.2917 26.2296 33.146 26.2437 33.0053 26.216C32.8647 26.1883 32.7356 26.12 32.6342 26.0195C32.5328 25.9191 32.4638 25.7912 32.4358 25.6519C32.4078 25.5127 32.4222 25.3683 32.477 25.2371C32.5319 25.1059 32.6248 24.9938 32.744 24.9149C32.8632 24.836 33.0034 24.7939 33.1468 24.7939C33.339 24.7939 33.5234 24.8696 33.6593 25.0043C33.7953 25.1389 33.8716 25.3214 33.8716 25.5118Z" fill="url(#paint19_linear_325_13437)"/>
<path d="M13.3678 28.1513C13.3676 28.2933 13.325 28.4319 13.2453 28.5499C13.1655 28.6679 13.0523 28.7598 12.9198 28.8141C12.7873 28.8683 12.6416 28.8825 12.501 28.8547C12.3605 28.8269 12.2314 28.7585 12.1301 28.6581C12.0287 28.5576 11.9598 28.4297 11.9318 28.2904C11.9039 28.1512 11.9183 28.0069 11.9732 27.8757C12.0281 27.7446 12.121 27.6325 12.2402 27.5536C12.3594 27.4747 12.4995 27.4326 12.6429 27.4326C12.7381 27.4326 12.8324 27.4511 12.9204 27.4872C13.0084 27.5234 13.0884 27.5764 13.1557 27.6431C13.223 27.7098 13.2764 27.789 13.3128 27.8762C13.3491 27.9634 13.3678 28.057 13.3678 28.1513Z" fill="url(#paint20_linear_325_13437)"/>
<path d="M23.4064 26.3812C23.4064 26.4578 23.3834 26.5325 23.3405 26.5962C23.2975 26.6598 23.2365 26.7094 23.165 26.7387C23.0936 26.768 23.015 26.7757 22.9392 26.7607C22.8634 26.7457 22.7938 26.7087 22.7392 26.6545C22.6846 26.6003 22.6474 26.5313 22.6324 26.4562C22.6174 26.3811 22.6253 26.3033 22.6549 26.2326C22.6846 26.1619 22.7348 26.1015 22.7991 26.0591C22.8635 26.0166 22.939 25.994 23.0163 25.9941C23.1198 25.9943 23.219 26.0352 23.2922 26.1077C23.3653 26.1803 23.4064 26.2787 23.4064 26.3812Z" fill="url(#paint21_linear_325_13437)"/>
<path d="M18.672 20.2699C18.672 20.3464 18.6491 20.4212 18.6061 20.4848C18.5632 20.5485 18.5021 20.5981 18.4307 20.6274C18.3592 20.6566 18.2807 20.6642 18.2049 20.6492C18.1291 20.6342 18.0594 20.5974 18.0048 20.5432C17.9502 20.489 17.913 20.42 17.8981 20.3449C17.8831 20.2698 17.8909 20.1919 17.9206 20.1212C17.9502 20.0506 18.0004 19.9902 18.0647 19.9477C18.1291 19.9053 18.2047 19.8827 18.282 19.8828C18.3855 19.883 18.4847 19.9239 18.5578 19.9964C18.6309 20.069 18.672 20.1674 18.672 20.2699Z" fill="url(#paint22_linear_325_13437)"/>
<path d="M11.2423 24.0986C11.2422 24.1752 11.2191 24.2499 11.1761 24.3135C11.1331 24.377 11.072 24.4265 11.0005 24.4556C10.9291 24.4848 10.8505 24.4924 10.7748 24.4773C10.699 24.4623 10.6295 24.4253 10.5749 24.3711C10.5204 24.3169 10.4833 24.248 10.4683 24.1729C10.4534 24.0978 10.4612 24.0199 10.4909 23.9492C10.5206 23.8786 10.5708 23.8183 10.6351 23.7758C10.6995 23.7334 10.775 23.7108 10.8523 23.7109C10.9036 23.711 10.9544 23.7211 11.0018 23.7407C11.0491 23.7602 11.0921 23.7889 11.1283 23.8249C11.1646 23.8608 11.1933 23.9035 11.2128 23.9505C11.2324 23.9975 11.2424 24.0478 11.2423 24.0986Z" fill="url(#paint23_linear_325_13437)"/>
<path d="M23.4007 18.7079C23.4007 19.0165 23.3083 19.3181 23.1352 19.5747C22.9621 19.8313 22.7161 20.0313 22.4282 20.1494C22.1404 20.2675 21.8236 20.2985 21.518 20.2383C21.2124 20.1781 20.9317 20.0294 20.7114 19.8112C20.4911 19.593 20.3411 19.3149 20.2803 19.0122C20.2195 18.7095 20.2507 18.3958 20.3699 18.1107C20.4892 17.8256 20.6911 17.5819 20.9501 17.4105C21.2092 17.239 21.5138 17.1475 21.8254 17.1475C22.2432 17.1475 22.6439 17.3118 22.9393 17.6044C23.2347 17.897 23.4007 18.2941 23.4007 18.7079Z" fill="url(#paint24_linear_325_13437)"/>
<path d="M26.179 16.4903C26.179 16.683 26.1213 16.8714 26.0131 17.0317C25.905 17.192 25.7513 17.3169 25.5715 17.3907C25.3917 17.4644 25.1939 17.4839 25.003 17.4462C24.8121 17.4086 24.6368 17.3157 24.4992 17.1794C24.3615 17.0431 24.2678 16.8694 24.2298 16.6803C24.1919 16.4913 24.2114 16.2954 24.2858 16.1173C24.3603 15.9392 24.4865 15.7869 24.6483 15.6798C24.8101 15.5727 25.0003 15.5156 25.195 15.5156C25.4559 15.5156 25.7062 15.6184 25.8908 15.8011C26.0753 15.9839 26.179 16.2318 26.179 16.4903Z" fill="url(#paint25_linear_325_13437)"/>
<path d="M28.9337 17.4642C28.9337 17.5407 28.9108 17.6155 28.8678 17.6792C28.8249 17.7428 28.7639 17.7924 28.6925 17.8217C28.6211 17.851 28.5426 17.8586 28.4668 17.8437C28.391 17.8288 28.3214 17.7919 28.2668 17.7378C28.2121 17.6837 28.1749 17.6146 28.1599 17.5396C28.1448 17.4645 28.1525 17.3868 28.1821 17.3161C28.2116 17.2454 28.2617 17.1849 28.326 17.1424C28.3902 17.0999 28.4657 17.0771 28.543 17.0771C28.6466 17.0771 28.746 17.118 28.8193 17.1906C28.8925 17.2632 28.9337 17.3616 28.9337 17.4642Z" fill="url(#paint26_linear_325_13437)"/>
<path d="M36.8634 15.7678C36.8634 15.8443 36.8405 15.9192 36.7975 15.9829C36.7546 16.0465 36.6935 16.0961 36.6221 16.1254C36.5507 16.1547 36.472 16.1622 36.3962 16.1473C36.3204 16.1323 36.2508 16.0954 36.1962 16.0412C36.1416 15.987 36.1045 15.9181 36.0895 15.8429C36.0745 15.7678 36.0823 15.69 36.112 15.6193C36.1416 15.5486 36.1918 15.4882 36.2561 15.4458C36.3205 15.4033 36.3961 15.3807 36.4734 15.3809C36.5247 15.3809 36.5754 15.3908 36.6228 15.4103C36.6701 15.4297 36.7132 15.4582 36.7494 15.4941C36.7857 15.5301 36.8143 15.5728 36.8339 15.6198C36.8535 15.6667 36.8635 15.717 36.8634 15.7678Z" fill="url(#paint27_linear_325_13437)"/>
<path d="M31.9454 20.5161C31.9455 20.5927 31.9228 20.6677 31.8799 20.7314C31.8371 20.7952 31.7761 20.8447 31.7047 20.8741C31.6334 20.9035 31.5548 20.9113 31.4789 20.8964C31.4031 20.8816 31.3334 20.8448 31.2787 20.7907C31.224 20.7366 31.1867 20.6677 31.1716 20.5926C31.1565 20.5175 31.1642 20.4397 31.1938 20.369C31.2233 20.2982 31.2734 20.2377 31.3376 20.1951C31.4019 20.1526 31.4775 20.1299 31.5548 20.1299C31.6583 20.1299 31.7575 20.1706 31.8308 20.243C31.904 20.3154 31.9452 20.4136 31.9454 20.5161Z" fill="url(#paint28_linear_325_13437)"/>
<path d="M16.9337 28.4828C16.9337 28.5593 16.9108 28.6341 16.8679 28.6977C16.8249 28.7614 16.7639 28.811 16.6925 28.8403C16.6212 28.8695 16.5426 28.8772 16.4668 28.8623C16.391 28.8473 16.3214 28.8105 16.2668 28.7564C16.2121 28.7023 16.1749 28.6333 16.1598 28.5583C16.1448 28.4832 16.1525 28.4053 16.1821 28.3346C16.2117 28.2639 16.2617 28.2035 16.326 28.1609C16.3902 28.1184 16.4657 28.0957 16.543 28.0957C16.6466 28.0957 16.746 28.1366 16.8193 28.2091C16.8926 28.2817 16.9337 28.3801 16.9337 28.4828Z" fill="url(#paint29_linear_325_13437)"/>
<path d="M30.7736 28.096C30.7736 28.1726 30.7506 28.2474 30.7077 28.311C30.6648 28.3747 30.6038 28.4242 30.5324 28.4535C30.461 28.4828 30.3825 28.4905 30.3067 28.4755C30.2309 28.4606 30.1613 28.4238 30.1066 28.3697C30.052 28.3155 30.0148 28.2465 29.9997 28.1714C29.9846 28.0963 29.9924 28.0186 30.022 27.9479C30.0515 27.8772 30.1016 27.8167 30.1658 27.7742C30.2301 27.7317 30.3056 27.709 30.3829 27.709C30.4865 27.709 30.5859 27.7497 30.6591 27.8223C30.7324 27.8948 30.7736 27.9934 30.7736 28.096Z" fill="url(#paint30_linear_325_13437)"/>
<path d="M19.0626 31.0978C19.0626 31.1744 19.0397 31.2492 18.9968 31.3128C18.9539 31.3764 18.8928 31.426 18.8215 31.4553C18.7501 31.4846 18.6715 31.4923 18.5957 31.4773C18.5199 31.4624 18.4503 31.4256 18.3957 31.3715C18.341 31.3173 18.3038 31.2484 18.2888 31.1733C18.2737 31.0983 18.2814 31.0204 18.311 30.9497C18.3406 30.879 18.3906 30.8187 18.4549 30.7762C18.5191 30.7336 18.5947 30.7109 18.6719 30.7109C18.7232 30.7109 18.7741 30.7209 18.8215 30.7403C18.8689 30.7598 18.9119 30.7883 18.9482 30.8242C18.9845 30.8601 19.0132 30.9027 19.0329 30.9497C19.0525 30.9966 19.0626 31.047 19.0626 31.0978Z" fill="url(#paint31_linear_325_13437)"/>
<path d="M31.9454 1.24286C31.9455 1.31942 31.9228 1.39427 31.8799 1.458C31.8371 1.52172 31.7761 1.57144 31.7047 1.60083C31.6334 1.63022 31.5548 1.63786 31.4789 1.62301C31.4031 1.60815 31.3334 1.57138 31.2787 1.51729C31.224 1.46319 31.1867 1.39426 31.1716 1.31918C31.1565 1.2441 31.1642 1.16627 31.1938 1.09552C31.2233 1.02478 31.2734 0.964227 31.3376 0.921678C31.4019 0.879128 31.4775 0.856445 31.5548 0.856445C31.6583 0.856445 31.7575 0.897129 31.8308 0.969558C31.904 1.04199 31.9452 1.14034 31.9454 1.24286Z" fill="url(#paint32_linear_325_13437)"/>
<path d="M34.6524 17.8519C34.6524 17.9285 34.6295 18.0032 34.5865 18.0669C34.5436 18.1305 34.4825 18.1801 34.4111 18.2094C34.3397 18.2387 34.2611 18.2464 34.1853 18.2314C34.1095 18.2164 34.0399 18.1794 33.9853 18.1252C33.9307 18.071 33.8935 18.002 33.8785 17.9269C33.8635 17.8518 33.8714 17.774 33.901 17.7033C33.9307 17.6326 33.9809 17.5722 34.0452 17.5298C34.1095 17.4873 34.1851 17.4647 34.2624 17.4648C34.3659 17.465 34.4651 17.5059 34.5382 17.5784C34.6114 17.651 34.6524 17.7494 34.6524 17.8519Z" fill="url(#paint33_linear_325_13437)"/>
<path d="M25.1681 20.9027C25.1681 20.9792 25.1452 21.054 25.1023 21.1177C25.0593 21.1813 24.9983 21.2309 24.9269 21.2602C24.8555 21.2895 24.777 21.2971 24.7012 21.2822C24.6254 21.2673 24.5558 21.2304 24.5011 21.1763C24.4465 21.1222 24.4093 21.0533 24.3942 20.9782C24.3792 20.9031 24.3869 20.8253 24.4165 20.7545C24.446 20.6838 24.4961 20.6234 24.5604 20.5809C24.6246 20.5383 24.7001 20.5156 24.7774 20.5156C24.8287 20.5156 24.8795 20.5257 24.9269 20.5452C24.9743 20.5646 25.0174 20.5931 25.0537 20.6291C25.0899 20.665 25.1187 20.7076 25.1383 20.7545C25.158 20.8015 25.1681 20.8519 25.1681 20.9027Z" fill="url(#paint34_linear_325_13437)"/>
<path d="M36.6013 22.2965C36.4938 22.2491 36.3802 22.2165 36.2638 22.1998C36.2412 22.1939 36.2199 22.1866 36.1973 22.1807L36.2013 22.1932C36.1586 22.1867 36.1156 22.1825 36.0724 22.1807C35.7327 22.1807 35.4068 22.3143 35.1666 22.5523C34.9264 22.7902 34.7914 23.113 34.7914 23.4495C34.7914 23.786 34.9264 24.1087 35.1666 24.3467C35.4068 24.5846 35.7327 24.7183 36.0724 24.7183C36.2318 24.7177 36.3896 24.6874 36.5375 24.6288C36.5158 24.9752 36.4654 25.3192 36.3867 25.6574C36.2947 25.623 36.1966 25.6072 36.0983 25.611C36 25.6147 35.9035 25.638 35.8144 25.6793C35.7253 25.7206 35.6455 25.779 35.5796 25.8514C35.5137 25.9237 35.4631 26.0084 35.4307 26.1004C35.3984 26.1924 35.385 26.29 35.3913 26.3872C35.3976 26.4844 35.4235 26.5793 35.4674 26.6664C35.5114 26.7536 35.5725 26.8312 35.6472 26.8946C35.7219 26.958 35.8086 27.0058 35.9023 27.0355C35.8093 27.2312 35.7074 27.4243 35.5967 27.6147C35.5538 27.5816 35.5044 27.5579 35.4517 27.5448C35.3989 27.5318 35.344 27.5298 35.2905 27.539C35.2369 27.5483 35.1859 27.5685 35.1408 27.5985C35.0956 27.6284 35.0573 27.6674 35.0282 27.7129C34.9992 27.7584 34.9801 27.8095 34.9722 27.8628C34.9643 27.9161 34.9677 27.9703 34.9822 28.0222C34.9968 28.0741 35.0222 28.1223 35.0567 28.1639C35.0912 28.2055 35.1342 28.2395 35.1827 28.2637H35.1894C35.2215 28.2793 35.2558 28.29 35.2911 28.2958C39.9332 29.685 43.9953 32.5278 46.868 36.3976C49.7406 40.2674 51.2688 44.9555 51.2233 49.7586C51.1778 54.5616 49.561 59.2205 46.6155 63.0362C43.6701 66.852 39.5548 69.6187 34.8871 70.9213C30.2195 72.224 25.2512 71.9923 20.7278 70.261C16.2044 68.5297 12.3698 65.3921 9.79935 61.3192C7.22891 57.2462 6.06125 52.4575 6.47159 47.6714C6.88194 42.8854 8.84814 38.3602 12.0752 34.7749C12.1578 34.7083 12.2287 34.6288 12.2852 34.5393C12.3004 34.5229 12.3137 34.5052 12.3297 34.4887H12.3137C12.3844 34.3584 12.4241 34.2138 12.4299 34.066C12.4357 33.9182 12.4074 33.771 12.3471 33.6357C12.2868 33.5004 12.1961 33.3804 12.082 33.285C11.9678 33.1896 11.8332 33.1212 11.6884 33.0851C11.5436 33.049 11.3924 33.0461 11.2462 33.0766C11.1001 33.1071 10.9629 33.1701 10.8451 33.261C10.7273 33.3519 10.6319 33.4683 10.5664 33.6012C10.5008 33.7341 10.4667 33.88 10.4666 34.0279C10.4666 34.0555 10.4732 34.0819 10.4752 34.1082C10.2892 34.0641 10.1052 34.0175 9.92244 33.9694C9.91142 33.8247 9.85608 33.6868 9.76384 33.574C9.67159 33.4612 9.54682 33.379 9.40617 33.3383C9.26553 33.2976 9.1157 33.3003 8.97668 33.3462C8.83766 33.392 8.71606 33.4788 8.62812 33.5949C8.29812 33.4905 7.9741 33.3808 7.65606 33.2658C7.65606 33.2382 7.6647 33.2112 7.6647 33.1836C7.66572 32.9833 7.60418 32.7877 7.48854 32.6235C7.37289 32.4592 7.20879 32.3344 7.01872 32.2661C6.82866 32.1979 6.62194 32.1895 6.42688 32.2422C6.23183 32.2949 6.05799 32.406 5.92921 32.5603L5.91592 32.5545C2.25638 37.3906 0.254882 43.2594 0.204115 49.3029C0.153348 55.3464 2.05597 61.2474 5.63377 66.1431C9.21156 71.0389 14.2768 74.6725 20.0889 76.5125C25.901 78.3526 32.1549 78.3027 37.9363 76.37C43.7176 74.4373 48.7231 70.7233 52.2207 65.771C55.7183 60.8188 57.5246 54.8882 57.3755 48.8463C57.2263 42.8044 55.1295 36.9683 51.3917 32.1913C47.6539 27.4143 42.4711 23.947 36.6013 22.2965Z" fill="url(#paint35_linear_325_13437)"/>
<path d="M21.6879 59.2181C21.6879 58.481 21.86 54.9101 21.86 51.0846V43.7446C21.0275 44.7081 18.8162 46.8056 17.9837 47.6552L16.6914 46.125C17.2369 45.6432 23.6407 39.7486 24.4732 38.8135H24.5596C24.5596 39.7486 24.3297 43.5176 24.3297 47.3432V51.7078C24.3297 55.7881 24.3011 58.3388 24.3868 59.2174L21.6879 59.2181Z" fill="url(#paint36_linear_325_13437)"/>
<path d="M35.6591 40.5997C33.2484 42.1485 31.2805 44.2856 29.945 46.8057C34.7409 46.6359 38.3873 49.186 38.3873 52.7569C38.3741 54.5715 37.6466 56.3094 36.3596 57.6008C35.0725 58.8922 33.3275 59.6352 31.4958 59.6717C30.7481 59.709 30.001 59.5895 29.3032 59.321C28.6054 59.0524 27.9728 58.6409 27.4467 58.1134C26.2979 56.9235 25.6953 55.3644 25.6953 53.0972C25.6953 47.4862 30.2613 41.3652 34.1668 38.6445L35.6591 40.5997ZM31.6964 57.6032C34.0797 57.6032 35.6883 55.5914 35.6883 53.3255C35.6883 50.1798 32.4147 48.5366 29.0547 48.7629C28.4935 50.0792 28.2288 51.5007 28.2793 52.9287C28.2793 55.8178 29.7151 57.6032 31.6964 57.6032Z" fill="url(#paint37_linear_325_13437)"/>
<defs>
<linearGradient id="paint0_linear_325_13437" x1="31.2073" y1="12.4147" x2="31.2073" y2="7.13672" gradientUnits="userSpaceOnUse">
<stop stop-color="#087BBA"/>
<stop offset="1" stop-color="#089FE8"/>
</linearGradient>
<linearGradient id="paint1_linear_325_13437" x1="35.0826" y1="14.3585" x2="35.0826" y2="11.6104" gradientUnits="userSpaceOnUse">
<stop stop-color="#087BBA"/>
<stop offset="1" stop-color="#089FE8"/>
</linearGradient>
<linearGradient id="paint2_linear_325_13437" x1="31.5558" y1="17.0748" x2="31.5558" y2="13.9541" gradientUnits="userSpaceOnUse">
<stop stop-color="#087BBA"/>
<stop offset="1" stop-color="#089FE8"/>
</linearGradient>
<linearGradient id="paint3_linear_325_13437" x1="30.57" y1="5.35452" x2="30.57" y2="3.40527" gradientUnits="userSpaceOnUse">
<stop stop-color="#087BBA"/>
<stop offset="1" stop-color="#089FE8"/>
</linearGradient>
<linearGradient id="paint4_linear_325_13437" x1="27.1602" y1="9.77595" x2="27.1602" y2="9.00195" gradientUnits="userSpaceOnUse">
<stop stop-color="#087BBA"/>
<stop offset="1" stop-color="#089FE8"/>
</linearGradient>
<linearGradient id="paint5_linear_325_13437" x1="35.4727" y1="9.77595" x2="35.4727" y2="9.00195" gradientUnits="userSpaceOnUse">
<stop stop-color="#087BBA"/>
<stop offset="1" stop-color="#089FE8"/>
</linearGradient>
<linearGradient id="paint6_linear_325_13437" x1="33.8711" y1="5.74161" x2="33.8711" y2="4.96777" gradientUnits="userSpaceOnUse">
<stop stop-color="#087BBA"/>
<stop offset="1" stop-color="#089FE8"/>
</linearGradient>
<linearGradient id="paint7_linear_325_13437" x1="28.0101" y1="14.3315" x2="28.0101" y2="12.8955" gradientUnits="userSpaceOnUse">
<stop stop-color="#087BBA"/>
<stop offset="1" stop-color="#089FE8"/>
</linearGradient>
<linearGradient id="paint8_linear_325_13437" x1="29.7983" y1="26.3806" x2="29.7983" y2="22.0752" gradientUnits="userSpaceOnUse">
<stop stop-color="#087BBA"/>
<stop offset="1" stop-color="#089FE8"/>
</linearGradient>
<linearGradient id="paint9_linear_325_13437" x1="19.2671" y1="26.3806" x2="19.2671" y2="22.0752" gradientUnits="userSpaceOnUse">
<stop stop-color="#087BBA"/>
<stop offset="1" stop-color="#089FE8"/>
</linearGradient>
<linearGradient id="paint10_linear_325_13437" x1="14.8179" y1="33.6374" x2="14.8179" y2="29.332" gradientUnits="userSpaceOnUse">
<stop stop-color="#087BBA"/>
<stop offset="1" stop-color="#089FE8"/>
</linearGradient>
<linearGradient id="paint11_linear_325_13437" x1="8.48078" y1="30.7889" x2="8.48078" y2="25.5107" gradientUnits="userSpaceOnUse">
<stop stop-color="#087BBA"/>
<stop offset="1" stop-color="#089FE8"/>
</linearGradient>
<linearGradient id="paint12_linear_325_13437" x1="14.8176" y1="27.0719" x2="14.8176" y2="23.9512" gradientUnits="userSpaceOnUse">
<stop stop-color="#087BBA"/>
<stop offset="1" stop-color="#089FE8"/>
</linearGradient>
<linearGradient id="paint13_linear_325_13437" x1="28.1552" y1="21.4996" x2="28.1552" y2="19.041" gradientUnits="userSpaceOnUse">
<stop stop-color="#087BBA"/>
<stop offset="1" stop-color="#089FE8"/>
</linearGradient>
<linearGradient id="paint14_linear_325_13437" x1="23.402" y1="24.9249" x2="23.402" y2="22.9756" gradientUnits="userSpaceOnUse">
<stop stop-color="#087BBA"/>
<stop offset="1" stop-color="#089FE8"/>
</linearGradient>
<linearGradient id="paint15_linear_325_13437" x1="19.2653" y1="29.1251" x2="19.2653" y2="27.1758" gradientUnits="userSpaceOnUse">
<stop stop-color="#087BBA"/>
<stop offset="1" stop-color="#089FE8"/>
</linearGradient>
<linearGradient id="paint16_linear_325_13437" x1="26.0491" y1="28.1509" x2="26.0491" y2="26.7148" gradientUnits="userSpaceOnUse">
<stop stop-color="#087BBA"/>
<stop offset="1" stop-color="#089FE8"/>
</linearGradient>
<linearGradient id="paint17_linear_325_13437" x1="33.8733" y1="20.9038" x2="33.8733" y2="19.4678" gradientUnits="userSpaceOnUse">
<stop stop-color="#087BBA"/>
<stop offset="1" stop-color="#089FE8"/>
</linearGradient>
<linearGradient id="paint18_linear_325_13437" x1="16.9319" y1="18.5698" x2="16.9319" y2="17.1338" gradientUnits="userSpaceOnUse">
<stop stop-color="#087BBA"/>
<stop offset="1" stop-color="#089FE8"/>
</linearGradient>
<linearGradient id="paint19_linear_325_13437" x1="33.1468" y1="26.2299" x2="33.1468" y2="24.7939" gradientUnits="userSpaceOnUse">
<stop stop-color="#087BBA"/>
<stop offset="1" stop-color="#089FE8"/>
</linearGradient>
<linearGradient id="paint20_linear_325_13437" x1="12.6429" y1="28.8686" x2="12.6429" y2="27.4326" gradientUnits="userSpaceOnUse">
<stop stop-color="#087BBA"/>
<stop offset="1" stop-color="#089FE8"/>
</linearGradient>
<linearGradient id="paint21_linear_325_13437" x1="23.0157" y1="26.7682" x2="23.0157" y2="25.9941" gradientUnits="userSpaceOnUse">
<stop stop-color="#087BBA"/>
<stop offset="1" stop-color="#089FE8"/>
</linearGradient>
<linearGradient id="paint22_linear_325_13437" x1="18.2813" y1="20.6567" x2="18.2813" y2="19.8828" gradientUnits="userSpaceOnUse">
<stop stop-color="#087BBA"/>
<stop offset="1" stop-color="#089FE8"/>
</linearGradient>
<linearGradient id="paint23_linear_325_13437" x1="10.8516" y1="24.4849" x2="10.8516" y2="23.7109" gradientUnits="userSpaceOnUse">
<stop stop-color="#087BBA"/>
<stop offset="1" stop-color="#089FE8"/>
</linearGradient>
<linearGradient id="paint24_linear_325_13437" x1="21.8254" y1="20.2683" x2="21.8254" y2="17.1475" gradientUnits="userSpaceOnUse">
<stop stop-color="#087BBA"/>
<stop offset="1" stop-color="#089FE8"/>
</linearGradient>
<linearGradient id="paint25_linear_325_13437" x1="25.195" y1="17.4649" x2="25.195" y2="15.5156" gradientUnits="userSpaceOnUse">
<stop stop-color="#087BBA"/>
<stop offset="1" stop-color="#089FE8"/>
</linearGradient>
<linearGradient id="paint26_linear_325_13437" x1="28.543" y1="17.8511" x2="28.543" y2="17.0771" gradientUnits="userSpaceOnUse">
<stop stop-color="#087BBA"/>
<stop offset="1" stop-color="#089FE8"/>
</linearGradient>
<linearGradient id="paint27_linear_325_13437" x1="36.4727" y1="16.1548" x2="36.4727" y2="15.3809" gradientUnits="userSpaceOnUse">
<stop stop-color="#087BBA"/>
<stop offset="1" stop-color="#089FE8"/>
</linearGradient>
<linearGradient id="paint28_linear_325_13437" x1="31.5547" y1="20.9038" x2="31.5547" y2="20.1299" gradientUnits="userSpaceOnUse">
<stop stop-color="#087BBA"/>
<stop offset="1" stop-color="#089FE8"/>
</linearGradient>
<linearGradient id="paint29_linear_325_13437" x1="16.543" y1="28.8697" x2="16.543" y2="28.0957" gradientUnits="userSpaceOnUse">
<stop stop-color="#087BBA"/>
<stop offset="1" stop-color="#089FE8"/>
</linearGradient>
<linearGradient id="paint30_linear_325_13437" x1="30.3829" y1="28.483" x2="30.3829" y2="27.709" gradientUnits="userSpaceOnUse">
<stop stop-color="#087BBA"/>
<stop offset="1" stop-color="#089FE8"/>
</linearGradient>
<linearGradient id="paint31_linear_325_13437" x1="18.6719" y1="31.4848" x2="18.6719" y2="30.7109" gradientUnits="userSpaceOnUse">
<stop stop-color="#087BBA"/>
<stop offset="1" stop-color="#089FE8"/>
</linearGradient>
<linearGradient id="paint32_linear_325_13437" x1="31.5547" y1="1.63039" x2="31.5547" y2="0.856445" gradientUnits="userSpaceOnUse">
<stop stop-color="#087BBA"/>
<stop offset="1" stop-color="#089FE8"/>
</linearGradient>
<linearGradient id="paint33_linear_325_13437" x1="34.2618" y1="18.2389" x2="34.2618" y2="17.4648" gradientUnits="userSpaceOnUse">
<stop stop-color="#087BBA"/>
<stop offset="1" stop-color="#089FE8"/>
</linearGradient>
<linearGradient id="paint34_linear_325_13437" x1="24.7774" y1="21.2896" x2="24.7774" y2="20.5156" gradientUnits="userSpaceOnUse">
<stop stop-color="#087BBA"/>
<stop offset="1" stop-color="#089FE8"/>
</linearGradient>
<linearGradient id="paint35_linear_325_13437" x1="28.7936" y1="77.857" x2="28.7936" y2="22.1807" gradientUnits="userSpaceOnUse">
<stop stop-color="#087BBA"/>
<stop offset="1" stop-color="#089FE8"/>
</linearGradient>
<linearGradient id="paint36_linear_325_13437" x1="20.6255" y1="59.2181" x2="20.6255" y2="38.8135" gradientUnits="userSpaceOnUse">
<stop stop-color="#087BBA"/>
<stop offset="1" stop-color="#089FE8"/>
</linearGradient>
<linearGradient id="paint37_linear_325_13437" x1="32.0413" y1="59.6784" x2="32.0413" y2="38.6445" gradientUnits="userSpaceOnUse">
<stop stop-color="#087BBA"/>
<stop offset="1" stop-color="#089FE8"/>
</linearGradient>
</defs>
</svg>
