<svg width="19" height="19" fill="none" xmlns="http://www.w3.org/2000/svg"><path fill-rule="evenodd" clip-rule="evenodd" d="M.207 9.29a9 9 0 1 1 5.164 8.144l-4.083.837a.9.9 0 0 1-1.062-1.062l.837-4.083A8.973 8.973 0 0 1 .207 9.29zm6 1a1 1 0 1 0 0-2.001 1 1 0 0 0 0 2zm4.5-1a1 1 0 1 1-2 0 1 1 0 0 1 2 0zm2.5 1a1 1 0 1 0 0-2 1 1 0 0 0 0 2z" fill="url(#a)"/><defs><linearGradient id="a" x1=".207" y1=".289" x2="18.207" y2="18.289" gradientUnits="userSpaceOnUse"><stop stop-color="#089DE5"/><stop offset="1" stop-color="#087DBD"/></linearGradient></defs></svg>