<svg width="76" height="39" viewBox="0 0 76 39" fill="none" xmlns="http://www.w3.org/2000/svg">
<mask id="mask0_325_19360" style="mask-type:luminance" maskUnits="userSpaceOnUse" x="0" y="0" width="76" height="39">
<path d="M75.9921 0.87793H0.28125V38.7334H75.9921V0.87793Z" fill="white"/>
</mask>
<g mask="url(#mask0_325_19360)">
<path d="M33.0612 26.6474C33.0779 26.6474 33.0612 34.1542 33.0612 34.1867C33.0779 36.0431 30.7377 36.4338 29.6664 36.4664H22.8781V35.0332H23.075C24.1894 35.0332 29.652 35.0468 29.6671 35.0332C31.0511 34.9029 30.8868 34.2193 30.8868 33.9906V33.4379H26.3222C24.1963 33.4054 22.8448 32.4931 22.8289 31.4346C22.8289 31.337 22.8781 26.7125 22.8289 26.6648H24.9708V31.29C24.9549 31.5505 25.0533 32.1365 26.2397 32.1531C26.8325 32.1698 30.8702 32.1531 30.9027 32.1531V26.6474H33.0612ZM53.0338 23.7159C53.2319 23.7108 53.4302 23.7217 53.6266 23.7485C55.4224 23.9922 56.3454 24.7743 56.3454 26.0607V31.1083C56.3911 31.5328 56.2877 31.96 56.0529 32.3166C55.818 32.6731 55.4664 32.9368 55.0583 33.0624L57.1865 34.9521H54.682L52.9687 33.4379L51.2379 33.5356H48.9476C48.5186 33.5355 48.0917 33.4751 47.6795 33.3562C46.3114 32.998 45.652 32.2811 45.652 31.1091V26.0607C45.652 24.7736 46.5605 23.9922 48.3707 23.7485C48.5618 23.7212 48.7548 23.7104 48.9476 23.7159H53.0338ZM20.0238 23.7C20.3165 23.7605 20.578 23.9233 20.7616 24.1591C20.9451 24.395 21.0387 24.6885 21.0255 24.9871V33.503H18.8897V25.0991L15.5584 32.4272C15.4159 32.8227 15.1414 33.1569 14.7811 33.3734C14.4209 33.59 13.9969 33.6756 13.5808 33.6159C13.1877 33.6716 12.7871 33.597 12.4404 33.4036C12.0937 33.2101 11.8198 32.9084 11.6608 32.5445L11.6063 32.4279L8.27502 25.0999V33.5038H6.11878V25.1165C6.07974 24.7953 6.16317 24.4711 6.35245 24.2086C6.54173 23.946 6.82296 23.7645 7.14012 23.7C8.71717 23.2124 9.81649 23.6061 10.32 24.6191L10.3699 24.7259L13.5339 31.9396L16.794 24.7259C17.2914 23.6341 18.3953 23.195 20.0269 23.7H20.0238ZM44.3634 23.6833V25.0999H38.2202C38.1543 25.0999 38.0688 25.1165 38.0059 25.1165C37.2488 25.1817 37.0171 25.3119 36.9179 25.7518C36.9081 25.7904 36.9028 25.83 36.9021 25.8699V26.8912C36.8993 26.9568 36.9049 27.0224 36.9187 27.0865C37.0118 27.6248 37.3843 27.8876 38.1619 27.9148H40.9072C41.5361 27.9061 42.1614 28.011 42.753 28.2245C43.7054 28.5796 44.2286 29.1239 44.2816 29.6925L44.2861 29.7872V31.3506C44.2861 32.1001 43.8243 32.6695 42.9021 33.0919C42.3414 33.3397 41.738 33.4765 41.1252 33.4947L40.9087 33.4993H34.7261V32.0857H40.6581C40.7406 32.0857 40.8095 32.0691 40.8852 32.0691C41.2113 32.069 41.529 31.9665 41.7937 31.7761C41.9489 31.6708 42.0589 31.5111 42.1019 31.3286L42.1064 31.2718V30.0309C42.1059 29.9582 42.0911 29.8862 42.0628 29.8192C42.0345 29.7521 41.9932 29.6913 41.9414 29.6403C41.7271 29.3965 41.447 29.2822 40.755 29.217C40.6801 29.2035 40.6039 29.1981 40.5278 29.2011H38.3019C38.0877 29.2011 37.8901 29.1845 37.6758 29.1845C35.908 28.996 34.817 28.2283 34.7466 27.3099V25.9797C34.7466 24.8887 35.3068 24.2701 36.5924 23.8597C37.0983 23.7294 37.6199 23.6696 38.1422 23.6818H44.3709L44.3634 23.6833ZM59.8371 23.6833V31.0273C59.8371 31.7465 60.2778 32.06 61.4354 32.0872H67.2227V33.5038H61.6201C61.4225 33.5038 61.2083 33.4871 61.0145 33.4712C58.8567 33.313 57.7687 32.543 57.7051 31.1605V23.6849L59.8371 23.6833ZM68.9497 32.0872V32.3318H68.5212V33.5046H68.2077V32.3303H67.7792V32.0857L68.9497 32.0872ZM69.7068 32.0872L70.0854 33.0639L70.4639 32.0872H70.8924V33.5038H70.6123V32.4287H70.5964L70.1845 33.5038H69.9703L69.5584 32.4287V33.5038H69.2616V32.0857L69.7068 32.0872ZM52.8036 25.1324H49.5405C48.585 25.1324 47.9748 25.5398 47.9748 26.175V30.9788C47.9777 31.0555 47.9886 31.1316 48.0073 31.206C48.1391 31.792 48.6993 32.1145 49.5397 32.1145H51.5006L49.7055 30.5246H52.21L53.775 31.9086C53.9468 31.8366 54.0926 31.7139 54.1927 31.5568C54.2929 31.3997 54.3426 31.2157 54.3352 31.0296V26.1765C54.3373 26.1163 54.332 26.056 54.3193 25.9971C54.1876 25.4421 53.6273 25.1324 52.8036 25.1324ZM50.9578 4.17492C51.1983 4.37503 51.4512 4.55987 51.7149 4.72837C52.1267 4.76092 52.5386 4.77682 52.9512 4.80938C53.6817 4.93307 54.3913 5.15782 55.0598 5.47715C57.7029 6.89127 59.9126 8.99613 61.4536 11.5673C61.7646 12.1693 62.0396 12.7892 62.2773 13.4238C62.6892 14.3686 63.151 15.3453 63.6287 16.2576C63.8141 16.6958 64.0402 17.1156 64.3041 17.5114C64.4358 17.6742 64.7652 17.7234 64.9469 17.8044C65.5391 18.0489 66.117 18.327 66.6776 18.6372C67.6259 19.2391 68.529 19.9094 69.3797 20.6428C69.6401 20.8959 69.8754 21.1735 70.0823 21.4718L70.2042 21.6036V21.7504L69.413 21.9776C68.8361 22.1245 68.3251 22.0919 67.7656 22.238C67.3965 22.344 67.0223 22.431 66.6443 22.4985C66.6443 22.5151 66.661 22.5151 66.6776 22.531C66.8919 23.1178 68.045 23.622 68.556 23.9809C69.1363 24.3875 69.6626 24.866 70.1225 25.405L70.2868 25.6087L70.7811 26.0978C70.8569 26.228 70.897 26.3892 70.9674 26.524L71.028 26.6187V26.6512C70.8371 26.5433 70.6646 26.4059 70.5169 26.2439C70.1543 25.9834 69.7916 25.6904 69.4123 25.4625C68.8028 25.0719 68.0775 24.8569 67.4188 24.4692C67.0596 24.2382 66.7131 23.988 66.3808 23.7197C66.0392 23.4365 65.7444 23.1013 65.5071 22.7264C65.4426 22.5419 65.354 22.3667 65.2437 22.2055C65.2929 21.8958 65.6722 21.8958 65.919 21.7989C66.9391 21.417 68.0302 21.2619 69.1163 21.3446C69.0837 21.0024 68.2592 20.5959 67.9957 20.4164C67.4521 20.0379 66.9078 19.6351 66.3301 19.3088C65.9666 19.1337 65.5924 18.9819 65.2096 18.8545C64.7644 18.6751 63.7756 18.4964 63.5121 18.1542C63.0407 17.4713 62.6533 16.7341 62.3583 15.9586C62.0123 15.1931 61.5671 14.3792 61.2226 13.5812C61.0576 13.1906 60.9751 12.8484 60.7775 12.4736C59.5814 10.1925 57.8014 8.26958 55.6193 6.90127C54.8863 6.41473 54.0882 6.03419 53.2488 5.77091C52.7913 5.68808 52.3281 5.641 51.8633 5.63009L51.6361 5.59223H51.3068C51.01 5.51122 50.7624 5.20156 50.5156 5.03878C50.0037 4.71272 49.4632 4.43396 48.9007 4.20596C48.6736 4.12495 48.0603 3.89631 47.8461 4.05908C47.7918 4.07401 47.7423 4.10279 47.7024 4.14261C47.6626 4.18243 47.6338 4.23192 47.6189 4.28622C47.5038 4.48155 47.6189 4.77455 47.7014 4.95399C47.9625 5.40582 48.2668 5.83128 48.61 6.22442C48.9192 6.61757 49.1921 7.03797 49.4254 7.48046C49.8539 8.38899 50.0349 9.402 50.4308 10.3136C50.5983 10.6755 50.8025 11.0193 51.0403 11.3394C51.2212 11.584 51.5347 11.7793 51.6331 12.089C51.8474 12.4145 51.3363 13.4896 51.2212 13.8303C50.8143 15.2597 50.8673 16.7808 51.3727 18.1784C51.571 18.6327 51.7512 19.1717 52.2812 19.302C52.3138 19.2694 52.2979 19.2861 52.3637 19.2527C52.3998 18.4221 52.5496 17.6003 52.8089 16.8103C53.04 16.414 53.3044 16.0381 53.5993 15.6868C53.781 15.8011 53.781 16.0941 53.8636 16.2924C54.0771 16.7974 54.308 17.3524 54.5722 17.8559C55.1159 18.8867 55.7328 19.8773 56.418 20.82C56.6871 21.1647 56.979 21.491 57.2917 21.7966C57.3841 21.8875 57.4977 21.948 57.59 22.0427L57.6544 22.1184H57.7036V22.151C57.1926 21.9882 56.8799 21.4832 56.5006 21.1902C55.6637 20.5892 54.9388 19.8461 54.3587 18.9946C54.2073 18.7016 54.0513 18.4086 53.9044 18.1103L53.6856 17.656V17.6234C53.5865 17.7537 53.6198 17.8839 53.5698 18.0626C53.3555 18.8954 53.5206 19.8039 52.7794 20.1143C51.9223 20.4565 51.3129 19.5609 51.0494 19.1536C50.608 18.32 50.3369 17.4069 50.252 16.4675C50.1671 15.528 50.2701 14.5811 50.555 13.6819C50.6239 13.2593 50.7513 12.8482 50.9335 12.4607C50.9002 12.1677 50.6534 12.086 50.5217 11.9073C50.2936 11.5866 50.0899 11.2492 49.9122 10.898C49.5873 10.1821 49.3012 9.44916 49.0552 8.70243C48.9401 8.40943 48.9234 8.13309 48.7917 7.85598C48.5546 7.4232 48.2756 7.01468 47.9589 6.63628C47.5637 6.09874 46.459 5.05695 46.9042 3.99852C47.5962 2.30259 50.0182 3.58892 50.9578 4.17492ZM52.3092 7.18746C52.4773 7.2953 52.6323 7.42234 52.771 7.56601C52.8536 7.67958 52.8695 7.79314 52.9528 7.89157C52.9695 8.03106 52.9544 8.17253 52.9086 8.30535C52.8629 8.43818 52.7876 8.55892 52.6885 8.65852L52.6234 8.70622L52.5742 8.75543C52.4591 8.49498 52.3274 8.23454 52.2115 7.97334C52.0798 7.79087 51.9087 7.64021 51.7739 7.4532L51.6846 7.30178H51.6354V7.26923C51.8559 7.21513 52.0821 7.18768 52.3092 7.18746Z" fill="#FAFAFA"/>
</g>
</svg>
