<svg width="129" height="129" viewBox="0 0 129 129" fill="none" xmlns="http://www.w3.org/2000/svg">
<path d="M60.6931 107.312H72.9612C74.0276 107.312 74.8925 106.447 74.8925 105.381C74.8925 104.314 74.0276 103.449 72.9612 103.449H60.6931C59.6266 103.449 58.7617 104.314 58.7617 105.381C58.7617 106.447 59.6264 107.312 60.6931 107.312ZM60.6931 115.335H72.9612C74.0276 115.335 74.8925 114.47 74.8925 113.403C74.8925 112.337 74.0276 111.472 72.9612 111.472H60.6931C59.6266 111.472 58.7617 112.337 58.7617 113.403C58.7617 114.47 59.6264 115.335 60.6931 115.335Z" fill="#2B2B2B"/>
<path d="M118.331 57.412C118.331 49.2105 112.004 42.6822 104.29 42.0027C109.672 31.3133 101.153 18.3555 88.7946 19.7318C88.4317 10.3849 80.5 2.74023 70.936 2.74023C62.5325 2.74023 55.3937 8.56343 53.518 16.4624C40.0443 9.75913 24.5266 22.5867 28.4134 37.0179C18.4677 36.9107 10.2383 44.8913 10.2383 54.948C10.2383 64.833 18.2711 72.8741 28.1447 72.8741H44.0623C47.716 80.6333 49.6545 89.0493 49.6545 97.5017C49.7287 97.6952 49.5545 99.7575 51.5859 99.7575H52.2526V111.775C52.2526 119.809 58.7898 126.346 66.8244 126.346C74.8589 126.346 81.3952 119.809 81.3952 111.774V99.7573H82.0619C84.0798 99.7573 83.9183 97.7203 83.9932 97.527C83.9932 89.3595 85.9292 81.0889 89.7013 72.8741H102.926C111.421 72.8741 118.331 65.9381 118.331 57.412ZM49.5626 75.9805C45.4498 64.994 38.0433 58.0522 43.6643 44.4329L48.0841 47.7836C47.789 48.5946 47.6015 49.4577 47.6015 50.3695C47.6015 54.5698 51.018 57.9863 55.2183 57.9863C55.2678 57.9863 55.3132 57.9726 55.3624 57.9717L60.2321 67.1311C59.2657 68.2798 58.6438 69.7052 58.4922 71.2813L49.5626 75.9805ZM76.6808 44.8938C73.0746 45.4931 70.3101 48.611 70.3101 52.3847C70.3101 56.585 73.7266 60.0015 77.9269 60.0015C80.1526 60.0015 82.1392 59.0254 83.533 57.4985L87.8005 60.0117L72.0044 67.3312C70.609 65.5534 68.466 64.3884 66.036 64.3884C65.1097 64.3884 64.2325 64.5788 63.4107 64.883L59.1461 56.8619C61.3473 55.5252 62.8354 53.1277 62.8354 50.3691C62.8354 49.3125 62.6173 48.3063 62.2268 47.3906L77.3413 34.6194L76.6808 44.8938ZM77.9269 48.6305C79.9969 48.6305 81.681 50.3149 81.681 52.3847C81.681 54.4545 79.9967 56.1388 77.9269 56.1388C75.8571 56.1388 74.1727 54.4545 74.1727 52.3847C74.1727 50.3149 75.8569 48.6305 77.9269 48.6305ZM69.7894 72.0046C69.7894 74.0184 68.1226 75.7588 66.036 75.7588C63.966 75.7588 62.2818 74.0744 62.2818 72.0046C62.2818 69.9348 63.9662 68.2513 66.036 68.2513C68.1518 68.2513 69.7894 69.9931 69.7894 72.0046ZM59.836 44.3543C58.5509 43.3653 56.9618 42.7534 55.2183 42.7534C53.3306 42.7534 51.6231 43.469 50.2911 44.61L45.4494 40.9393C51.7477 30.635 64.5237 26.1012 76.0027 30.6936L59.836 44.3543ZM58.9727 50.3695C58.9727 52.4395 57.2883 54.1237 55.2185 54.1237C53.1487 54.1237 51.4644 52.4393 51.4644 50.3695C51.4644 48.2997 53.1487 46.6161 55.2185 46.6161C57.2883 46.6161 58.9727 48.2995 58.9727 50.3695ZM50.8193 79.6836L59.1886 75.2794C59.8721 76.7019 60.9807 77.8641 62.3535 78.6307V95.8948C62.1551 95.8948 53.2972 95.8948 53.4956 95.8948C53.3482 90.4101 52.4266 84.9595 50.8193 79.6836ZM77.5327 111.774C77.5327 117.68 72.7289 122.484 66.8245 122.484C60.9193 122.484 56.1154 117.68 56.1154 111.774V99.7573H77.5329L77.5327 111.774ZM80.1543 95.8946C79.7997 95.8946 65.7893 95.8946 66.2162 95.8946V79.6033C67.7124 79.5674 69.106 79.1124 70.2703 78.3304L81.0557 87.403C80.5529 90.2371 80.2358 93.0696 80.1543 95.8946ZM81.9771 83.1319L72.8073 75.4181C73.3297 74.3866 73.652 73.238 73.652 72.0046C73.652 71.6187 73.5937 71.2483 73.5381 70.8777L90.1338 63.1878C88.5717 67.1525 84.6737 72.416 81.9771 83.1319ZM85.3386 54.079C85.4638 53.5323 85.5437 52.9689 85.5437 52.3847C85.5437 49.102 83.4453 46.3235 80.5284 45.2551L81.2795 33.567C88.7494 38.8991 93.0775 47.9814 91.5944 57.764L85.3386 54.079ZM102.926 69.0114H91.6128C91.8019 68.6559 91.9687 68.2991 92.1648 67.944C94.7497 63.2608 95.9765 57.928 95.7144 52.5214C95.2138 42.2231 89.1428 33.2514 80.5054 28.5467C80.4774 28.5308 80.4566 28.5065 80.4276 28.4918C80.3996 28.4777 80.3687 28.4756 80.3403 28.4628C76.651 26.4836 72.5099 25.2638 68.1247 25.0714C51.5517 24.3613 37.8992 37.7047 37.8984 53.968C37.8984 59.0519 39.2357 64.0529 41.7657 68.4305C41.876 68.6213 41.9689 68.8196 42.0769 69.0114H28.1444C20.401 69.0114 14.1006 62.7025 14.1006 54.948C14.1006 46.0817 22.2756 39.3817 30.8981 41.1665C31.6138 41.3183 32.3522 41.0458 32.8049 40.4733C33.2586 39.8999 33.3499 39.12 33.0397 38.4579C27.0356 25.6075 42.2754 12.8562 53.8724 21.174C54.4429 21.5842 55.1936 21.6522 55.8273 21.3493C56.4629 21.0474 56.8835 20.4242 56.9258 19.7225C57.3753 12.3659 63.5295 6.60292 70.936 6.60292C79.3331 6.60292 85.7647 14.0092 84.86 21.8463C84.7874 22.4799 85.0317 23.109 85.5136 23.5267C85.9945 23.9435 86.649 24.0963 87.2696 23.936C99.1298 20.8238 106.516 34.7843 99.083 42.7948C98.5162 43.4068 98.4059 44.314 98.8095 45.044C99.2142 45.7739 100.049 46.1578 100.861 46.0058C107.792 44.679 114.469 50.0926 114.469 57.412C114.469 63.8078 109.29 69.0114 102.926 69.0114Z" fill="#2B2B2B"/>
<path d="M103.458 115.335C104.524 115.335 105.389 114.47 105.389 113.403V89.2317L109.299 93.1337C110.054 93.8872 111.277 93.8825 112.031 93.1309C112.784 92.3755 112.783 91.1524 112.028 90.3988L104.973 83.359C104.218 82.6066 102.997 82.6066 102.243 83.361L95.2042 90.4007C94.4499 91.1551 94.4499 92.3782 95.2042 93.1318C95.9586 93.8862 97.1808 93.8862 97.9354 93.1318L101.526 89.5407V113.403C101.526 114.47 102.391 115.335 103.458 115.335ZM30.9171 82.7951C29.8506 82.7951 28.9858 83.6599 28.9858 84.7264V108.589L25.3946 104.998C24.6402 104.244 23.4181 104.244 22.6635 104.998C21.9089 105.752 21.9091 106.975 22.6635 107.729L29.7033 114.769C30.0805 115.146 30.5747 115.335 31.0687 115.335C31.562 115.335 32.056 115.147 32.4332 114.771L39.4871 107.731C40.2415 106.978 40.2434 105.755 39.49 104.999C38.7366 104.243 37.5134 104.243 36.7579 104.996L32.8481 108.898V84.7264C32.8485 83.6599 31.9838 82.7951 30.9171 82.7951Z" fill="#2B2B2B"/>
</svg>
