<svg width="80" height="80" viewBox="0 0 80 80" fill="none" xmlns="http://www.w3.org/2000/svg">
<path d="M39.6317 51.4774C39.1081 52.0605 38.6581 52.7072 38.293 53.4014C37.7616 54.4118 37.4078 55.5262 37.2684 56.6938C37.2103 57.1855 36.7632 57.5379 36.2714 57.4799C36.1447 57.465 36.028 57.424 35.924 57.3638C34.2286 56.5034 32.6209 55.4845 31.1131 54.334C30.53 55.8673 30.0354 57.4289 29.6307 59.009C29.1339 60.9485 28.7674 62.934 28.5396 64.9485C28.5212 65.1027 28.4639 65.2542 28.3641 65.3872C28.0676 65.782 27.5058 65.8627 27.111 65.5662C23.5631 62.9064 21.2189 59.1703 20.2573 55.1109C19.3261 51.1732 19.6891 46.9291 21.5111 43.0614C20.9238 41.9958 20.386 40.9025 19.9021 39.7874C16.6507 32.294 15.7966 23.8087 18.1274 16.2417C18.5746 14.7876 19.544 13.6293 20.7696 12.9217L20.824 12.8927C22.0404 12.2071 23.5072 11.9573 24.9677 12.2913C32.6874 14.0553 39.6091 19.0388 44.4737 25.6031C45.199 26.5817 45.8783 27.595 46.508 28.6394C50.7642 28.9988 54.6156 30.8046 57.5549 33.5762C60.5926 36.4419 62.6587 40.3407 63.1873 44.7405C63.2453 45.2323 62.8929 45.6795 62.4012 45.7375C62.2207 45.7587 62.0459 45.7247 61.8938 45.6483C60.0569 44.8516 58.1698 44.1822 56.2515 43.6459C54.6793 43.2064 53.0801 42.8541 51.4647 42.5923C51.7088 44.4893 51.7859 46.4054 51.6791 48.3195C51.6522 48.8134 51.2291 49.1926 50.7352 49.1657C50.6283 49.1601 50.5264 49.1353 50.433 49.0957C49.3511 48.6329 48.2098 48.3796 47.0706 48.3357C46.2809 48.3053 45.4898 48.3732 44.715 48.5388L46.2024 51.1166C47.9423 50.9036 49.4325 51.026 50.6587 51.4696C51.7449 51.8624 52.6223 52.502 53.2825 53.3738C53.9243 54.2215 54.3516 55.285 54.5561 56.5508C54.9842 59.1958 54.4266 62.7847 52.8289 67.2135C52.7015 67.6451 52.2678 67.921 51.8142 67.8425C47.1519 67.0118 43.7463 65.695 41.6604 63.9939C40.6704 63.1873 39.9629 62.2844 39.5482 61.3009C39.1222 60.2911 39.0069 59.2121 39.2079 58.0813C39.4378 56.7928 40.0796 55.4378 41.141 54.0318C40.6492 53.1785 40.1391 52.3287 39.6317 51.4774ZM47.1335 52.8275C47.3352 53.395 47.3501 54 47.2008 54.559C47.0076 55.2828 46.5371 55.9338 45.8387 56.3378L45.8118 56.3527C45.119 56.7433 44.3301 56.8211 43.6161 56.6301C43.0564 56.4794 42.5399 56.1645 42.1479 55.7067C41.5153 56.6563 41.1254 57.5528 40.9768 58.3899C40.836 59.1823 40.911 59.9246 41.1983 60.606C41.4969 61.3143 42.0304 61.9844 42.7911 62.6042C44.5325 64.0244 47.4095 65.1586 51.3791 65.9348C52.6909 62.1103 53.1459 59.05 52.7872 56.831C52.6315 55.8666 52.3166 55.0706 51.8503 54.455C51.4024 53.8634 50.7996 53.4268 50.0474 53.1551C49.2478 52.8657 48.2742 52.7539 47.1335 52.8275ZM43.7796 46.9184C44.8742 46.6262 46.0071 46.501 47.1378 46.5456C48.0789 46.5823 49.0171 46.7373 49.9299 47.0097C50.0262 39.7676 47.3932 32.5523 43.0345 26.6701C40.4766 23.2185 37.3257 20.2276 33.7856 17.9633C31.7541 20.1426 29.4177 21.9958 26.8633 23.4711C24.3117 24.9443 21.5373 26.0418 18.6298 26.7112C18.8209 30.9107 19.8341 35.1357 21.5451 39.0784C24.4589 45.7941 29.3915 51.6805 35.711 55.2177C35.9317 54.2901 36.2678 53.3999 36.7065 52.5664C37.2259 51.5786 37.8932 50.6701 38.6842 49.8726C38.2781 49.1728 37.8826 48.4709 37.5097 47.7654C37.1353 47.0805 37.0618 46.3057 37.25 45.6052C37.4431 44.8806 37.9144 44.2296 38.6121 43.827C39.3112 43.4237 40.1107 43.3416 40.8339 43.5348C41.5578 43.7279 42.2087 44.1985 42.6128 44.8962L43.7796 46.9184ZM40.3711 45.2684C40.0895 45.1934 39.7789 45.2231 39.5107 45.378C39.2418 45.533 39.0586 45.7863 38.9836 46.0679C38.9114 46.3382 38.9354 46.6347 39.0727 46.8951C40.5721 49.3257 41.9696 51.9381 43.4173 54.4153C43.5737 54.6595 43.815 54.8257 44.0789 54.8965C44.3464 54.968 44.6407 54.9439 44.899 54.8095L44.9853 54.7592C45.2301 54.6021 45.3964 54.3616 45.4672 54.0962C45.5422 53.8146 45.5118 53.504 45.3575 53.2365L41.0617 45.7948C40.9061 45.5259 40.6528 45.3434 40.3711 45.2684ZM47.6027 30.5788C49.286 33.7757 50.5116 37.2075 51.171 40.7327C53.0461 41.0122 54.9036 41.4099 56.7284 41.9193C58.2243 42.3375 59.6982 42.8314 61.1424 43.3989C60.4178 40.0669 58.7019 37.1233 56.3265 34.8824C53.9639 32.6535 50.9467 31.1166 47.6027 30.5788ZM29.6505 53.1502C26.9284 50.8173 24.5707 48.04 22.6447 44.9825C21.4361 48.1497 21.2564 51.534 22.0043 54.6962C22.7586 57.8776 24.449 60.8367 26.9701 63.13C27.2008 61.598 27.5107 60.0746 27.8971 58.566C28.369 56.7235 28.9549 54.9135 29.6505 53.1502ZM29.1693 27.4718C30.9588 26.4388 32.9995 26.2279 34.8463 26.7225C36.6938 27.2171 38.3552 28.42 39.389 30.2116C40.4207 32.0004 40.6315 34.0382 40.1376 35.8843C39.643 37.7326 38.4408 39.3947 36.6528 40.427L36.5976 40.4568C34.8208 41.4622 32.8042 41.6646 30.9758 41.1757C29.1269 40.6811 27.4655 39.4782 26.4331 37.6908L26.4034 37.6356C25.3979 35.8589 25.1955 33.8422 25.6845 32.0138C26.1791 30.1663 27.3813 28.5042 29.1693 27.4718ZM34.3835 28.4561C32.9776 28.0797 31.4251 28.2389 30.068 29.0229C28.7087 29.8076 27.7938 31.0713 27.418 32.4766C27.0459 33.8684 27.1966 35.4025 27.9579 36.7504L27.9841 36.7922C28.7688 38.1514 30.0326 39.0664 31.4386 39.4421C32.8304 39.8143 34.3644 39.6636 35.7124 38.9022L35.7541 38.876C37.1134 38.0913 38.0283 36.8275 38.404 35.4216C38.7805 34.0142 38.622 32.4624 37.838 31.1032C37.0547 29.746 35.7909 28.8325 34.3835 28.4561ZM32.2091 17.0186C29.7991 15.6672 27.2327 14.6482 24.5672 14.039C23.5589 13.8083 22.5477 13.9781 21.7099 14.4473L21.6682 14.4728C20.8191 14.9631 20.1483 15.7641 19.8398 16.7682C19.0346 19.3813 18.6341 22.1147 18.5994 24.8778C21.1934 24.2431 23.6728 23.2433 25.9647 21.9201C28.2544 20.5976 30.3595 18.9511 32.2091 17.0186Z" fill="url(#paint0_linear_1618_2338)"/>
<defs>
<linearGradient id="paint0_linear_1618_2338" x1="16.8066" y1="12.1443" x2="71.5965" y2="57.7637" gradientUnits="userSpaceOnUse">
<stop stop-color="#089DE5"/>
<stop offset="1" stop-color="#087DBD"/>
</linearGradient>
</defs>
</svg>
