<svg width="81" height="81" viewBox="0 0 81 81" fill="none" xmlns="http://www.w3.org/2000/svg">
<path d="M61.4259 59.3816H59.6277V55.7851C59.6277 54.7961 58.8185 53.9869 57.8294 53.9869H56.0312V50.3904C56.0312 49.4013 55.222 48.5921 54.2329 48.5921H47.8582L47.04 40.4101C46.995 39.9515 46.6084 39.6009 46.1408 39.6009H43.4435V35.7976C45.2777 35.42 46.9231 34.5388 48.2538 33.307H51.9851C54.7095 33.307 56.9303 30.5917 56.9303 27.2559V23.5785C56.9303 22.005 55.8334 20.7193 54.4937 20.7193H51.5356V19.5684C52.0661 19.2537 52.4347 18.6873 52.4347 18.0219V16.2237C52.4347 15.2346 51.6255 14.4254 50.6365 14.4254H30.8557C29.8667 14.4254 29.0575 15.2346 29.0575 16.2237V18.0219C29.0575 18.6873 29.4261 19.2537 29.9566 19.5684V20.7193H26.9985C25.6588 20.7193 24.5619 22.005 24.5619 23.5785V27.2559C24.5619 30.5917 26.7827 33.307 29.507 33.307H33.2384C34.5691 34.5298 36.2145 35.411 38.0487 35.7976V39.6009H35.3514C34.8928 39.6009 34.5062 39.9515 34.4522 40.4101L33.634 48.5921H27.2592C26.2702 48.5921 25.461 49.4013 25.461 50.3904V53.9869H23.6627C22.6737 53.9869 21.8645 54.7961 21.8645 55.7851V59.3816H20.0663C19.0772 59.3816 18.268 60.1908 18.268 61.1798V64.7763C18.268 65.7654 19.0772 66.5746 20.0663 66.5746H61.4259C62.415 66.5746 63.2242 65.7654 63.2242 64.7763V61.1798C63.2242 60.1908 62.415 59.3816 61.4259 59.3816ZM54.4937 22.5175C54.7904 22.5175 55.1321 22.9851 55.1321 23.5785V27.2559C55.1321 29.6026 53.7204 31.5088 51.9851 31.5088H49.8093C50.8972 29.8903 51.5356 27.9482 51.5356 25.8533V22.5175H54.4937ZM30.8557 16.2237H50.6365V18.0219H30.8557V16.2237ZM26.3601 27.2559V23.5785C26.3601 22.9851 26.7018 22.5175 26.9985 22.5175H29.9566V25.8533C29.9566 27.9482 30.595 29.8903 31.6829 31.5088H29.507C27.7717 31.5088 26.3601 29.6026 26.3601 27.2559ZM31.7549 25.8533V19.8202H49.7373V25.8533C49.7373 30.4568 45.988 34.2061 41.3845 34.2061H40.0987C35.4952 34.2061 31.7459 30.4568 31.7459 25.8533H31.7549ZM39.847 35.9864C39.9369 35.9864 40.0178 35.9954 40.1077 35.9954H41.3935C41.4834 35.9954 41.5643 35.9864 41.6542 35.9864V39.5919H39.856V35.9864H39.847ZM36.1606 41.3901H45.3226L46.0419 48.5831H35.4413L36.1606 41.3901ZM27.2592 50.3814H54.2329V53.9779H27.2592V50.3814ZM23.6627 55.7761H57.8294V59.3726H23.6627V55.7761ZM20.0663 64.7673V61.1709H61.4259V64.7673H20.0663ZM42.904 30.9423C43.0299 30.9963 43.1557 31.0322 43.2906 31.0322C43.4614 31.0322 43.6413 30.9783 43.7851 30.8794C44.0459 30.7085 44.1987 30.4118 44.1897 30.0971L44.1088 27.9752L45.6014 25.8083C45.7632 25.5745 45.7992 25.2868 45.7182 25.0171C45.6373 24.7474 45.4215 24.5406 45.1518 24.4506L42.9759 23.7134L41.4564 21.7623C41.2856 21.5465 41.0248 21.4116 40.7461 21.4116C40.4674 21.4116 40.2066 21.5375 40.0358 21.7623L38.5163 23.7134L36.3404 24.4506C36.0707 24.5406 35.8639 24.7474 35.7739 25.0171C35.684 25.2868 35.729 25.5745 35.8908 25.8083L37.3834 27.9752L37.3025 30.0971C37.2935 30.4118 37.4463 30.7085 37.7071 30.8794C37.9678 31.0502 38.3005 31.0772 38.5882 30.9423L40.7461 29.9263L42.904 30.9423ZM39.1636 28.6855L39.1996 27.7414C39.1996 27.5436 39.1546 27.3548 39.0378 27.193L38.0487 25.7634L39.3525 25.3228C39.5233 25.2688 39.6671 25.161 39.775 25.0261L40.7461 23.7763L41.7171 25.0261C41.825 25.1699 41.9689 25.2688 42.1397 25.3228L43.4435 25.7634L42.4544 27.193C42.3465 27.3548 42.2926 27.5436 42.2926 27.7414L42.3286 28.6855L41.1237 28.1191C40.9978 28.0651 40.872 28.0292 40.7371 28.0292C40.6022 28.0292 40.4764 28.0561 40.3505 28.1191L39.1457 28.6855H39.1636Z" fill="#2B2B2B"/>
</svg>
