<svg width="43" height="39" viewBox="0 0 43 39" fill="none" xmlns="http://www.w3.org/2000/svg">
<path d="M22.6527 4.62929C26.2758 1.48026 29.8627 0.161754 32.0564 1.42598C34.3433 2.74493 35.0132 6.75156 33.9887 11.7243C33.9263 12.0274 33.8568 12.3351 33.7802 12.6475C34.2473 12.7811 34.6984 12.9233 35.1335 13.074C39.6743 14.6377 42.609 17.087 42.609 19.6186C42.609 22.2588 39.473 24.8411 34.6527 26.4382C34.3982 26.5223 34.1378 26.6037 33.8716 26.6824C33.9668 27.0645 34.0507 27.4389 34.123 27.8055C35.0729 32.6119 34.342 36.5651 32.0876 37.8687C29.9038 39.1329 26.3744 37.8904 22.8025 34.816C22.4252 34.4912 22.0456 34.1458 21.6635 33.7797C21.3716 34.0629 21.0796 34.3322 20.7874 34.5876C17.0987 37.8121 13.3092 39.1505 11.0526 37.8488C8.86703 36.59 8.18042 32.9117 9.06244 28.2805C9.15531 27.7923 9.26507 27.2925 9.39172 26.781C8.99971 26.6683 8.62007 26.5495 8.25279 26.4246C3.61428 24.8388 0.5625 22.2249 0.5625 19.6186C0.5625 17.0978 3.40486 14.6635 7.85656 13.1111C8.35411 12.9359 8.87261 12.7726 9.41208 12.6213C9.29538 12.1494 9.19195 11.6851 9.10179 11.2286C8.18268 6.5159 8.8304 2.74946 11.0201 1.48071C13.3056 0.158136 17.1105 1.57796 20.9082 4.94953C21.1419 5.15518 21.3754 5.36928 21.6088 5.59182C21.86 5.35058 22.1106 5.11703 22.3605 4.89118L22.6527 4.62929ZM32.1342 27.1415L31.9442 27.1868C30.1297 27.5858 28.2908 27.8647 26.4395 28.0217C25.3673 29.5909 24.1903 31.0857 22.9164 32.4961C23.2705 32.8371 23.6227 33.1583 23.9731 33.4595C27.0294 36.0875 29.8631 37.0862 31.1875 36.3195C32.5838 35.5112 33.1804 32.2939 32.3635 28.1597C32.2963 27.825 32.2198 27.4856 32.1342 27.1415ZM11.1313 27.223L11.1024 27.336C11.027 27.6454 10.9584 27.9503 10.8966 28.2506L10.8238 28.6174C10.0711 32.5784 10.6234 35.5316 11.9496 36.296C13.3518 37.102 16.432 36.0128 19.6055 33.2388C19.8711 33.0051 20.138 32.7595 20.4061 32.5019C19.1074 31.0961 17.902 29.6069 16.7975 28.0439C14.8919 27.8977 12.9984 27.6226 11.13 27.2207L11.1313 27.223ZM24.1282 28.1701L23.931 28.1787C23.1608 28.2089 22.3803 28.2239 21.5893 28.2239C20.755 28.2239 19.9348 28.2089 19.1287 28.1787C19.9583 29.271 20.8082 30.2879 21.6595 31.207C22.5334 30.2373 23.3574 29.2237 24.1282 28.1701ZM21.588 12.8818C20.2926 12.8818 19.0098 12.9307 17.76 13.0256C17.0531 14.0592 16.3701 15.1456 15.721 16.2719L15.4776 16.6975C14.9231 17.6813 14.4066 18.6728 13.9325 19.6611C14.4753 20.7892 15.0764 21.9227 15.7273 23.0494C16.3782 24.1761 17.0693 25.2689 17.7822 26.3097C19.0084 26.3893 20.2803 26.4287 21.5893 26.4287C22.8984 26.4287 24.1929 26.3835 25.4435 26.293C26.1279 25.2662 26.8005 24.1775 27.4582 23.0386C28.1158 21.8996 28.7197 20.7612 29.2674 19.6344C28.7201 18.5281 28.1136 17.4 27.4541 16.262C26.7946 15.1239 26.1234 14.0538 25.4291 13.027C24.1734 12.9325 22.8875 12.8836 21.5857 12.8836L21.588 12.8818ZM12.9768 21.7743L12.9225 21.9033C12.4118 23.1295 11.9726 24.329 11.614 25.487C12.8941 25.7607 14.1875 25.9686 15.489 26.1098C15.0366 25.409 14.5967 24.6892 14.1691 23.9504C13.7515 23.2267 13.354 22.5014 12.9768 21.7743ZM30.2345 21.7115L30.1467 21.8865C29.7894 22.5698 29.4125 23.254 29.0159 23.9391C28.5874 24.6737 28.1544 25.3873 27.7169 26.0799C29.0354 25.925 30.345 25.7015 31.6403 25.4105C31.2342 24.1542 30.7631 22.9198 30.229 21.7124L30.2345 21.7115ZM9.89606 14.3523L9.7088 14.4057C9.27608 14.5323 8.85527 14.6663 8.44638 14.8078C4.63923 16.1349 2.35639 18.0884 2.35639 19.6186C2.35639 21.232 4.84051 23.3597 8.82994 24.723C9.16345 24.8397 9.50917 24.948 9.86711 25.0478C10.4397 23.2087 11.133 21.4094 11.9423 19.6616C11.1439 17.9389 10.4603 16.1652 9.89606 14.3523ZM33.2994 14.3785L33.279 14.4423C32.7182 16.2133 32.0412 17.9454 31.2522 19.6272C32.0819 21.3524 32.7931 23.1322 33.3808 24.9541L33.6838 24.8664L34.0869 24.7366C38.2482 23.3579 40.8115 21.2474 40.8115 19.6218C40.8115 18.0957 38.4386 16.1181 34.5473 14.7761C34.1457 14.6353 33.73 14.5028 33.2994 14.3785ZM21.5844 15.8644C22.3269 15.8644 23.0527 16.0846 23.6701 16.4971C24.2875 16.9096 24.7687 17.4959 25.0528 18.1819C25.337 18.8679 25.4113 19.6228 25.2665 20.351C25.1216 21.0793 24.764 21.7482 24.239 22.2732C23.714 22.7983 23.045 23.1558 22.3168 23.3007C21.5885 23.4456 20.8337 23.3712 20.1477 23.0871C19.4617 22.8029 18.8754 22.3217 18.4628 21.7043C18.0503 21.087 17.8301 20.3611 17.8301 19.6186C17.8301 19.1255 17.9273 18.6372 18.116 18.1816C18.3048 17.726 18.5815 17.3121 18.9302 16.9635C19.279 16.6149 19.693 16.3384 20.1486 16.1498C20.6043 15.9612 21.0926 15.8642 21.5857 15.8644H21.5844ZM27.7232 13.2599L27.787 13.3608C28.2004 14.0112 28.6051 14.6787 29.001 15.3632C29.4262 16.0972 29.8297 16.8272 30.2114 17.5533C30.7206 16.3694 31.1702 15.1606 31.5584 13.9316C30.2925 13.6429 29.0128 13.4187 27.7241 13.2599H27.7232ZM15.451 13.2599L15.0068 13.3178C13.8339 13.4766 12.7049 13.6761 11.6397 13.9144C12.0043 15.0905 12.4539 16.3117 12.9754 17.5524C13.3502 16.8254 13.7456 16.1017 14.1614 15.3813L14.4486 14.8838H14.4531L14.673 14.516C14.9269 14.0896 15.1868 13.6706 15.4528 13.259L15.451 13.2599ZM31.0722 2.93581C29.7152 2.26548 26.8656 3.3429 23.8315 5.98759C23.5103 6.26743 23.1892 6.56264 22.868 6.87323C24.1508 8.27019 25.3381 9.75185 26.4219 11.3082C28.3134 11.4804 30.1914 11.7774 32.0437 12.1974C32.1122 11.9149 32.1746 11.6363 32.231 11.3616C33.1157 7.06953 32.5684 3.7934 31.1604 2.98104L31.0722 2.93581ZM19.5146 6.11831C16.3104 3.33702 13.2952 2.23879 11.9202 3.03668C10.5994 3.80155 10.0747 6.84699 10.869 10.8853C10.9519 11.3074 11.0483 11.7393 11.158 12.1807C13.0076 11.7678 14.882 11.4751 16.7695 11.3046C17.8643 9.74935 19.0612 8.26853 20.3523 6.87187C20.1412 6.67165 19.9301 6.47805 19.719 6.2911L19.5146 6.11831ZM21.6056 8.15916L21.4699 8.303C20.6739 9.1719 19.8819 10.1249 19.1048 11.1445C19.9223 11.1065 20.7474 11.0872 21.5803 11.0866C22.4132 11.086 23.2445 11.1056 24.0744 11.1454C23.3019 10.1092 22.4775 9.11287 21.6043 8.16007L21.6056 8.15916Z" fill="#FAFAFA"/>
</svg>
