<svg width="80" height="80" viewBox="0 0 80 80" fill="none" xmlns="http://www.w3.org/2000/svg">
<path d="M32.3766 51.1031C34.4831 51.1031 36.6029 50.7509 38.6424 50.0245C39.1339 49.8496 39.3909 49.3091 39.2156 48.8172C39.0407 48.3252 38.4988 48.0681 38.0082 48.2439C21.0246 54.0414 7.81631 33.2601 20.3743 20.3694C26.9629 13.7807 37.6847 13.7807 44.2734 20.3695C51.6582 27.5124 50.534 40.5069 41.9522 46.2104C41.4511 46.5406 41.3799 47.313 41.8581 47.6941L46.4625 52.2989C45.6897 53.3788 45.7803 54.8899 46.7495 55.8591L55.4757 64.5853C61.6676 70.3778 70.3382 61.7295 64.5386 55.5217C63.6517 54.648 62.3372 55.9849 63.2021 56.8584C67.286 61.205 61.1759 67.34 56.8122 63.2486C56.8122 63.2487 51.4844 57.9208 51.4844 57.9208L57.8744 51.5307L59.8606 53.5169C60.7292 54.3843 62.073 53.0609 61.1972 52.1803C61.1965 52.1785 58.5424 49.5263 58.5416 49.5247C58.5416 49.5247 55.813 46.7961 55.813 46.7961C54.8617 45.8439 53.3843 45.7348 52.3089 46.4631L48.2017 42.3555C48.947 41.1788 49.5638 39.9365 50.0222 38.6442C56.4752 19.7517 33.3723 5.07075 19.0374 19.0331C7.22575 30.8258 15.7709 51.1865 32.3766 51.1031ZM45.61 45.6054C46.1468 45.0686 46.6313 44.4986 47.0896 43.9166L50.9349 47.7623L47.7668 50.9301L43.9219 47.0847C44.5035 46.6268 45.0731 46.1426 45.61 45.6054ZM54.4765 48.1327L56.5379 50.1941L50.1478 56.5842L48.0861 54.5226C47.7446 54.181 47.7446 53.6254 48.0861 53.2838C48.0968 53.2764 48.4241 52.9394 48.4369 52.9368C48.4369 52.9367 52.9414 48.4322 52.9414 48.4322C53.3269 47.9368 53.9534 47.6282 54.4765 48.1327Z" fill="url(#paint0_linear_1614_2320)"/>
<path d="M41.4214 25.5907C40.3506 24.5191 38.481 24.5195 37.4111 25.5903L29.9639 33.037L27.2432 30.3168C25.5652 28.575 22.3102 29.8682 22.4023 32.3213C22.4022 33.0786 22.6972 33.7907 23.233 34.3261L27.9586 39.0517C28.4939 39.5875 29.2061 39.8829 29.9639 39.8829C30.7217 39.8829 31.4339 39.5875 31.9688 39.0521L41.4209 29.6005C42.5204 28.5454 42.5217 26.6455 41.4214 25.5907ZM40.0843 28.2635L30.6318 37.716C30.2755 38.0723 29.6529 38.0728 29.2956 37.7155L24.5696 32.989C24.391 32.8109 24.2927 32.5737 24.2927 32.3212C24.2652 31.5058 25.3486 31.0548 25.9062 31.653C25.9062 31.6529 29.2956 35.0419 29.2956 35.0419C29.6649 35.4111 30.263 35.4111 30.6322 35.0419L38.7482 26.9264C39.6382 26.0851 40.9528 27.362 40.0843 28.2635Z" fill="url(#paint1_linear_1614_2320)"/>
<defs>
<linearGradient id="paint0_linear_1614_2320" x1="13.5488" y1="13.5044" x2="66.5402" y2="66.4057" gradientUnits="userSpaceOnUse">
<stop stop-color="#089DE5"/>
<stop offset="1" stop-color="#087DBD"/>
</linearGradient>
<linearGradient id="paint1_linear_1614_2320" x1="22.4004" y1="24.7871" x2="36.9484" y2="43.9126" gradientUnits="userSpaceOnUse">
<stop stop-color="#089DE5"/>
<stop offset="1" stop-color="#087DBD"/>
</linearGradient>
</defs>
</svg>
