<svg width="13" height="12" viewBox="0 0 13 12" fill="none" xmlns="http://www.w3.org/2000/svg">
<path fill-rule="evenodd" clip-rule="evenodd" d="M0.583631 11.5846C0.105239 11.1062 0.0941588 10.3417 0.558883 9.87695L8.00625 2.42958L3.32241 2.58749C2.65585 2.5909 2.09706 2.053 2.07432 1.38605C2.05158 0.719111 2.57351 0.17568 3.24008 0.172269L10.9204 -0.000973147C11.2487 -0.00265228 11.5674 0.129558 11.8031 0.365181C12.0387 0.600804 12.1709 0.919503 12.1692 1.24781L11.996 8.92816C11.9926 9.59473 11.4491 10.1167 10.7822 10.0939C10.1152 10.0712 9.57734 9.51239 9.58075 8.84583L9.73866 4.16199L2.29129 11.6094C1.82657 12.0741 1.06202 12.063 0.583631 11.5846Z" fill="white"/>
</svg>