<svg width="213" height="40" viewBox="0 0 213 40" fill="none" xmlns="http://www.w3.org/2000/svg">
<g id="Group 40657">
<path id="Vector" d="M40.6713 14.5465H27.4824C27.1708 14.5465 26.5408 14.2349 26.5408 13.9164L22.463 1.35754C22.1514 0.415975 20.5798 0.415975 20.2683 1.35754L16.1905 13.9164C16.1905 14.228 15.5604 14.5465 15.2489 14.5465H2.05999C1.11842 14.5465 0.488398 15.7996 1.42997 16.4296L12.1057 24.2806C12.4173 24.5922 12.7357 24.9107 12.4173 25.5338L8.33944 38.0926C8.02789 39.0342 9.281 39.9758 9.91102 39.3457L20.5868 31.4947C20.8983 31.1832 21.5283 31.1832 21.8399 31.4947L32.5156 39.3457C33.4572 39.9758 34.3988 39.0342 34.0872 38.0926L30.0094 25.5338C30.0094 25.2222 30.0094 24.5922 30.3209 24.2806L40.9967 16.4296C42.2429 15.8065 41.9244 14.5465 40.6713 14.5465Z" fill="white"/>
<path id="Vector_2" d="M83.0541 14.5465H69.8652C69.5536 14.5465 68.9236 14.2349 68.9236 13.9164L64.8458 1.35754C64.5342 0.415975 62.9626 0.415975 62.6511 1.35754L58.5733 13.9164C58.5733 14.228 57.9432 14.5465 57.6317 14.5465H44.4428C43.5012 14.5465 42.8712 15.7996 43.8128 16.4296L54.4885 24.2806C54.8001 24.5922 55.1185 24.9107 54.8001 25.5338L50.7223 38.0926C50.4107 39.0342 51.6638 39.9758 52.2938 39.3457L62.9696 31.4947C63.2811 31.1832 63.9112 31.1832 64.2227 31.4947L74.8984 39.3457C75.84 39.9758 76.7816 39.0342 76.47 38.0926L72.3922 25.5338C72.3922 25.2222 72.3922 24.5922 72.7038 24.2806L83.3795 16.4296C84.3072 15.8065 83.9957 14.5465 83.0541 14.5465Z" fill="white"/>
<path id="Vector_3" d="M126.374 14.5465H113.186C112.874 14.5465 112.244 14.2349 112.244 13.9164L108.166 1.35754C107.855 0.415975 106.283 0.415975 105.971 1.35754L101.894 13.9164C101.894 14.228 101.264 14.5465 100.952 14.5465H87.7631C86.8215 14.5465 86.1915 15.7996 87.1331 16.4296L97.8088 24.2806C98.1204 24.5922 98.4389 24.9107 98.1204 25.5338L94.0425 38.0926C93.731 39.0342 94.9841 39.9758 95.6142 39.3457L106.29 31.4947C106.601 31.1832 107.231 31.1832 107.543 31.4947L118.219 39.3457C119.16 39.9758 120.102 39.0342 119.79 38.0926L115.712 25.5338C115.712 25.2222 115.713 24.5922 116.024 24.2806L126.7 16.4296C127.634 15.8065 127.316 14.5465 126.374 14.5465Z" fill="white"/>
<path id="Vector_4" d="M169.386 14.5465H156.197C155.886 14.5465 155.256 14.2349 155.256 13.9164L151.178 1.35754C150.866 0.415975 149.295 0.415975 148.983 1.35754L144.905 13.9164C144.905 14.228 144.275 14.5465 143.964 14.5465H130.775C129.833 14.5465 129.203 15.7996 130.145 16.4296L140.821 24.2806C141.132 24.5922 141.451 24.9107 141.132 25.5338L137.054 38.0926C136.743 39.0342 137.996 39.9758 138.626 39.3457L149.302 31.4947C149.613 31.1832 150.243 31.1832 150.555 31.4947L161.23 39.3457C162.172 39.9758 163.114 39.0342 162.802 38.0926L158.724 25.5338C158.724 25.2222 158.724 24.5922 159.036 24.2806L169.712 16.4296C170.639 15.8065 170.328 14.5465 169.386 14.5465Z" fill="white"/>
<path id="Vector_5" d="M212.086 16.4335C213.028 15.8035 212.398 14.5503 211.456 14.5503H198.268C197.956 14.5503 197.326 14.2388 197.326 13.9203L193.248 1.36145C192.937 0.419881 191.365 0.419881 191.053 1.36145L186.976 13.9203C186.976 14.2319 186.346 14.5503 186.034 14.5503H172.845C171.904 14.5503 171.274 15.8035 172.215 16.4335L182.891 24.2845C183.202 24.5961 183.521 24.9145 183.202 25.5376L179.125 38.0965C178.813 39.0381 180.066 39.9797 180.696 39.3497L191.372 31.4986C191.683 31.1871 192.313 31.1871 192.625 31.4986L203.301 39.3497C204.242 39.9797 205.184 39.0381 204.872 38.0965L200.795 25.5376C200.795 25.2261 200.795 24.5961 201.106 24.2845L212.086 16.4335Z" fill="white"/>
</g>
</svg>
