<svg width="47" height="50" viewBox="0 0 47 50" fill="none" xmlns="http://www.w3.org/2000/svg">
<path fill-rule="evenodd" clip-rule="evenodd" d="M11.2337 12.0697C15.4954 16.5151 19.5816 16.5151 23.8438 12.0697C19.5821 7.62427 15.4959 7.62427 11.2337 12.0697ZM9.67496 11.5672C12.2615 8.68436 14.8825 7.2432 17.5385 7.2432C20.1945 7.2432 22.8154 8.68436 25.402 11.5672C25.6639 11.8548 25.6639 12.2851 25.402 12.5727C22.8154 15.4555 20.1945 16.8967 17.5385 16.8967C14.8825 16.8967 12.2615 15.4555 9.67496 12.5727C9.45955 12.2342 9.36114 11.9122 9.67496 11.5672ZM7.84562 20.4411L8.49786 19.7889L9.1501 20.4411C9.44096 20.732 9.91333 20.732 10.2042 20.4411C10.495 20.1502 10.495 19.6779 10.2042 19.387L9.55195 18.7348L10.2042 18.0825C10.495 17.7917 10.495 17.3193 10.2042 17.0285C9.91333 16.7376 9.44096 16.7376 9.1501 17.0285L8.49786 17.6807L7.84562 17.0285C7.55477 16.7376 7.0824 16.7376 6.79154 17.0285C6.50068 17.3193 6.50068 17.7917 6.79154 18.0825L7.44378 18.7348L6.79154 19.387C6.50068 19.6779 6.50068 20.1502 6.79154 20.4411C7.0824 20.732 7.55477 20.732 7.84562 20.4411ZM18.4203 30.9672C18.1295 31.258 17.6571 31.258 17.3663 30.9672C17.0754 30.6763 17.0754 30.2039 17.3663 29.9131L18.0185 29.2608L17.3663 28.6086C17.0754 28.3177 17.0754 27.8454 17.3663 27.5545C17.6571 27.2637 18.1295 27.2637 18.4203 27.5545L19.0726 28.2068L19.7248 27.5545C20.0157 27.2637 20.488 27.2637 20.7789 27.5545C21.0698 27.8454 21.0698 28.3177 20.7789 28.6086L20.1267 29.2608L20.7789 29.9131C21.0698 30.2039 21.0698 30.6763 20.7789 30.9672C20.488 31.258 20.0157 31.258 19.7248 30.9672L19.0726 30.3149L18.4203 30.9672ZM37.9876 9.16548C38.256 8.8533 38.7267 8.81831 39.0389 9.08675C39.3511 9.3552 39.3861 9.82592 39.1176 10.1381L36.6831 12.9658C36.3813 13.3162 35.8428 13.3064 35.547 12.9586L34.2108 11.4065C33.9424 11.0943 33.9773 10.6236 34.2895 10.3552C34.6017 10.0867 35.0724 10.1217 35.3409 10.4339L36.1183 11.3365L37.9876 9.16548ZM31.0688 7.40066C30.6407 8.0529 30.2498 8.94734 30.1126 9.72369C30.0584 10.0823 29.749 10.3573 29.3756 10.3573H28.1241L27.8688 10.6127V11.5191L28.1241 11.7744H29.3756C29.749 11.7744 30.0584 12.0494 30.1126 12.4081C30.2367 13.1084 30.6637 14.168 31.0688 14.7311C31.2989 15.0236 31.2793 15.449 31.0097 15.7185L30.1246 16.6036V16.965L30.7653 17.6058H31.1267L32.0119 16.7206C32.2814 16.4511 32.7068 16.4309 32.9993 16.6616C33.5624 17.0667 34.6219 17.4943 35.3223 17.6178C35.6809 17.6719 35.9559 17.9814 35.9559 18.3548V19.6063L36.2113 19.8616H37.1177L37.373 19.6063V18.3548C37.373 17.9814 37.648 17.6719 38.0067 17.6178C38.707 17.4937 39.7666 17.0667 40.3297 16.6616C40.6222 16.4314 41.0476 16.4511 41.3171 16.7206L42.2022 17.6058H42.5636L43.2044 16.965V16.6036L42.3192 15.7185C42.0497 15.449 42.0295 15.0236 42.2602 14.7311C42.6653 14.168 43.0929 13.1084 43.2164 12.4081C43.2705 12.0494 43.58 11.7744 43.9534 11.7744H45.2048L45.4602 11.5191V10.6127L45.2048 10.3573H43.9534C43.58 10.3573 43.2705 10.0823 43.2164 9.72369C43.0923 9.02333 42.6653 7.96379 42.2602 7.40066C42.03 7.10816 42.0497 6.68281 42.3192 6.41328L43.2044 5.52813V5.16675L42.5636 4.52599H42.2022L41.3171 5.41113C41.0476 5.68067 40.6222 5.7009 40.3297 5.47018C39.7666 5.06506 38.707 4.63752 38.0067 4.51396C37.648 4.45984 37.373 4.15039 37.373 3.77698V2.52553L37.1177 2.27021H36.2113L35.9559 2.52553V3.77698C35.9559 4.15039 35.6809 4.45984 35.3223 4.51396C34.6219 4.63807 33.5624 5.06506 32.9993 5.47018C32.7068 5.70035 32.2814 5.68067 32.0119 5.41113L31.1267 4.52599H30.7653L30.1246 5.16675V5.52813L31.0097 6.41328C31.2793 6.68281 31.2995 7.10816 31.0688 7.40066ZM39.2997 8.50449C37.8831 7.04748 35.559 7.01522 34.1031 8.43069C32.6461 9.84725 32.6138 12.1714 34.0293 13.6273C35.4458 15.0843 37.77 15.1166 39.2259 13.7011C40.6829 12.2845 40.7152 9.96042 39.2997 8.50449ZM36.7356 5.90537C33.8855 5.86491 31.5439 8.14147 31.5034 10.9948C31.463 13.8449 33.7395 16.1865 36.5929 16.227C39.4429 16.2674 41.7845 13.9909 41.825 11.1375C41.8655 8.28744 39.5889 5.94583 36.7356 5.90537ZM8.7007 4.9169H28.6331V5.83703C28.6331 6.02784 28.7058 6.21864 28.8513 6.36407L29.5407 7.05349C29.217 7.62591 28.965 8.23223 28.7878 8.86642H27.8147C27.6239 8.86642 27.4331 8.93914 27.2876 9.08457L26.5993 9.77289C26.4621 9.90793 26.3768 10.096 26.3768 10.3038V11.8275C26.3768 12.0183 26.4495 12.2091 26.5949 12.3545L27.2833 13.0428C27.4183 13.1801 27.6064 13.2654 27.8141 13.2654H28.7873C28.9644 13.8996 29.2165 14.5064 29.5401 15.0783L28.8546 15.7639C28.7173 15.8989 28.632 16.087 28.632 16.2948V17.2739C28.632 17.4647 28.7047 17.6555 28.8502 17.801L29.9239 18.8747C30.059 19.012 30.2471 19.0973 30.4548 19.0973H31.434C31.6248 19.0973 31.8156 19.0245 31.961 18.8791L32.6504 18.1897C33.2229 18.5134 33.8292 18.7654 34.4634 18.9425V47.4782C34.4634 48.0364 34.0063 48.4929 33.4487 48.4929H2.75618C2.19797 48.4929 1.74146 48.0359 1.74146 47.4782V11.875H6.48046C7.70293 11.875 8.7007 10.8773 8.7007 9.6548V4.9158V4.9169ZM2.79554 10.3852H6.48046C6.88011 10.3852 7.20978 10.0555 7.20978 9.65589V5.97098L2.79609 10.3847L2.79554 10.3852ZM0.465956 10.6061L7.42355 3.6485C7.56625 3.50471 7.75487 3.42489 7.96153 3.42598H29.7566C29.8151 3.40193 30.0174 3.03508 30.4559 3.03508H31.4351C31.6428 3.03508 31.8309 3.11982 31.966 3.25705L32.6515 3.94264C33.224 3.61898 33.8303 3.36694 34.4645 3.1898V2.21663C34.4645 2.00888 34.5498 1.8208 34.687 1.68576L35.3753 0.997439C35.5207 0.852011 35.7116 0.779297 35.9024 0.779297H37.4261C37.6338 0.779297 37.8219 0.864039 37.9569 1.00127L38.6453 1.68959C38.7907 1.83502 38.8634 2.02583 38.8634 2.21663V3.1898C39.4982 3.36694 40.1045 3.61898 40.6769 3.94264L41.3663 3.25322C41.5117 3.10779 41.7025 3.03508 41.8933 3.03508H42.8725C43.0803 3.03508 43.2684 3.11982 43.4034 3.25705L44.4772 4.33081C44.6226 4.47624 44.6953 4.66704 44.6953 4.85785V5.83703C44.6953 6.04479 44.6106 6.23286 44.4733 6.3679L43.7877 7.05349C44.1114 7.62591 44.3634 8.23168 44.5406 8.86642H45.5137C45.7215 8.86642 45.9096 8.95171 46.0446 9.08894L46.7329 9.77727C46.8784 9.92269 46.9511 10.1135 46.9511 10.3043V11.828C46.9511 12.0358 46.8663 12.2239 46.7291 12.3589L46.0408 13.0472C45.8954 13.1926 45.7046 13.2654 45.5137 13.2654H44.5406C44.3634 13.8996 44.1114 14.5064 43.7877 15.0788L44.4772 15.7683C44.6226 15.9137 44.6953 16.1045 44.6953 16.2953V17.2745C44.6953 17.4822 44.6106 17.6703 44.4733 17.8053L43.3996 18.8791C43.2541 19.0245 43.0633 19.0973 42.8725 19.0973H41.8933C41.6856 19.0973 41.4975 19.0125 41.3625 18.8753L40.6769 18.1897C40.1045 18.5134 39.4982 18.7654 38.864 18.9425V19.9157C38.864 20.1235 38.7787 20.3115 38.6414 20.4466L37.9531 21.1349C37.8077 21.2803 37.6169 21.353 37.4261 21.353H35.9554V47.4782C35.9554 48.8592 34.8308 49.9844 33.4492 49.9844H2.75618C1.37516 49.9844 0.25 48.8598 0.25 47.4782V11.1299C0.25 10.9309 0.327088 10.7477 0.465956 10.605V10.6061ZM13.6267 42.1258V45.7265H15.2504V41.526L13.6267 42.1258ZM12.1358 46.4722C12.1358 46.8839 12.4698 47.218 12.8815 47.218L15.9934 47.2152C16.4035 47.2152 16.7359 46.8828 16.7359 46.4728V40.4134C16.7359 39.8919 16.1919 39.519 15.6993 39.7322C15.2193 39.9405 14.7147 40.145 14.1849 40.3451C13.6906 40.5321 13.198 40.7059 12.7082 40.8656C12.3796 40.9438 12.1358 41.2384 12.1358 41.5911V46.4722ZM22.0938 37.5174C22.0938 36.933 21.4383 36.5601 20.9243 36.9095C20.0796 37.4846 18.843 38.1888 17.8955 38.6814C17.621 38.8241 17.4723 39.1144 17.4964 39.4047V46.4728C17.4964 46.8828 17.8288 47.2152 18.2388 47.2152L21.3508 47.218C21.7625 47.218 22.0965 46.8839 22.0965 46.4722L22.0938 37.5174ZM20.6083 45.727V38.8646L18.9813 39.7929V45.727H20.6083ZM25.9629 45.727V34.8604L24.3392 36.2616V45.727H25.9629ZM27.4538 46.4728L27.45 33.0895C27.45 32.4264 26.6354 32.0934 26.1729 32.5767C25.9345 32.826 23.1375 35.3169 23.138 35.3174C22.9653 35.4536 22.8543 35.6646 22.8543 35.9013V46.4072C22.834 46.8757 23.1681 47.2185 23.5967 47.2185H26.7087C27.1203 47.2185 27.4538 46.8845 27.4538 46.4728ZM9.8931 45.727V43.1722L8.26605 43.4849V45.727H9.8931ZM11.3785 42.2789C11.4081 41.7819 10.9461 41.3915 10.4584 41.5124C10.2058 41.5747 7.41918 42.1116 7.41918 42.1121C7.05889 42.163 6.78115 42.4729 6.78115 42.8475V46.4072C6.76093 46.8757 7.09497 47.2185 7.5236 47.2185L10.6356 47.2158C11.0456 47.2158 11.378 46.8834 11.378 46.4733V42.2794L11.3785 42.2789ZM9.56999 31.1776C9.10473 30.7124 8.30542 31.0432 8.30542 31.7014C8.30542 32.3597 9.10473 32.6904 9.56999 32.2252C9.85921 31.936 9.85921 31.4669 9.56999 31.1776ZM9.79141 29.5971C11.3277 30.1416 11.7886 32.1147 10.6241 33.2793C9.22118 34.6821 6.81396 33.6827 6.81396 31.7009C6.81396 30.7425 7.42191 29.9076 8.3005 29.5965V28.7671C8.3005 24.6126 11.6967 21.2164 15.8507 21.2164H20.7784L20.5438 21.0031C20.2398 20.7265 20.2174 20.2558 20.4941 19.9518C20.7707 19.6478 21.2414 19.6254 21.5454 19.902L23.2036 21.4115C23.5284 21.7073 23.5267 22.2169 23.2036 22.5121C22.6531 23.0173 22.0981 23.5186 21.5454 24.0216C21.2414 24.2982 20.7707 24.2758 20.4941 23.9718C20.2174 23.6679 20.2398 23.1971 20.5438 22.9205L20.7784 22.7073H15.8507C12.5196 22.7073 9.79141 25.4354 9.79141 28.7666V29.596V29.5971ZM28.3308 21.0873C27.5534 20.3099 26.2183 20.8632 26.2183 21.9626C26.2183 23.0621 27.5534 23.6154 28.3308 22.8379C28.8141 22.3546 28.8141 21.5701 28.3308 21.0873ZM27.4555 19.2339C29.878 19.2339 31.0999 22.1769 29.3849 23.892C27.6698 25.6071 24.7268 24.3852 24.7268 21.9626C24.7268 20.4559 25.9487 19.2339 27.4555 19.2339ZM24.197 28.7639L25.3085 28.6141C20.6635 34.2223 14.6769 37.5978 7.41535 38.671C7.00859 38.7306 6.72703 39.1084 6.78607 39.5157C6.84512 39.923 7.22345 40.204 7.63076 40.145C15.2078 39.0248 21.4886 35.5071 26.3582 29.6769L26.3954 30.6096C26.4112 31.0196 26.7568 31.3389 27.1674 31.3231C27.5774 31.3072 27.8967 30.9617 27.8808 30.5511L27.7638 27.6223C27.7567 27.1784 27.3636 26.8372 26.9213 26.8968L23.9991 27.2899C23.5923 27.3446 23.3064 27.7191 23.3611 28.1258C23.4157 28.5326 23.7897 28.818 24.197 28.7639ZM18.4428 11.167C18.9419 11.6662 18.9419 12.4764 18.4428 12.9756C17.6396 13.7787 16.2597 13.2074 16.2597 12.0713C16.2597 10.9352 17.6396 10.3639 18.4428 11.167ZM17.5385 9.30162C19.0682 9.30162 20.3082 10.5416 20.3082 12.0713C20.3082 13.601 19.0682 14.841 17.5385 14.841C16.0087 14.841 14.7688 13.601 14.7688 12.0713C14.7688 10.5416 16.0087 9.30162 17.5385 9.30162ZM17.533 12.817C17.1213 12.817 16.7873 12.483 16.7873 12.0713C16.7873 11.6596 17.118 11.3256 17.5434 11.3256C17.9551 11.3256 18.2891 11.6596 18.2891 12.0713C18.2891 12.483 17.9584 12.817 17.533 12.817Z" fill="url(#paint0_linear_325_13584)"/>
<defs>
<linearGradient id="paint0_linear_325_13584" x1="0.25" y1="0.779297" x2="49.388" y2="47.4168" gradientUnits="userSpaceOnUse">
<stop stop-color="#089DE5"/>
<stop offset="1" stop-color="#087DBD"/>
</linearGradient>
</defs>
</svg>
