<svg width="560" height="153" viewBox="0 0 560 153" fill="none" xmlns="http://www.w3.org/2000/svg">
<mask id="mask0_325_19359" style="mask-type:luminance" maskUnits="userSpaceOnUse" x="291" y="53" width="76" height="39">
<path d="M366.992 53.8779H291.281V91.7334H366.992V53.8779Z" fill="white"/>
</mask>
<g mask="url(#mask0_325_19359)">
<path d="M324.061 79.6474C324.078 79.6474 324.061 87.1542 324.061 87.1867C324.078 89.0431 321.738 89.4338 320.666 89.4664H313.878V88.0332H314.075C315.189 88.0332 320.652 88.0468 320.667 88.0332C322.051 87.9029 321.887 87.2193 321.887 86.9906V86.4379H317.322C315.196 86.4054 313.845 85.4931 313.829 84.4346C313.829 84.337 313.878 79.7125 313.829 79.6648H315.971V84.29C315.955 84.5505 316.053 85.1365 317.24 85.1531C317.833 85.1698 321.87 85.1531 321.903 85.1531V79.6474H324.061ZM344.034 76.7159C344.232 76.7108 344.43 76.7217 344.627 76.7485C346.422 76.9922 347.345 77.7743 347.345 79.0607V84.1083C347.391 84.5328 347.288 84.96 347.053 85.3166C346.818 85.6731 346.466 85.9368 346.058 86.0624L348.187 87.9521H345.682L343.969 86.4379L342.238 86.5356H339.948C339.519 86.5355 339.092 86.4751 338.679 86.3562C337.311 85.998 336.652 85.2811 336.652 84.1091V79.0607C336.652 77.7736 337.56 76.9922 339.371 76.7485C339.562 76.7212 339.755 76.7104 339.948 76.7159H344.034ZM311.024 76.7C311.316 76.7605 311.578 76.9233 311.762 77.1591C311.945 77.395 312.039 77.6885 312.025 77.9871V86.503H309.89V78.0991L306.558 85.4272C306.416 85.8227 306.141 86.1569 305.781 86.3734C305.421 86.59 304.997 86.6756 304.581 86.6159C304.188 86.6716 303.787 86.597 303.44 86.4036C303.094 86.2101 302.82 85.9084 302.661 85.5445L302.606 85.4279L299.275 78.0999V86.5038H297.119V78.1165C297.08 77.7953 297.163 77.4711 297.352 77.2086C297.542 76.946 297.823 76.7645 298.14 76.7C299.717 76.2124 300.816 76.6061 301.32 77.6191L301.37 77.7259L304.534 84.9396L307.794 77.7259C308.291 76.6341 309.395 76.195 311.027 76.7H311.024ZM335.363 76.6833V78.0999H329.22C329.154 78.0999 329.069 78.1165 329.006 78.1165C328.249 78.1817 328.017 78.3119 327.918 78.7518C327.908 78.7904 327.903 78.83 327.902 78.8699V79.8912C327.899 79.9568 327.905 80.0224 327.919 80.0865C328.012 80.6248 328.384 80.8876 329.162 80.9148H331.907C332.536 80.9061 333.161 81.011 333.753 81.2245C334.705 81.5796 335.229 82.1239 335.282 82.6925L335.286 82.7872V84.3506C335.286 85.1001 334.824 85.6695 333.902 86.0919C333.341 86.3397 332.738 86.4765 332.125 86.4947L331.909 86.4993H325.726V85.0857H331.658C331.741 85.0857 331.809 85.0691 331.885 85.0691C332.211 85.069 332.529 84.9665 332.794 84.7761C332.949 84.6708 333.059 84.5111 333.102 84.3286L333.106 84.2718V83.0309C333.106 82.9582 333.091 82.8862 333.063 82.8192C333.034 82.7521 332.993 82.6913 332.941 82.6403C332.727 82.3965 332.447 82.2822 331.755 82.217C331.68 82.2035 331.604 82.1981 331.528 82.2011H329.302C329.088 82.2011 328.89 82.1845 328.676 82.1845C326.908 81.996 325.817 81.2283 325.747 80.3099V78.9797C325.747 77.8887 326.307 77.2701 327.592 76.8597C328.098 76.7294 328.62 76.6696 329.142 76.6818H335.371L335.363 76.6833ZM350.837 76.6833V84.0273C350.837 84.7465 351.278 85.06 352.435 85.0872H358.223V86.5038H352.62C352.423 86.5038 352.208 86.4871 352.014 86.4712C349.857 86.313 348.769 85.543 348.705 84.1605V76.6849L350.837 76.6833ZM359.95 85.0872V85.3318H359.521V86.5046H359.208V85.3303H358.779V85.0857L359.95 85.0872ZM360.707 85.0872L361.085 86.0639L361.464 85.0872H361.892V86.5038H361.612V85.4287H361.596L361.185 86.5038H360.97L360.558 85.4287V86.5038H360.262V85.0857L360.707 85.0872ZM343.804 78.1324H340.54C339.585 78.1324 338.975 78.5398 338.975 79.175V83.9788C338.978 84.0555 338.989 84.1316 339.007 84.206C339.139 84.792 339.699 85.1145 340.54 85.1145H342.501L340.706 83.5246H343.21L344.775 84.9086C344.947 84.8366 345.093 84.7139 345.193 84.5568C345.293 84.3997 345.343 84.2157 345.335 84.0296V79.1765C345.337 79.1163 345.332 79.056 345.319 78.9971C345.188 78.4421 344.627 78.1324 343.804 78.1324ZM341.958 57.1749C342.198 57.375 342.451 57.5599 342.715 57.7284C343.127 57.7609 343.539 57.7768 343.951 57.8094C344.682 57.9331 345.391 58.1578 346.06 58.4771C348.703 59.8913 350.913 61.9961 352.454 64.5673C352.765 65.1693 353.04 65.7892 353.277 66.4238C353.689 67.3686 354.151 68.3453 354.629 69.2576C354.814 69.6958 355.04 70.1156 355.304 70.5114C355.436 70.6742 355.765 70.7234 355.947 70.8044C356.539 71.0489 357.117 71.327 357.678 71.6372C358.626 72.2391 359.529 72.9094 360.38 73.6428C360.64 73.8959 360.875 74.1735 361.082 74.4718L361.204 74.6036V74.7504L360.413 74.9776C359.836 75.1245 359.325 75.0919 358.766 75.238C358.397 75.344 358.022 75.431 357.644 75.4985C357.644 75.5151 357.661 75.5151 357.678 75.531C357.892 76.1178 359.045 76.622 359.556 76.9809C360.136 77.3875 360.663 77.866 361.122 78.405L361.287 78.6087L361.781 79.0978C361.857 79.228 361.897 79.3892 361.967 79.524L362.028 79.6187V79.6512C361.837 79.5433 361.665 79.4059 361.517 79.2439C361.154 78.9834 360.792 78.6904 360.412 78.4625C359.803 78.0719 359.078 77.8569 358.419 77.4692C358.06 77.2382 357.713 76.988 357.381 76.7197C357.039 76.4365 356.744 76.1013 356.507 75.7264C356.443 75.5419 356.354 75.3667 356.244 75.2055C356.293 74.8958 356.672 74.8958 356.919 74.7989C357.939 74.417 359.03 74.2619 360.116 74.3446C360.084 74.0024 359.259 73.5959 358.996 73.4164C358.452 73.0379 357.908 72.6351 357.33 72.3088C356.967 72.1337 356.592 71.9819 356.21 71.8545C355.764 71.6751 354.776 71.4964 354.512 71.1542C354.041 70.4713 353.653 69.7341 353.358 68.9586C353.012 68.1931 352.567 67.3792 352.223 66.5812C352.058 66.1906 351.975 65.8484 351.777 65.4736C350.581 63.1925 348.801 61.2696 346.619 59.9013C345.886 59.4147 345.088 59.0342 344.249 58.7709C343.791 58.6881 343.328 58.641 342.863 58.6301L342.636 58.5922H342.307C342.01 58.5112 341.762 58.2016 341.516 58.0388C341.004 57.7127 340.463 57.434 339.901 57.206C339.674 57.125 339.06 56.8963 338.846 57.0591C338.792 57.074 338.742 57.1028 338.702 57.1426C338.663 57.1824 338.634 57.2319 338.619 57.2862C338.504 57.4816 338.619 57.7746 338.701 57.954C338.963 58.4058 339.267 58.8313 339.61 59.2244C339.919 59.6176 340.192 60.038 340.425 60.4805C340.854 61.389 341.035 62.402 341.431 63.3136C341.598 63.6755 341.803 64.0193 342.04 64.3394C342.221 64.584 342.535 64.7793 342.633 65.089C342.847 65.4145 342.336 66.4896 342.221 66.8303C341.814 68.2597 341.867 69.7808 342.373 71.1784C342.571 71.6327 342.751 72.1717 343.281 72.302C343.314 72.2694 343.298 72.2861 343.364 72.2527C343.4 71.4221 343.55 70.6003 343.809 69.8103C344.04 69.414 344.304 69.0381 344.599 68.6868C344.781 68.8011 344.781 69.0941 344.864 69.2924C345.077 69.7974 345.308 70.3524 345.572 70.8559C346.116 71.8867 346.733 72.8773 347.418 73.82C347.687 74.1647 347.979 74.491 348.292 74.7966C348.384 74.8875 348.498 74.948 348.59 75.0427L348.654 75.1184H348.704V75.151C348.193 74.9882 347.88 74.4832 347.501 74.1902C346.664 73.5892 345.939 72.8461 345.359 71.9946C345.207 71.7016 345.051 71.4086 344.904 71.1103L344.686 70.656V70.6234C344.586 70.7537 344.62 70.8839 344.57 71.0626C344.356 71.8954 344.521 72.8039 343.779 73.1143C342.922 73.4565 342.313 72.5609 342.049 72.1536C341.608 71.32 341.337 70.4069 341.252 69.4675C341.167 68.528 341.27 67.5811 341.555 66.6819C341.624 66.2593 341.751 65.8482 341.934 65.4607C341.9 65.1677 341.653 65.086 341.522 64.9073C341.294 64.5866 341.09 64.2492 340.912 63.898C340.587 63.1821 340.301 62.4492 340.055 61.7024C339.94 61.4094 339.923 61.1331 339.792 60.856C339.555 60.4232 339.276 60.0147 338.959 59.6363C338.564 59.0987 337.459 58.057 337.904 56.9985C338.596 55.3026 341.018 56.5889 341.958 57.1749ZM343.309 60.1875C343.477 60.2953 343.632 60.4223 343.771 60.566C343.854 60.6796 343.869 60.7931 343.953 60.8916C343.969 61.0311 343.954 61.1725 343.909 61.3054C343.863 61.4382 343.788 61.5589 343.689 61.6585L343.623 61.7062L343.574 61.7554C343.459 61.495 343.327 61.2345 343.212 60.9733C343.08 60.7909 342.909 60.6402 342.774 60.4532L342.685 60.3018H342.635V60.2692C342.856 60.2151 343.082 60.1877 343.309 60.1875Z" fill="#FAFAFA"/>
</g>
<g filter="url(#filter0_d_325_19359)">
<rect x="466.148" y="54.4863" width="36.1915" height="36.1915" rx="7.5" stroke="#FAFAFA" stroke-width="3" shape-rendering="crispEdges"/>
</g>
<path d="M485.381 65.8004L481.028 73.0774L485.66 80.8093C485.68 80.8324 485.695 80.8594 485.705 80.8887C485.714 80.918 485.718 80.949 485.715 80.9798C485.66 81.0367 485.604 80.9798 485.548 80.9798H482.256C481.977 80.9798 481.865 80.9798 481.754 80.8093L480.805 78.99C480.526 78.3647 480.191 77.7961 479.856 77.1139C479.522 76.4317 479.131 75.8632 478.796 75.2378L477.792 77.1139C477.457 77.7393 477.122 78.3647 476.843 78.99L475.839 80.8661C475.806 80.9253 475.757 80.9731 475.697 81.0035C475.637 81.0339 475.57 81.0455 475.504 81.0367H472.323C472.268 81.0367 472.212 81.0367 472.212 80.9798C472.209 80.949 472.213 80.918 472.222 80.8887C472.232 80.8594 472.247 80.8324 472.268 80.8093L476.732 73.3048L472.379 65.8004V65.6299H475.95L476.118 65.8004C476.397 66.4258 476.676 67.0512 477.011 67.6765C477.345 68.3019 477.68 68.9273 478.071 69.5526C478.461 70.178 478.74 70.8034 479.019 71.4287H479.075C479.354 70.7465 479.689 70.1211 479.968 69.4958L480.972 67.6765C481.307 67.0512 481.642 66.4258 481.921 65.8004L482.033 65.6867H485.269L485.436 65.8004V65.9141L485.381 65.8004ZM494.253 81.0935C495.051 80.934 495.835 80.7058 496.596 80.4113C496.65 80.3877 496.695 80.3476 496.725 80.2966C496.755 80.2456 496.768 80.1863 496.764 80.1271C496.764 79.8997 496.708 79.6154 496.708 79.2743C496.708 78.9332 496.652 78.7058 496.652 78.4215V64.436C496.652 64.421 496.649 64.4063 496.644 64.3925C496.638 64.3787 496.63 64.3661 496.619 64.3556C496.609 64.345 496.597 64.3366 496.583 64.3309C496.57 64.3252 496.555 64.3223 496.541 64.3223H493.583C493.527 64.3223 493.472 64.3791 493.472 64.4928V69.1547H492.69C491.43 69.1204 490.182 69.4139 489.063 70.0074C488.12 70.5506 487.332 71.3343 486.776 72.2815C486.218 73.2225 485.946 74.3104 485.994 75.4084C485.941 76.5789 486.212 77.7412 486.776 78.7626C487.317 79.5807 488.07 80.23 488.952 80.6387C489.914 81.0918 490.961 81.3246 492.021 81.3209C492.769 81.3044 493.516 81.2284 494.253 81.0935ZM492.914 78.4215H492.356C491.935 78.4338 491.517 78.3563 491.128 78.1941C490.761 78.1111 490.429 77.9121 490.179 77.6256C489.883 77.3626 489.654 77.0312 489.51 76.6591C489.326 76.1702 489.25 75.6462 489.287 75.1241C489.241 74.4667 489.397 73.8112 489.733 73.248C490.044 72.7859 490.467 72.4137 490.961 72.1678C491.458 71.8961 492.015 71.7591 492.579 71.7698H493.472V78.3647L492.914 78.4215Z" fill="#FAFAFA"/>
<mask id="mask1_325_19359" style="mask-type:luminance" maskUnits="userSpaceOnUse" x="0" y="50" width="45" height="45">
<path d="M44.0005 50.3174H0.578125V94.1921H44.0005V50.3174Z" fill="white"/>
</mask>
<g mask="url(#mask1_325_19359)">
<path d="M23.6527 56.6293C27.2758 53.4803 30.8627 52.1618 33.0564 53.426C35.3433 54.7449 36.0132 58.7516 34.9887 63.7243C34.9263 64.0274 34.8568 64.3351 34.7802 64.6475C35.2473 64.7811 35.6984 64.9233 36.1335 65.074C40.6743 66.6377 43.609 69.087 43.609 71.6186C43.609 74.2588 40.473 76.8411 35.6527 78.4382C35.3982 78.5223 35.1378 78.6037 34.8716 78.6824C34.9668 79.0645 35.0507 79.4389 35.123 79.8055C36.0729 84.6119 35.342 88.5651 33.0876 89.8687C30.9038 91.1329 27.3744 89.8904 23.8025 86.816C23.4252 86.4912 23.0456 86.1458 22.6635 85.7797C22.3716 86.0629 22.0796 86.3322 21.7874 86.5876C18.0987 89.8121 14.3092 91.1505 12.0526 89.8488C9.86703 88.59 9.18042 84.9117 10.0624 80.2805C10.1553 79.7923 10.2651 79.2925 10.3917 78.781C9.99971 78.6683 9.62007 78.5495 9.25279 78.4246C4.61428 76.8388 1.5625 74.2249 1.5625 71.6186C1.5625 69.0978 4.40486 66.6635 8.85656 65.1111C9.35411 64.9359 9.87261 64.7726 10.4121 64.6213C10.2954 64.1494 10.1919 63.6851 10.1018 63.2286C9.18268 58.5159 9.8304 54.7495 12.0201 53.4807C14.3056 52.1581 18.1105 53.578 21.9082 56.9495C22.1419 57.1552 22.3754 57.3693 22.6088 57.5918C22.86 57.3506 23.1106 57.117 23.3605 56.8912L23.6527 56.6293ZM33.1342 79.1415L32.9442 79.1868C31.1297 79.5858 29.2908 79.8647 27.4395 80.0217C26.3673 81.5909 25.1903 83.0857 23.9164 84.4961C24.2705 84.8371 24.6227 85.1583 24.9731 85.4595C28.0294 88.0875 30.8631 89.0862 32.1875 88.3195C33.5838 87.5112 34.1804 84.2939 33.3635 80.1597C33.2963 79.825 33.2198 79.4856 33.1342 79.1415ZM12.1313 79.223L12.1024 79.336C12.027 79.6454 11.9584 79.9503 11.8966 80.2506L11.8238 80.6174C11.0711 84.5784 11.6234 87.5316 12.9496 88.296C14.3518 89.102 17.432 88.0128 20.6055 85.2388C20.8711 85.0051 21.138 84.7595 21.4061 84.5019C20.1074 83.0961 18.902 81.6069 17.7975 80.0439C15.8919 79.8977 13.9984 79.6226 12.13 79.2207L12.1313 79.223ZM25.1282 80.1701L24.931 80.1787C24.1608 80.2089 23.3803 80.2239 22.5893 80.2239C21.755 80.2239 20.9348 80.2089 20.1287 80.1787C20.9583 81.271 21.8082 82.2879 22.6595 83.207C23.5334 82.2373 24.3574 81.2237 25.1282 80.1701ZM22.588 64.8818C21.2926 64.8818 20.0098 64.9307 18.76 65.0256C18.0531 66.0592 17.3701 67.1456 16.721 68.2719L16.4776 68.6975C15.9231 69.6813 15.4066 70.6728 14.9325 71.6611C15.4753 72.7892 16.0764 73.9227 16.7273 75.0494C17.3782 76.1761 18.0693 77.2689 18.7822 78.3097C20.0084 78.3893 21.2803 78.4287 22.5893 78.4287C23.8984 78.4287 25.1929 78.3835 26.4435 78.293C27.1279 77.2662 27.8005 76.1775 28.4582 75.0386C29.1158 73.8996 29.7197 72.7612 30.2674 71.6344C29.7201 70.5281 29.1136 69.4 28.4541 68.262C27.7946 67.1239 27.1234 66.0538 26.4291 65.027C25.1734 64.9325 23.8875 64.8836 22.5857 64.8836L22.588 64.8818ZM13.9768 73.7743L13.9225 73.9033C13.4118 75.1295 12.9726 76.329 12.614 77.487C13.8941 77.7607 15.1875 77.9686 16.489 78.1098C16.0366 77.409 15.5967 76.6892 15.1691 75.9504C14.7515 75.2267 14.354 74.5014 13.9768 73.7743ZM31.2345 73.7115L31.1467 73.8865C30.7894 74.5698 30.4125 75.254 30.0159 75.9391C29.5874 76.6737 29.1544 77.3873 28.7169 78.0799C30.0354 77.925 31.345 77.7015 32.6403 77.4105C32.2342 76.1542 31.7631 74.9198 31.229 73.7124L31.2345 73.7115ZM10.8961 66.3523L10.7088 66.4057C10.2761 66.5323 9.85527 66.6663 9.44638 66.8078C5.63923 68.1349 3.35639 70.0884 3.35639 71.6186C3.35639 73.232 5.84051 75.3597 9.82994 76.723C10.1635 76.8397 10.5092 76.948 10.8671 77.0478C11.4397 75.2087 12.133 73.4094 12.9423 71.6616C12.1439 69.9389 11.4603 68.1652 10.8961 66.3523ZM34.2994 66.3785L34.279 66.4423C33.7182 68.2133 33.0412 69.9454 32.2522 71.6272C33.0819 73.3524 33.7931 75.1322 34.3808 76.9541L34.6838 76.8664L35.0869 76.7366C39.2482 75.3579 41.8115 73.2474 41.8115 71.6218C41.8115 70.0957 39.4386 68.1181 35.5473 66.7761C35.1457 66.6353 34.73 66.5028 34.2994 66.3785ZM22.5844 67.8644C23.3269 67.8644 24.0527 68.0846 24.6701 68.4971C25.2875 68.9096 25.7687 69.4959 26.0528 70.1819C26.337 70.8679 26.4113 71.6228 26.2665 72.351C26.1216 73.0793 25.764 73.7482 25.239 74.2732C24.714 74.7983 24.045 75.1558 23.3168 75.3007C22.5885 75.4456 21.8337 75.3712 21.1477 75.0871C20.4617 74.8029 19.8754 74.3217 19.4628 73.7043C19.0503 73.087 18.8301 72.3611 18.8301 71.6186C18.8301 71.1255 18.9273 70.6372 19.116 70.1816C19.3048 69.726 19.5815 69.3121 19.9302 68.9635C20.279 68.6149 20.693 68.3384 21.1486 68.1498C21.6043 67.9612 22.0926 67.8642 22.5857 67.8644H22.5844ZM28.7232 65.2599L28.787 65.3608C29.2004 66.0112 29.6051 66.6787 30.001 67.3632C30.4262 68.0972 30.8297 68.8272 31.2114 69.5533C31.7206 68.3694 32.1702 67.1606 32.5584 65.9316C31.2925 65.6429 30.0128 65.4187 28.7241 65.2599H28.7232ZM16.451 65.2599L16.0068 65.3178C14.8339 65.4766 13.7049 65.6761 12.6397 65.9144C13.0043 67.0905 13.4539 68.3117 13.9754 69.5524C14.3502 68.8254 14.7456 68.1017 15.1614 67.3813L15.4486 66.8838H15.4531L15.673 66.516C15.9269 66.0896 16.1868 65.6706 16.4528 65.259L16.451 65.2599ZM32.0722 54.9358C30.7152 54.2655 27.8656 55.3429 24.8315 57.9876C24.5103 58.2674 24.1892 58.5626 23.868 58.8732C25.1508 60.2702 26.3381 61.7519 27.4219 63.3082C29.3134 63.4804 31.1914 63.7774 33.0437 64.1974C33.1122 63.9149 33.1746 63.6363 33.231 63.3616C34.1157 59.0695 33.5684 55.7934 32.1604 54.981L32.0722 54.9358ZM20.5146 58.1183C17.3104 55.337 14.2952 54.2388 12.9202 55.0367C11.5994 55.8015 11.0747 58.847 11.869 62.8853C11.9519 63.3074 12.0483 63.7393 12.158 64.1807C14.0076 63.7678 15.882 63.4751 17.7695 63.3046C18.8643 61.7494 20.0612 60.2685 21.3523 58.8719C21.1412 58.6716 20.9301 58.4781 20.719 58.2911L20.5146 58.1183ZM22.6056 60.1592L22.4699 60.303C21.6739 61.1719 20.8819 62.1249 20.1048 63.1445C20.9223 63.1065 21.7474 63.0872 22.5803 63.0866C23.4132 63.086 24.2445 63.1056 25.0744 63.1454C24.3019 62.1092 23.4775 61.1129 22.6043 60.1601L22.6056 60.1592Z" fill="#FAFAFA"/>
</g>
<path d="M424.333 64.0099C424.43 63.906 424.555 63.8329 424.693 63.7996C424.832 63.7663 424.976 63.7743 425.11 63.8227C425.244 63.871 425.36 63.9576 425.445 64.0716C425.53 64.1855 425.579 64.3219 425.587 64.4638L429.002 85.2745L417.047 91.8696C416.676 92.0737 416.261 92.1807 415.838 92.1807C415.415 92.1807 414.999 92.0737 414.629 91.8696L402.783 85.3191L424.333 64.0099ZM416.51 60.5658L416.575 60.6708L419.893 66.9266L416.42 70.6639L403.11 83.7899L402.748 83.9357L402.648 84.0313L413.269 63.9472L415.182 60.6097C415.243 60.4882 415.336 60.3855 415.45 60.3122C415.565 60.239 415.697 60.198 415.833 60.1935C415.969 60.189 416.104 60.2212 416.223 60.2867C416.342 60.3522 416.441 60.4486 416.51 60.5658ZM407.195 53.6971C407.211 53.5286 407.281 53.37 407.396 53.2454C407.51 53.1209 407.663 53.0373 407.829 53.0073C407.996 52.9774 408.168 53.0028 408.318 53.0796C408.469 53.1565 408.591 53.2806 408.664 53.4329L413.237 61.9932L402.945 81.3248L402.779 81.6453L407.195 53.6971Z" fill="#FAFAFA"/>
<path d="M218.458 83.9468H218.451V79.161H223.237V83.9468H228.949V76.5156H236.381V83.9228C238.302 83.9139 240.193 83.4377 241.889 82.5352C243.585 81.6327 245.036 80.331 246.117 78.7425C247.198 77.154 247.877 75.3263 248.094 73.4171C248.311 71.508 248.06 69.5747 247.363 67.7841C246.805 66.2584 245.921 64.873 244.771 63.7248C243.622 62.5766 242.236 61.6934 240.71 61.1368C238.918 60.4401 236.983 60.1901 235.072 60.4085C233.162 60.6268 231.334 61.3069 229.745 62.39C228.156 63.4731 226.855 64.9266 225.954 66.6251C225.053 68.3235 224.579 70.2159 224.572 72.1386H217.117C217.124 69.0865 217.854 66.0795 219.248 63.3643C220.641 60.6491 222.659 58.303 225.135 56.5185C227.611 54.7341 230.475 53.5621 233.492 53.0988C236.508 52.6354 239.592 52.8939 242.489 53.8531C245.343 54.7518 247.938 56.3258 250.054 58.4415C252.169 60.5572 253.743 63.1521 254.642 66.006C255.602 68.9034 255.86 71.9871 255.397 75.0039C254.934 78.0207 253.762 80.8847 251.978 83.3608C250.193 85.837 247.847 87.8546 245.131 89.2483C242.416 90.6419 239.409 91.3718 236.357 91.378V83.9468H228.945V89.6545H223.238V83.9468H218.456H218.458Z" fill="#FAFAFA"/>
<path d="M176.276 73.3462C176.281 75.0053 176.772 76.6265 177.688 78.0101C178.604 79.3936 179.904 80.479 181.429 81.1326C180.812 83.0758 179.917 84.9192 178.771 86.6054C177.168 88.9494 175.51 91.2846 172.894 91.3351C170.323 91.3824 169.496 89.8072 166.557 89.8072C163.617 89.8072 162.7 91.2846 160.265 91.3832C157.74 91.4794 155.816 88.8484 154.203 86.5132C150.907 81.733 148.387 73.0111 151.768 67.1231C152.561 65.6993 153.71 64.5061 155.103 63.6606C156.495 62.8151 158.084 62.3463 159.713 62.3004C162.193 62.2531 164.534 63.9726 166.046 63.9726C167.558 63.9726 170.405 61.9044 173.396 62.209C174.782 62.2585 176.138 62.629 177.357 63.2912C178.575 63.9535 179.623 64.8895 180.419 66.0256C179.166 66.7963 178.129 67.872 177.404 69.1522C176.68 70.4324 176.292 71.8753 176.276 73.3462ZM171.444 59.0481C172.893 57.3435 173.611 55.1354 173.441 52.9043C171.252 53.1177 169.228 54.1613 167.785 55.8207C167.064 56.6257 166.512 57.5674 166.162 58.5899C165.812 59.6125 165.671 60.6949 165.748 61.7729C166.842 61.787 167.925 61.5484 168.912 61.0757C169.9 60.6029 170.764 59.9088 171.44 59.0473" fill="#FAFAFA"/>
<path d="M108.153 63.8813C108.161 63.9719 108.165 64.0649 108.165 64.1579V79.7707C108.166 80.1684 108.088 80.5623 107.937 80.93C107.785 81.2976 107.562 81.6318 107.282 81.9132C107.001 82.1946 106.667 82.4179 106.3 82.5701C105.932 82.7223 105.538 82.8004 105.141 82.8001H105.021V88.9728C105.005 89.6085 104.741 90.2127 104.286 90.6566C103.83 91.1004 103.219 91.3489 102.583 91.3489C101.948 91.3489 101.337 91.1004 100.881 90.6566C100.426 90.2127 100.162 89.6085 100.146 88.9728V82.8001H94.0219V88.9728C94.0056 89.6085 93.7416 90.2127 93.2862 90.6566C92.8308 91.1004 92.22 91.3489 91.5841 91.3489C90.9482 91.3489 90.3374 91.1004 89.882 90.6566C89.4266 90.2127 89.1626 89.6085 89.1463 88.9728V82.8001H89.0277C88.2514 82.8008 87.5046 82.5026 86.9423 81.9673C86.38 81.4321 86.0454 80.7008 86.0079 79.9254V64.1603C86.0079 64.0673 86.0151 63.9751 86.0231 63.8837H108.153V63.8813ZM82.0862 65.2738C82.4043 65.2715 82.7196 65.3318 83.0143 65.4515C83.309 65.5711 83.5772 65.7476 83.8036 65.971C84.03 66.1943 84.2101 66.4601 84.3338 66.7531C84.4574 67.0462 84.522 67.3607 84.524 67.6787V77.9782C84.522 78.2963 84.4574 78.6108 84.3338 78.9038C84.2101 79.1968 84.03 79.4626 83.8036 79.686C83.5772 79.9093 83.309 80.0858 83.0143 80.2055C82.7196 80.3251 82.4043 80.3855 82.0862 80.3832C81.7682 80.3855 81.4529 80.3251 81.1582 80.2055C80.8635 80.0858 80.5953 79.9093 80.3689 79.686C80.1425 79.4626 79.9623 79.1968 79.8387 78.9038C79.7151 78.6108 79.6504 78.2963 79.6484 77.9782V67.6755C79.6504 67.3575 79.7151 67.043 79.8387 66.7499C79.9623 66.4569 80.1425 66.1911 80.3689 65.9678C80.5953 65.7444 80.8635 65.5679 81.1582 65.4483C81.4529 65.3286 81.7682 65.2682 82.0862 65.2706V65.2738ZM112.082 65.2738C112.4 65.2715 112.716 65.3318 113.01 65.4515C113.305 65.5711 113.573 65.7476 113.8 65.971C114.026 66.1943 114.206 66.4601 114.33 66.7531C114.453 67.0462 114.518 67.3607 114.52 67.6787V77.9782C114.504 78.614 114.24 79.2182 113.784 79.662C113.329 80.1059 112.718 80.3543 112.082 80.3543C111.446 80.3543 110.835 80.1059 110.38 79.662C109.925 79.2182 109.661 78.614 109.644 77.9782V67.6755C109.649 67.0338 109.909 66.4202 110.366 65.9699C110.823 65.5195 111.44 65.2691 112.082 65.2738ZM107.359 52.9325C107.388 52.9488 107.413 52.9707 107.434 52.997C107.454 53.0233 107.47 53.0534 107.478 53.0855C107.487 53.1177 107.489 53.1513 107.485 53.1843C107.48 53.2174 107.469 53.2492 107.453 53.278L105.388 56.8012C107.052 58.3838 108.02 60.5626 108.078 62.8584H86.0896C86.148 60.5629 87.1154 58.3846 88.7792 56.802L86.7157 53.278C86.6989 53.2492 86.688 53.2174 86.6836 53.1843C86.6792 53.1513 86.6814 53.1177 86.6902 53.0855C86.6989 53.0534 86.7139 53.0233 86.7344 52.997C86.7549 52.9707 86.7805 52.9488 86.8095 52.9325C86.8685 52.8988 86.9384 52.8897 87.0041 52.9071C87.0698 52.9245 87.126 52.967 87.1606 53.0255L89.1648 56.4437C91.0409 54.8163 93.3847 53.8258 95.8593 53.6147H98.3091C100.785 53.8254 103.129 54.8159 105.006 56.4437L107.009 53.0255C107.043 52.9672 107.099 52.9248 107.165 52.9074C107.23 52.8901 107.3 52.899 107.359 52.9325ZM92.5437 57.3415C92.2155 57.3361 91.8987 57.4613 91.6628 57.6895C91.427 57.9177 91.2914 58.2303 91.2859 58.5584C91.2942 58.8874 91.4307 59.2002 91.6664 59.43C91.902 59.6598 92.2182 59.7884 92.5473 59.7884C92.8764 59.7884 93.1925 59.6598 93.4282 59.43C93.6638 59.2002 93.8004 58.8874 93.8087 58.5584C93.8019 58.2298 93.665 57.9174 93.4279 57.6898C93.1908 57.4622 92.8731 57.3381 92.5445 57.3447L92.5437 57.3415ZM101.959 57.3415C101.631 57.3361 101.314 57.4613 101.078 57.6895C100.842 57.9177 100.707 58.2303 100.701 58.5584C100.71 58.8874 100.846 59.2002 101.082 59.43C101.317 59.6598 101.633 59.7884 101.963 59.7884C102.292 59.7884 102.608 59.6598 102.844 59.43C103.079 59.2002 103.216 58.8874 103.224 58.5584C103.221 58.3956 103.185 58.2351 103.12 58.086C103.055 57.9369 102.96 57.8022 102.843 57.6895C102.725 57.5768 102.587 57.4883 102.435 57.4292C102.284 57.37 102.122 57.3413 101.959 57.3447V57.3415Z" fill="#FAFAFA"/>
<defs>
<filter id="filter0_d_325_19359" x="408.648" y="0.986328" width="151.192" height="151.191" filterUnits="userSpaceOnUse" color-interpolation-filters="sRGB">
<feFlood flood-opacity="0" result="BackgroundImageFix"/>
<feColorMatrix in="SourceAlpha" type="matrix" values="0 0 0 0 0 0 0 0 0 0 0 0 0 0 0 0 0 0 127 0" result="hardAlpha"/>
<feOffset dy="4"/>
<feGaussianBlur stdDeviation="28"/>
<feComposite in2="hardAlpha" operator="out"/>
<feColorMatrix type="matrix" values="0 0 0 0 0 0 0 0 0 0 0 0 0 0 0 0 0 0 0.02 0"/>
<feBlend mode="normal" in2="BackgroundImageFix" result="effect1_dropShadow_325_19359"/>
<feBlend mode="normal" in="SourceGraphic" in2="effect1_dropShadow_325_19359" result="shape"/>
</filter>
</defs>
</svg>
