<svg width="47" height="47" viewBox="0 0 47 47" fill="none" xmlns="http://www.w3.org/2000/svg">
<circle cx="23.4158" cy="23.4109" r="23.283" fill="url(#paint0_linear_1956_248)"/>
<path d="M19.5198 31.9343C27.4288 31.9343 31.7563 25.3745 31.7563 19.6971C31.7563 19.5127 31.7563 19.3282 31.748 19.1438C32.5911 18.5319 33.3184 17.7746 33.8957 16.9073C33.1093 17.2549 32.2758 17.4842 31.4224 17.5878C32.3217 17.0494 32.995 16.2028 33.3172 15.2054C32.472 15.7069 31.5467 16.0591 30.5819 16.2464C29.992 15.617 29.2264 15.1795 28.3847 14.9908C27.5429 14.8022 26.6639 14.871 25.8618 15.1884C25.0596 15.5059 24.3715 16.0572 23.8868 16.7708C23.4021 17.4844 23.1432 18.3273 23.1438 19.1899C23.1462 19.5188 23.1827 19.8466 23.2528 20.168C21.5426 20.0825 19.8694 19.6383 18.342 18.8642C16.8146 18.0901 15.467 17.0035 14.3867 15.6749C13.8379 16.6228 13.6703 17.7441 13.918 18.8111C14.1657 19.8781 14.8101 20.8108 15.7204 21.42C15.0385 21.3963 14.3717 21.2125 13.774 20.8835V20.9422C13.7749 21.9349 14.1186 22.8969 14.7467 23.6656C15.3749 24.4344 16.2492 24.9627 17.2219 25.1614C16.8533 25.2631 16.4724 25.3139 16.09 25.3123C15.8193 25.313 15.549 25.2877 15.2831 25.2369C15.5573 26.0918 16.0922 26.8396 16.8127 27.3752C17.5333 27.9108 18.4034 28.2075 19.3011 28.2237C17.7779 29.4211 15.8959 30.0709 13.9584 30.0682C13.6166 30.0698 13.275 30.0502 12.9355 30.0095C14.9025 31.2645 17.1873 31.9309 19.5205 31.9302" fill="white"/>
<defs>
<linearGradient id="paint0_linear_1956_248" x1="0.132813" y1="0.12793" x2="46.6987" y2="46.6939" gradientUnits="userSpaceOnUse">
<stop stop-color="#089DE5"/>
<stop offset="1" stop-color="#087DBD"/>
</linearGradient>
</defs>
</svg>
