<svg viewBox="0 0 40 40" fill="none" xmlns="http://www.w3.org/2000/svg">
<path d="M20.1393 39.7234C16.7941 39.707 13.5074 38.8505 10.585 37.2337L0 40L2.78552 29.7094C0.989176 26.712 0.0278155 23.2941 0 19.8061C0.0110911 15.8861 1.18998 12.057 3.38819 8.80103C5.58641 5.54509 8.70564 3.00795 12.353 1.50913C16.0004 0.0103178 20.0128 -0.383132 23.885 0.378337C27.7571 1.13981 31.3157 3.02214 34.1127 5.78826C36.9096 8.55439 38.8199 12.0806 39.6027 15.9228C40.3856 19.765 40.0061 23.7513 38.512 27.3797C37.018 31.0081 34.4762 34.1163 31.2067 36.3128C27.9373 38.5094 24.0865 39.6961 20.1393 39.7234ZM20.1393 3.40206C17.1861 3.43562 14.2946 4.24573 11.7592 5.74991C9.22382 7.25408 7.13505 9.39861 5.70557 11.9651C4.27609 14.5317 3.55697 17.4286 3.62141 20.3608C3.68585 23.2931 4.53156 26.1561 6.07243 28.6582L6.46241 29.2945L4.79109 35.3526L11.1421 33.6375L11.7549 33.9972C14.2885 35.4792 17.1711 36.2712 20.1115 36.2932C24.544 36.2932 28.7951 34.5445 31.9294 31.4318C35.0637 28.3191 36.8246 24.0975 36.8246 19.6955C36.8246 15.2935 35.0637 11.0718 31.9294 7.95912C28.7951 4.84645 24.5719 3.40206 20.1393 3.40206ZM29.8886 26.9708C29.5238 27.5751 29.0353 28.0967 28.4547 28.5017C27.8741 28.9068 27.2144 29.1863 26.5182 29.3221C25.4779 29.511 24.4069 29.4445 23.3984 29.1285C22.4495 28.8339 21.5193 28.4829 20.6128 28.0773C17.1692 26.3613 14.2324 23.7879 12.0892 20.6083C10.9245 19.1352 10.2178 17.3567 10.0557 15.4907C10.0391 14.7156 10.1868 13.9456 10.4891 13.2308C10.7914 12.516 11.2417 11.8722 11.8106 11.3413C11.9782 11.1526 12.1838 11.0009 12.4141 10.8961C12.6444 10.7913 12.8943 10.7356 13.1477 10.7327H13.9276C14.234 10.7327 14.6518 10.7327 15.0418 11.5903C15.4318 12.4478 16.4624 15.0205 16.6017 15.2694C16.6701 15.4021 16.7058 15.5491 16.7058 15.6982C16.7058 15.8473 16.6701 15.9943 16.6017 16.127C16.4786 16.4276 16.3094 16.7075 16.1003 16.9568C15.8496 17.2611 15.5711 17.6208 15.3482 17.8421C15.1254 18.0634 14.8468 18.34 15.1254 18.8379C15.8833 20.1082 16.8214 21.2634 17.9109 22.2681C19.0973 23.3092 20.4538 24.1418 21.922 24.7301C22.4234 24.9791 22.7298 24.9514 23.0084 24.7301C23.287 24.5088 24.2619 23.2916 24.5961 22.7937C24.9304 22.2958 25.2647 22.3788 25.7103 22.5447C26.156 22.7107 28.6351 23.9002 29.1365 24.1492C29.6379 24.3982 29.9443 24.5088 30.0836 24.7301C30.2044 25.4541 30.1373 26.1967 29.8886 26.8878V26.9708Z" fill="#F8F8F8"/>
</svg>
