<svg width="80" height="80" viewBox="0 0 80 80" fill="none" xmlns="http://www.w3.org/2000/svg">
<path d="M64.7836 18.6457C63.6925 16.9311 61.822 15.918 59.7957 15.918C57.7694 15.918 55.8989 16.9311 54.8078 18.6457C54.7299 18.8016 54.6519 18.9575 54.6519 19.0354V22.9322H15.8399C15.3723 22.9322 15.0605 23.2439 15.0605 23.7115V63.3029C15.0605 63.7705 15.3723 64.0823 15.8399 64.0823H60.1854C62.7572 64.0823 64.9394 61.978 64.9394 59.3282C64.9394 47.482 64.9394 31.4272 64.9394 18.9575C64.9394 18.9575 64.8615 18.8016 64.7836 18.6457ZM56.2106 19.3471C57.0679 18.1781 58.3928 17.5546 59.7957 17.5546C61.1985 17.5546 62.5234 18.256 63.3807 19.3471C63.3807 26.829 63.3807 47.404 63.3807 55.899C62.3676 55.1197 61.1206 54.73 59.7957 54.73C58.4708 54.73 57.2238 55.1197 56.2106 55.899V19.3471ZM60.1854 62.6015H16.6193V24.5688H54.6519V57.8474C54.6519 58.1592 54.8857 58.4709 55.1975 58.6268C55.5092 58.7047 55.8989 58.6268 56.0548 58.315C56.9121 57.0681 58.237 56.2887 59.7957 56.2887C61.1985 56.2887 62.5234 56.9901 63.3807 58.0812V59.4061C63.3807 61.1987 61.9779 62.6015 60.1854 62.6015Z" fill="url(#paint0_linear_1614_2325)"/>
<path d="M20.127 48.2613H51.2234C51.691 48.2613 52.0027 47.9496 52.0027 47.4819V41.325C52.0027 40.8574 51.691 40.5457 51.2234 40.5457H20.127C19.6594 40.5457 19.3477 40.8574 19.3477 41.325V47.4819C19.3477 47.9496 19.6594 48.2613 20.127 48.2613ZM20.9064 42.1823H50.444V46.7805H47.4045V45.2218C47.4045 44.7542 47.0928 44.4424 46.6252 44.4424C46.1576 44.4424 45.8458 44.7542 45.8458 45.2218V46.7805H43.0401V44.2086C43.0401 43.741 42.7284 43.4293 42.2608 43.4293C41.7932 43.4293 41.4814 43.741 41.4814 44.2086V46.7805H38.6757V45.2218C38.6757 44.7542 38.364 44.4424 37.8964 44.4424C37.4288 44.4424 37.117 44.7542 37.117 45.2218V46.7805H34.3113V44.2086C34.3113 43.741 33.9996 43.4293 33.532 43.4293C33.0644 43.4293 32.7526 43.741 32.7526 44.2086V46.7805H29.869V45.2218C29.869 44.7542 29.5572 44.4424 29.0896 44.4424C28.622 44.4424 28.3103 44.7542 28.3103 45.2218V46.7805H25.5046V44.2086C25.5046 43.741 25.1928 43.4293 24.7252 43.4293C24.2576 43.4293 23.9459 43.741 23.9459 44.2086V46.7805H20.9064V42.1823Z" fill="url(#paint1_linear_1614_2325)"/>
<path d="M51.0674 52.47C31.4276 52.47 42.0268 52.47 23.634 52.47C23.5561 52.47 23.4002 52.47 23.2443 52.5479L18.8799 54.886C18.6461 55.0419 18.4902 55.2757 18.4902 55.5874C18.4902 55.8991 18.6461 56.133 18.8799 56.2888C23.2443 58.549 23.2443 58.7048 23.634 58.7048C30.882 58.7048 44.3649 58.7048 51.1453 58.7048C52.1585 58.7048 52.9378 57.8475 52.9378 56.9123V54.4184C52.8599 53.3273 52.0806 52.47 51.0674 52.47ZM20.8283 55.5874L22.7767 54.5742V56.6006L20.8283 55.5874ZM24.3354 54.0287H46.8589V57.0682H24.3354V54.0287ZM51.3012 56.8344C51.3012 56.9902 51.1453 57.0682 51.0674 57.0682H48.4176V54.0287H51.0674C51.2233 54.0287 51.3012 54.1846 51.3012 54.2625V56.8344Z" fill="url(#paint2_linear_1614_2325)"/>
<path d="M25.0365 33.3755H31.8949L34.8564 36.3371C35.0123 36.493 35.2461 36.5709 35.402 36.5709C35.6358 36.5709 35.7917 36.493 35.9475 36.3371L38.987 33.2976H46.2351C46.3909 33.6093 46.5468 33.9211 46.7806 34.1549C47.2482 34.6225 47.9496 34.9342 48.5731 34.9342C49.1966 34.9342 49.898 34.7004 50.3657 34.1549C51.3788 33.1417 51.3788 31.5051 50.3657 30.4919C49.3525 29.4787 47.7158 29.4787 46.7027 30.4919C46.3909 30.8036 46.1571 31.2713 46.0013 31.7389H38.8312L35.7917 28.6994C35.6358 28.5435 35.4799 28.4656 35.2461 28.4656C35.0123 28.4656 34.8564 28.5435 34.7006 28.6994L31.739 31.6609H25.0365C24.3351 28.6994 19.9707 29.167 19.9707 32.2065C20.0486 35.1681 23.9454 35.9474 25.0365 33.3755ZM48.6511 31.3492C49.5863 31.3492 49.976 32.4403 49.3525 33.0638C48.9628 33.4535 48.3393 33.4535 47.8717 33.0638C47.7158 32.9079 47.56 32.5962 47.56 32.3624C47.6379 31.8168 48.1055 31.3492 48.6511 31.3492ZM35.402 30.414L37.5063 32.5182L35.402 34.6225L33.2977 32.5182L35.402 30.414ZM22.6205 31.3492C23.5557 31.3492 24.0234 32.4403 23.3219 33.0638C22.6985 33.6873 21.6074 33.2197 21.6074 32.3624C21.6074 31.8168 22.075 31.3492 22.6205 31.3492Z" fill="url(#paint3_linear_1614_2325)"/>
<defs>
<linearGradient id="paint0_linear_1614_2325" x1="15.0605" y1="15.918" x2="63.1954" y2="65.7664" gradientUnits="userSpaceOnUse">
<stop stop-color="#089DE5"/>
<stop offset="1" stop-color="#087DBD"/>
</linearGradient>
<linearGradient id="paint1_linear_1614_2325" x1="19.3477" y1="40.5457" x2="22.8009" y2="55.161" gradientUnits="userSpaceOnUse">
<stop stop-color="#089DE5"/>
<stop offset="1" stop-color="#087DBD"/>
</linearGradient>
<linearGradient id="paint2_linear_1614_2325" x1="18.4902" y1="52.47" x2="20.6756" y2="64.5442" gradientUnits="userSpaceOnUse">
<stop stop-color="#089DE5"/>
<stop offset="1" stop-color="#087DBD"/>
</linearGradient>
<linearGradient id="paint3_linear_1614_2325" x1="19.9707" y1="28.4656" x2="23.9207" y2="43.6486" gradientUnits="userSpaceOnUse">
<stop stop-color="#089DE5"/>
<stop offset="1" stop-color="#087DBD"/>
</linearGradient>
</defs>
</svg>
