<svg xmlns="http://www.w3.org/2000/svg" xmlns:xlink="http://www.w3.org/1999/xlink" width="90" height="90" viewBox="0 0 90 90">
  <defs>
    <clipPath id="clip-path">
      <rect id="Rectangle_2" data-name="Rectangle 2" width="90" height="90" transform="translate(-301 198)" fill="#fff" stroke="#707070" stroke-width="1" opacity="0.9"/>
    </clipPath>
    <linearGradient id="linear-gradient" x1="0.5" y1="1" x2="0.5" gradientUnits="objectBoundingBox">
      <stop offset="0" stop-color="#087bba"/>
      <stop offset="1" stop-color="#089fe8"/>
    </linearGradient>
    <linearGradient id="linear-gradient-29" x1="0.5" y1="1" x2="0.5" y2="0" xlink:href="#linear-gradient"/>
    <linearGradient id="linear-gradient-31" x1="0.5" y1="1" x2="0.5" y2="0" xlink:href="#linear-gradient"/>
    <linearGradient id="linear-gradient-37" x1="1" y1="1" x2="1" y2="0" xlink:href="#linear-gradient"/>
  </defs>
  <g id="favicon" transform="translate(301 -198)" clip-path="url(#clip-path)">
    <g id="Group_7" data-name="Group 7" transform="translate(304.491 77.521)">
      <path id="Path_1" data-name="Path 1" d="M-2426.24,2351.431a2.843,2.843,0,0,1-2.844,2.843,2.842,2.842,0,0,1-2.842-2.843,2.842,2.842,0,0,1,2.842-2.843A2.843,2.843,0,0,1-2426.24,2351.431Z" transform="translate(1871.167 -2217.822)" fill="url(#linear-gradient)"/>
      <path id="Path_2" data-name="Path 2" d="M-2364.188,2406.846a1.48,1.48,0,0,1-1.48,1.481,1.48,1.48,0,0,1-1.481-1.481,1.48,1.48,0,0,1,1.481-1.481A1.48,1.48,0,0,1-2364.188,2406.846Z" transform="translate(1811.89 -2269.778)" fill="url(#linear-gradient)"/>
      <path id="Path_3" data-name="Path 3" d="M-2410.522,2436.8a1.681,1.681,0,0,1-1.681,1.681,1.681,1.681,0,0,1-1.682-1.681,1.681,1.681,0,0,1,1.682-1.682A1.681,1.681,0,0,1-2410.522,2436.8Z" transform="translate(1854.658 -2297.008)" fill="url(#linear-gradient)"/>
      <path id="Path_4" data-name="Path 4" d="M-2416.719,2302.281a1.05,1.05,0,0,1-1.05,1.051,1.05,1.05,0,0,1-1.051-1.051,1.05,1.05,0,0,1,1.051-1.05A1.05,1.05,0,0,1-2416.719,2302.281Z" transform="translate(1859.173 -2174.484)" fill="url(#linear-gradient)"/>
      <path id="Path_5" data-name="Path 5" d="M-2453.4,2372.672a.417.417,0,0,1-.417.417.417.417,0,0,1-.417-.417.416.416,0,0,1,.417-.416A.416.416,0,0,1-2453.4,2372.672Z" transform="translate(1891.579 -2239.48)" fill="url(#linear-gradient)"/>
      <path id="Path_6" data-name="Path 6" d="M-2348.873,2372.672a.417.417,0,0,1-.417.417.417.417,0,0,1-.417-.417.416.416,0,0,1,.417-.416A.416.416,0,0,1-2348.873,2372.672Z" transform="translate(1795.927 -2239.48)" fill="url(#linear-gradient)"/>
      <path id="Path_7" data-name="Path 7" d="M-2369.014,2321.481a.417.417,0,0,1-.417.417.416.416,0,0,1-.416-.417.417.417,0,0,1,.416-.417A.418.418,0,0,1-2369.014,2321.481Z" transform="translate(1814.359 -2192.633)" fill="url(#linear-gradient)"/>
      <path id="Path_8" data-name="Path 8" d="M-2446.2,2422.455a.773.773,0,0,1-.773.773.773.773,0,0,1-.773-.773.774.774,0,0,1,.773-.774A.774.774,0,0,1-2446.2,2422.455Z" transform="translate(1885.645 -2284.709)" fill="url(#linear-gradient)"/>
      <path id="Path_9" data-name="Path 9" d="M-2438.849,2540.506a2.32,2.32,0,0,1-2.319,2.321,2.321,2.321,0,0,1-2.32-2.321,2.32,2.32,0,0,1,2.32-2.319A2.319,2.319,0,0,1-2438.849,2540.506Z" transform="translate(1881.747 -2391.326)" fill="url(#linear-gradient)"/>
      <path id="Path_10" data-name="Path 10" d="M-2571.258,2540.506a2.32,2.32,0,0,1-2.319,2.321,2.321,2.321,0,0,1-2.32-2.321,2.32,2.32,0,0,1,2.32-2.319A2.319,2.319,0,0,1-2571.258,2540.506Z" transform="translate(2002.917 -2391.326)" fill="url(#linear-gradient)"/>
      <path id="Path_11" data-name="Path 11" d="M-2627.164,2632.608a2.32,2.32,0,0,1-2.319,2.32,2.32,2.32,0,0,1-2.319-2.32,2.319,2.319,0,0,1,2.319-2.319A2.319,2.319,0,0,1-2627.164,2632.608Z" transform="translate(2054.077 -2475.608)" fill="url(#linear-gradient)"/>
      <path id="Path_12" data-name="Path 12" d="M-2711.972,2584.645a2.844,2.844,0,0,1-2.844,2.843,2.844,2.844,0,0,1-2.844-2.843,2.844,2.844,0,0,1,2.844-2.844A2.844,2.844,0,0,1-2711.972,2584.645Z" transform="translate(2132.646 -2431.237)" fill="url(#linear-gradient)"/>
      <path id="Path_13" data-name="Path 13" d="M-2620.925,2563.675a1.682,1.682,0,0,1-1.682,1.682,1.682,1.682,0,0,1-1.681-1.682,1.681,1.681,0,0,1,1.681-1.682A1.681,1.681,0,0,1-2620.925,2563.675Z" transform="translate(2047.2 -2413.111)" fill="url(#linear-gradient)"/>
      <path id="Path_14" data-name="Path 14" d="M-2449.79,2500.993a1.325,1.325,0,0,1-1.325,1.325,1.325,1.325,0,0,1-1.325-1.325,1.325,1.325,0,0,1,1.325-1.325A1.325,1.325,0,0,1-2449.79,2500.993Z" transform="translate(1889.94 -2356.076)" fill="url(#linear-gradient)"/>
      <path id="Path_15" data-name="Path 15" d="M-2506.807,2550.671a1.05,1.05,0,0,1-1.051,1.05,1.05,1.05,0,0,1-1.05-1.05,1.05,1.05,0,0,1,1.05-1.05A1.05,1.05,0,0,1-2506.807,2550.671Z" transform="translate(1941.615 -2401.789)" fill="url(#linear-gradient)"/>
      <path id="Path_16" data-name="Path 16" d="M-2558.846,2603.977a1.05,1.05,0,0,1-1.05,1.05,1.05,1.05,0,0,1-1.051-1.05,1.051,1.051,0,0,1,1.051-1.051A1.05,1.05,0,0,1-2558.846,2603.977Z" transform="translate(1989.235 -2450.568)" fill="url(#linear-gradient)"/>
      <path id="Path_17" data-name="Path 17" d="M-2470.852,2597.844a.774.774,0,0,1-.773.773.773.773,0,0,1-.773-.773.773.773,0,0,1,.773-.774A.774.774,0,0,1-2470.852,2597.844Z" transform="translate(1908.204 -2445.21)" fill="url(#linear-gradient)"/>
      <path id="Path_18" data-name="Path 18" d="M-2372.5,2505.861a.773.773,0,0,1-.773.773.773.773,0,0,1-.773-.773.774.774,0,0,1,.773-.773A.773.773,0,0,1-2372.5,2505.861Z" transform="translate(1818.202 -2361.036)" fill="url(#linear-gradient)"/>
      <path id="Path_19" data-name="Path 19" d="M-2585.46,2476.238a.774.774,0,0,1-.773.773.774.774,0,0,1-.773-.773.774.774,0,0,1,.773-.773A.773.773,0,0,1-2585.46,2476.238Z" transform="translate(2013.084 -2333.927)" fill="url(#linear-gradient)"/>
      <path id="Path_20" data-name="Path 20" d="M-2381.61,2573.463a.774.774,0,0,1-.774.773.773.773,0,0,1-.772-.773.773.773,0,0,1,.772-.773A.774.774,0,0,1-2381.61,2573.463Z" transform="translate(1826.539 -2422.899)" fill="url(#linear-gradient)"/>
      <path id="Path_21" data-name="Path 21" d="M-2639.37,2606.956a.774.774,0,0,1-.773.773.773.773,0,0,1-.774-.773.773.773,0,0,1,.774-.773A.774.774,0,0,1-2639.37,2606.956Z" transform="translate(2062.418 -2453.549)" fill="url(#linear-gradient)"/>
      <path id="Path_22" data-name="Path 22" d="M-2505.523,2588.342a.416.416,0,0,1-.416.416.417.417,0,0,1-.417-.416.417.417,0,0,1,.417-.418A.416.416,0,0,1-2505.523,2588.342Z" transform="translate(1939.28 -2436.84)" fill="url(#linear-gradient)"/>
      <path id="Path_23" data-name="Path 23" d="M-2565.023,2510.777a.417.417,0,0,1-.416.417.418.418,0,0,1-.417-.417.417.417,0,0,1,.417-.417A.416.416,0,0,1-2565.023,2510.777Z" transform="translate(1993.729 -2365.861)" fill="url(#linear-gradient)"/>
      <path id="Path_24" data-name="Path 24" d="M-2658.418,2559.374a.416.416,0,0,1-.416.417.417.417,0,0,1-.417-.417.416.416,0,0,1,.417-.417A.416.416,0,0,1-2658.418,2559.374Z" transform="translate(2079.196 -2410.333)" fill="url(#linear-gradient)"/>
      <path id="Path_25" data-name="Path 25" d="M-2532.84,2477.333a1.681,1.681,0,0,1-1.681,1.682,1.68,1.68,0,0,1-1.681-1.682,1.68,1.68,0,0,1,1.681-1.681A1.681,1.681,0,0,1-2532.84,2477.333Z" transform="translate(1966.591 -2334.099)" fill="url(#linear-gradient)"/>
      <path id="Path_26" data-name="Path 26" d="M-2484.307,2455.98a1.049,1.049,0,0,1-1.05,1.049,1.049,1.049,0,0,1-1.05-1.049,1.05,1.05,0,0,1,1.05-1.05A1.05,1.05,0,0,1-2484.307,2455.98Z" transform="translate(1921.023 -2315.136)" fill="url(#linear-gradient)"/>
      <path id="Path_27" data-name="Path 27" d="M-2436.006,2475.175a.416.416,0,0,1-.417.417.416.416,0,0,1-.416-.417.417.417,0,0,1,.416-.417A.416.416,0,0,1-2436.006,2475.175Z" transform="translate(1875.663 -2333.281)" fill="url(#linear-gradient)"/>
      <path id="Path_28" data-name="Path 28" d="M-2336.342,2453.639a.417.417,0,0,1-.417.417.417.417,0,0,1-.417-.417.417.417,0,0,1,.417-.417A.418.418,0,0,1-2336.342,2453.639Z" transform="translate(1784.46 -2313.572)" fill="url(#linear-gradient)"/>
      <path id="Path_29" data-name="Path 29" d="M-2398.154,2513.912a.417.417,0,0,1-.417.417.417.417,0,0,1-.417-.417.417.417,0,0,1,.417-.417A.417.417,0,0,1-2398.154,2513.912Z" transform="translate(1841.025 -2368.729)" fill="url(#linear-gradient-29)"/>
      <path id="Path_30" data-name="Path 30" d="M-2586.88,2615.009a.416.416,0,0,1-.417.417.417.417,0,0,1-.417-.417.417.417,0,0,1,.417-.417A.416.416,0,0,1-2586.88,2615.009Z" transform="translate(2013.73 -2461.245)" fill="url(#linear-gradient)"/>
      <path id="Path_31" data-name="Path 31" d="M-2412.876,2610.1a.417.417,0,0,1-.417.417.416.416,0,0,1-.416-.417.417.417,0,0,1,.416-.417A.417.417,0,0,1-2412.876,2610.1Z" transform="translate(1854.498 -2456.752)" fill="url(#linear-gradient-31)"/>
      <path id="Path_32" data-name="Path 32" d="M-2560.111,2648.209a.417.417,0,0,1-.416.417.418.418,0,0,1-.417-.417.417.417,0,0,1,.417-.416A.416.416,0,0,1-2560.111,2648.209Z" transform="translate(1989.234 -2491.627)" fill="url(#linear-gradient)"/>
      <path id="Path_33" data-name="Path 33" d="M-2398.154,2269.287a.417.417,0,0,1-.417.418.417.417,0,0,1-.417-.418.417.417,0,0,1,.417-.416A.417.417,0,0,1-2398.154,2269.287Z" transform="translate(1841.025 -2144.871)" fill="url(#linear-gradient)"/>
      <path id="Path_34" data-name="Path 34" d="M-2364.106,2480.081a.416.416,0,0,1-.416.417.417.417,0,0,1-.417-.417.417.417,0,0,1,.417-.416A.416.416,0,0,1-2364.106,2480.081Z" transform="translate(1809.867 -2337.771)" fill="url(#linear-gradient)"/>
      <path id="Path_35" data-name="Path 35" d="M-2483.332,2518.822a.416.416,0,0,1-.416.417.417.417,0,0,1-.417-.417.417.417,0,0,1,.417-.417A.416.416,0,0,1-2483.332,2518.822Z" transform="translate(1918.972 -2373.222)" fill="url(#linear-gradient)"/>
      <path id="Path_36" data-name="Path 36" d="M-2749.337,2539.654a1.392,1.392,0,0,0-.36-.1l-.071-.021,0,.014a1.174,1.174,0,0,0-.138-.014,1.367,1.367,0,0,0-1.367,1.367,1.366,1.366,0,0,0,1.367,1.367,1.356,1.356,0,0,0,.5-.1,6.706,6.706,0,0,1-.161,1.107.774.774,0,0,0-.272-.051.79.79,0,0,0-.79.79.788.788,0,0,0,.546.747c-.1.21-.208.419-.326.624a.414.414,0,0,0-.256-.09.417.417,0,0,0-.418.417.417.417,0,0,0,.232.373h0l.008,0a.42.42,0,0,0,.108.035A23.913,23.913,0,0,1-2733.761,2569a23.908,23.908,0,0,1-23.907,23.908A23.908,23.908,0,0,1-2781.576,2569a23.809,23.809,0,0,1,6.066-15.9,1.081,1.081,0,0,0,.224-.254c.017-.018.031-.037.048-.055l-.017,0a1.045,1.045,0,0,0,.128-.5,1.049,1.049,0,0,0-1.05-1.05,1.05,1.05,0,0,0-1.05,1.05.854.854,0,0,0,.009.087c-.2-.048-.395-.1-.59-.15a.77.77,0,0,0-.767-.71.767.767,0,0,0-.613.307c-.354-.112-.7-.232-1.038-.356a.888.888,0,0,0,.009-.088,1.05,1.05,0,0,0-1.05-1.051,1.043,1.043,0,0,0-.8.379l-.015-.007a30.377,30.377,0,0,0-6.094,18.3,30.509,30.509,0,0,0,30.509,30.509A30.508,30.508,0,0,0-2727.159,2569,30.517,30.517,0,0,0-2749.337,2539.654Z" transform="translate(2197.177 -2392.554)" fill="url(#linear-gradient)"/>
      <g id="Group_8" data-name="Group 8" transform="translate(-573.455 164.634)">
        <path id="Path_38" data-name="Path 38" d="M18.809-28.067c-.09-.931-.06-3.632-.06-7.955v-4.623c0-4.053.24-8.045.24-9.036H18.9c-.871.991-7.565,7.234-8.135,7.745l1.351,1.621c.871-.9,3.182-3.122,4.053-4.143v7.775c0,4.053-.18,7.835-.18,8.615Z" transform="translate(-10.764 49.86)" fill="url(#linear-gradient-37)"/>
        <path id="Path_37" data-name="Path 37" d="M18.033-50.094c-4.083,2.882-8.856,9.366-8.856,15.31a7.215,7.215,0,0,0,1.831,5.313,5.543,5.543,0,0,0,4.233,1.651,7.365,7.365,0,0,0,7.2-7.325c0-3.782-3.812-6.484-8.825-6.3a17.544,17.544,0,0,1,5.974-6.574ZM11.879-34.965a10.441,10.441,0,0,1,.811-4.413c3.512-.24,6.934,1.5,6.934,4.833a4.306,4.306,0,0,1-4.173,4.533C13.38-30.012,11.879-31.9,11.879-34.965Z" transform="translate(0.447 50.094)" fill="url(#linear-gradient-37)"/>
      </g>
    </g>
  </g>
</svg>
